<svg width="70" height="70" viewBox="0 0 70 70" fill="none" xmlns="http://www.w3.org/2000/svg">
<circle cx="35" cy="35" r="34.5" stroke="#28AECB"/>
<path d="M20.4434 33.8905V28.1055C20.4434 27.6745 20.6146 27.2612 20.9193 26.9564C21.2241 26.6517 21.6374 26.4805 22.0684 26.4805H48.7184C49.1493 26.4805 49.5627 26.6517 49.8674 26.9564C50.1722 27.2612 50.3434 27.6745 50.3434 28.1055V46.793C50.3434 47.2239 50.1722 47.6373 49.8674 47.942C49.5627 48.2468 49.1493 48.418 48.7184 48.418H22.0684C21.6374 48.418 21.2241 48.2468 20.9193 47.942C20.6146 47.6373 20.4434 47.2239 20.4434 46.793V40.9998" stroke="#28AECB" stroke-linecap="round" stroke-linejoin="round"/>
<path d="M19.4688 33.8906H28.8125C29.2435 33.8906 29.6568 34.0618 29.9615 34.3666C30.2663 34.6713 30.4375 35.0846 30.4375 35.5156V39.375C30.4375 39.806 30.2663 40.2193 29.9615 40.524C29.6568 40.8288 29.2435 41 28.8125 41H19.4688C19.2533 41 19.0466 40.9144 18.8942 40.762C18.7419 40.6097 18.6562 40.403 18.6562 40.1875V34.7031C18.6562 34.4876 18.7419 34.281 18.8942 34.1286C19.0466 33.9762 19.2533 33.8906 19.4688 33.8906Z" stroke="#28AECB" stroke-linecap="round" stroke-linejoin="round"/>
<path d="M45.9729 26.4808L25.7173 20.582L24.0029 26.4808" stroke="#28AECB" stroke-linecap="round" stroke-linejoin="round"/>
</svg>
