<svg width="70" height="70" viewBox="0 0 70 70" fill="none" xmlns="http://www.w3.org/2000/svg">
<path d="M33.6371 16.85C34.1941 16.6452 34.8059 16.6452 35.3629 16.85L47.8629 21.4468C48.8464 21.8085 49.5 22.7452 49.5 23.7932V33.271C49.5 42.4031 43.3742 50.92 35.0728 53.329C34.6988 53.4376 34.3012 53.4376 33.9272 53.3291C25.6258 50.92 19.5 42.4031 19.5 33.271V23.7932C19.5 22.7452 20.1536 21.8085 21.1371 21.4468L33.6371 16.85ZM31.3948 41.3952C31.9788 41.9679 32.9141 41.9671 33.4971 41.3933L42.9989 32.0424C43.5968 31.454 43.596 30.4896 42.997 29.9023L41.6921 28.6226C41.1088 28.0506 40.175 28.0506 39.5916 28.6226L32.777 35.3054C32.5825 35.4961 32.2712 35.4961 32.0768 35.3054L29.3696 32.6506C28.7863 32.0786 27.8525 32.0786 27.2691 32.6506L25.9655 33.929C25.3658 34.5171 25.3658 35.4829 25.9655 36.071L31.3948 41.3952Z" stroke="#28AECB"/>
<circle cx="35" cy="35" r="34.5" stroke="#28AECB"/>
</svg>
