<svg width="35" height="35" viewBox="0 0 35 35" fill="none" xmlns="http://www.w3.org/2000/svg">
<circle cx="17.5" cy="17.5" r="17.5" fill="#28AECB"/>
<path d="M13.7584 20.8805L14.7704 20.6468C14.8043 20.6391 14.8378 20.63 14.8708 20.6193C15.0448 20.5726 15.205 20.4846 15.3377 20.3627C15.4703 20.2407 15.5716 20.0886 15.6328 19.9191C15.6939 19.7496 15.7132 19.5678 15.689 19.3893C15.6648 19.2108 15.5978 19.0407 15.4937 18.8936C15.3805 18.7497 15.2404 18.6292 15.0812 18.5389C14.8931 18.4317 14.6962 18.3406 14.4927 18.2666L13.3817 17.861C12.7587 17.6291 12.1335 17.4031 11.5062 17.1832C11.0978 17.0374 10.7499 16.9109 10.4515 16.8174C10.3952 16.7995 10.3319 16.783 10.281 16.7652C10.0124 16.6721 9.73179 16.6183 9.4478 16.6056C9.29989 16.5997 9.15252 16.6269 9.01645 16.6851C8.88038 16.7434 8.75905 16.8314 8.6613 16.9425C8.61006 17.0005 8.56187 17.0611 8.51692 17.124C8.43031 17.2573 8.35883 17.3998 8.3038 17.5489C8.09755 18.158 7.99442 18.7974 8.0013 19.4409C8.00405 20.0225 8.01917 20.7691 8.33955 21.2751C8.41621 21.4051 8.51926 21.5175 8.64205 21.6051C8.8703 21.7619 9.09992 21.7825 9.33917 21.799C9.69667 21.8251 10.0445 21.7371 10.3897 21.6574L13.7543 20.8791L13.7584 20.8805ZM25.0595 15.5029C24.783 14.9226 24.4112 14.3928 23.9595 13.9354C23.8443 13.8258 23.7175 13.729 23.5814 13.6466C23.5145 13.6096 23.4456 13.5761 23.3752 13.5463C23.2386 13.4894 23.0911 13.4637 22.9434 13.4711C22.7957 13.4785 22.6515 13.5187 22.5213 13.5889C22.326 13.6851 22.117 13.8391 21.8393 14.0977C21.8008 14.1361 21.7527 14.1801 21.71 14.22C21.4804 14.4345 21.2247 14.7013 20.9208 15.0106C20.4533 15.485 19.9899 15.9608 19.532 16.4434L18.7098 17.2959C18.5593 17.4513 18.4222 17.6192 18.3 17.7978C18.1954 17.9485 18.122 18.1187 18.0842 18.2983C18.0616 18.4356 18.0649 18.576 18.0938 18.7121C18.0938 18.719 18.0965 18.7245 18.0979 18.73C18.1625 19.0121 18.3341 19.258 18.5765 19.416C18.8189 19.574 19.1132 19.6317 19.3973 19.577C19.4315 19.5723 19.4655 19.5658 19.499 19.5578L23.8784 18.5458C24.2235 18.466 24.5742 18.3918 24.8849 18.213C25.0925 18.092 25.2905 17.9724 25.4267 17.7318C25.4989 17.5988 25.5425 17.4522 25.5545 17.3014C25.6233 16.7046 25.3098 16.0268 25.0595 15.5029ZM17.2207 17.344C17.5369 16.9453 17.5369 16.3513 17.5644 15.8659C17.6607 14.242 17.761 12.6181 17.8408 10.9943C17.871 10.3783 17.937 9.77052 17.9013 9.15177C17.871 8.64027 17.8669 8.05315 17.5438 7.63377C16.9759 6.89402 15.7604 6.95452 14.9299 7.06865C14.6755 7.10302 14.4212 7.15115 14.1695 7.21165C13.9182 7.27068 13.6692 7.33902 13.4229 7.41652C12.6254 7.67777 11.5075 8.1549 11.3192 9.07202C11.2119 9.5904 11.4649 10.1211 11.6615 10.5941C11.8994 11.1675 12.2253 11.6831 12.5209 12.2235C13.3047 13.648 14.1022 15.0643 14.8969 16.4819C15.1334 16.9054 15.3919 17.4403 15.8525 17.6603C15.8828 17.674 15.9144 17.685 15.946 17.6946C16.1523 17.773 16.3764 17.7881 16.5909 17.7386L16.6294 17.729C16.8276 17.6753 17.007 17.5677 17.1478 17.4183C17.1734 17.3944 17.1977 17.3691 17.2207 17.3426V17.344ZM16.8412 21.6904C16.7019 21.4953 16.4979 21.356 16.2655 21.2971C16.0332 21.2381 15.7875 21.2635 15.572 21.3686C15.5021 21.404 15.4354 21.4454 15.3727 21.4924C15.1936 21.6333 15.0337 21.7969 14.8969 21.9791C14.8612 22.0245 14.8282 22.085 14.7869 22.1221L14.0829 23.0915C13.6842 23.6346 13.2895 24.1791 12.899 24.7319C12.6447 25.0894 12.4233 25.3905 12.25 25.6573L12.151 25.8085C11.942 26.1316 11.8238 26.3668 11.7633 26.5771C11.7182 26.7163 11.7042 26.8637 11.722 27.0089C11.7399 27.1601 11.7908 27.3073 11.8705 27.4379C11.9132 27.5025 11.9585 27.5658 12.008 27.6276C12.1132 27.7493 12.2317 27.8586 12.3614 27.9535C13.2585 28.5613 14.3001 28.9217 15.3809 28.9985C15.5418 29.0038 15.7027 28.9914 15.8608 28.9614C15.9366 28.9435 16.0115 28.9214 16.0849 28.8954C16.228 28.8414 16.3582 28.758 16.4672 28.6507C16.5708 28.5472 16.6506 28.4224 16.7009 28.2849C16.782 28.0828 16.8357 27.8243 16.87 27.442L16.8865 27.2633C16.914 26.9457 16.9278 26.573 16.9484 26.1344C16.9828 25.4606 17.0089 24.7869 17.0309 24.1145L17.0763 22.9183C17.0942 22.6306 17.0687 22.3418 17.0007 22.0616C16.9671 21.9301 16.9128 21.8048 16.8398 21.6904H16.8412ZM24.7928 23.5631C24.5905 23.3582 24.3599 23.1832 24.108 23.0434L23.954 22.9513C23.6804 22.7863 23.3518 22.613 22.9654 22.404C22.3742 22.0795 21.7829 21.7633 21.1848 21.4484L20.1302 20.8888C20.0752 20.8723 20.0202 20.8338 19.9679 20.8076C19.7652 20.7041 19.5498 20.6274 19.3272 20.5794C19.2501 20.5644 19.1719 20.5562 19.0934 20.5546C18.8541 20.5556 18.6227 20.6411 18.4403 20.7961C18.2579 20.9511 18.1361 21.1656 18.0965 21.4016C18.0802 21.5358 18.0848 21.6718 18.1103 21.8045C18.1625 22.085 18.289 22.3628 18.4183 22.6061L18.982 23.6621C19.2955 24.2589 19.6132 24.8501 19.939 25.4414C20.148 25.8264 20.324 26.1564 20.4863 26.43C20.5179 26.4809 20.5523 26.5359 20.5798 26.584C20.7792 26.9126 20.9387 27.1203 21.1009 27.2674C21.2083 27.3716 21.3376 27.4506 21.4794 27.4984C21.6212 27.5462 21.7719 27.5617 21.9204 27.5438C21.9981 27.5347 22.0752 27.5214 22.1514 27.5039C22.3065 27.4614 22.4563 27.402 22.5983 27.3265C23.0272 27.0862 23.4225 26.7903 23.7739 26.4465C24.1947 26.034 24.5673 25.5803 24.8574 25.0633C24.8987 24.9904 24.933 24.9134 24.9619 24.8364C24.9892 24.7639 25.0126 24.69 25.032 24.615C25.0499 24.538 25.0623 24.4624 25.0719 24.384C25.0862 24.2321 25.0684 24.079 25.0197 23.9344C24.9721 23.7955 24.8947 23.6688 24.7928 23.5631Z" fill="black"/>
</svg>
