<svg width="35" height="35" viewBox="0 0 35 35" fill="none" xmlns="http://www.w3.org/2000/svg">
<circle cx="17.5" cy="17.5" r="17.5" fill="#28AECB"/>
<path d="M17.4972 13.9985C15.5692 13.9985 13.9958 15.5719 13.9958 17.5C13.9958 19.4281 15.5692 21.0015 17.4972 21.0015C19.4252 21.0015 20.9986 19.4281 20.9986 17.5C20.9986 15.5719 19.4252 13.9985 17.4972 13.9985ZM27.9988 17.5C27.9988 16.05 28.012 14.6132 27.9305 13.1658C27.8491 11.4847 27.4656 9.99268 26.2363 8.76335C25.0044 7.53139 23.515 7.15051 21.8339 7.06908C20.3839 6.98765 18.9471 7.00078 17.4998 7.00078C16.0499 7.00078 14.613 6.98765 13.1657 7.06908C11.4846 7.15051 9.99262 7.53402 8.76331 8.76335C7.53138 9.9953 7.1505 11.4847 7.06908 13.1658C6.98765 14.6158 7.00078 16.0526 7.00078 17.5C7.00078 18.9474 6.98765 20.3868 7.06908 21.8342C7.1505 23.5153 7.53401 25.0073 8.76331 26.2367C9.99525 27.4686 11.4846 27.8495 13.1657 27.9309C14.6157 28.0124 16.0525 27.9992 17.4998 27.9992C18.9498 27.9992 20.3866 28.0124 21.8339 27.9309C23.515 27.8495 25.007 27.466 26.2363 26.2367C27.4682 25.0047 27.8491 23.5153 27.9305 21.8342C28.0146 20.3868 27.9988 18.95 27.9988 17.5ZM17.4972 22.8875C14.5158 22.8875 12.1098 20.4814 12.1098 17.5C12.1098 14.5186 14.5158 12.1125 17.4972 12.1125C20.4785 12.1125 22.8846 14.5186 22.8846 17.5C22.8846 20.4814 20.4785 22.8875 17.4972 22.8875ZM23.1052 13.1501C22.4092 13.1501 21.847 12.5879 21.847 11.8918C21.847 11.1957 22.4092 10.6336 23.1052 10.6336C23.8013 10.6336 24.3634 11.1957 24.3634 11.8918C24.3636 12.0571 24.3312 12.2208 24.2681 12.3736C24.2049 12.5263 24.1123 12.6651 23.9954 12.782C23.8785 12.8989 23.7397 12.9915 23.587 13.0547C23.4342 13.1179 23.2705 13.1503 23.1052 13.1501Z" fill="black"/>
</svg>
