<svg width="35" height="35" viewBox="0 0 35 35" fill="none" xmlns="http://www.w3.org/2000/svg">
<g clip-path="url(#clip0_106_1805)">
<path d="M17.5 0.546875C7.83266 0.546875 0 8.13477 0 17.5C0 26.8652 7.83266 34.4531 17.5 34.4531C27.1673 34.4531 35 26.8652 35 17.5C35 8.13477 27.1673 0.546875 17.5 0.546875ZM29.4607 23.7139C29.2137 24.2676 28.1835 24.6709 26.2994 24.958C26.2006 25.0879 26.123 25.6279 25.996 26.0449C25.9183 26.2979 25.7349 26.4482 25.4244 26.4482H25.4103C24.9728 26.4482 24.5071 26.25 23.5897 26.25C22.3478 26.25 21.9173 26.5234 20.9506 27.1865C19.9274 27.8906 18.9466 28.4922 17.4788 28.4307C15.997 28.54 14.755 27.665 14.0565 27.1865C13.0827 26.5234 12.6593 26.25 11.4173 26.25C10.5353 26.25 9.97782 26.4619 9.59677 26.4619C9.21573 26.4619 9.06754 26.2363 9.01109 26.0518C8.88407 25.6348 8.80645 25.0879 8.70766 24.958C7.73387 24.8145 5.54637 24.4453 5.49698 23.4951C5.48286 23.249 5.65927 23.0303 5.91331 22.9893C9.18044 22.4697 10.6482 19.2227 10.7117 19.0859C10.7117 19.0791 10.7188 19.0723 10.7258 19.0654C10.9022 18.7236 10.9375 18.4365 10.8387 18.2109C10.5988 17.6709 9.57561 17.4795 9.14516 17.3086C8.03024 16.8848 7.875 16.3926 7.94556 16.0576C8.05847 15.4766 8.96169 15.1143 9.49093 15.3535C9.90726 15.5449 10.2812 15.6406 10.5988 15.6406C10.8317 15.6406 10.9869 15.5859 11.0645 15.5449C10.9657 13.9111 10.7329 11.5801 11.3327 10.2744C12.9204 6.83594 16.2792 6.5625 17.2671 6.5625C17.3095 6.5625 17.6976 6.55566 17.7399 6.55566C20.1885 6.55566 22.5383 7.77246 23.6885 10.2676C24.2883 11.5732 24.0554 13.8975 23.9567 15.5381C24.0343 15.5791 24.1613 15.627 24.3589 15.6338C24.6623 15.6201 25.0081 15.5244 25.3962 15.3467C25.6784 15.2168 26.0736 15.2373 26.3558 15.3467C26.8004 15.5039 27.0827 15.8115 27.0897 16.1602C27.0968 16.6045 26.6875 16.9873 25.876 17.2949C25.7772 17.3359 25.6573 17.3701 25.5302 17.4111C25.0716 17.5547 24.373 17.7666 24.1895 18.1973C24.0907 18.4229 24.1331 18.71 24.3024 19.0518C24.3095 19.0586 24.3095 19.0654 24.3165 19.0723C24.38 19.209 25.8478 22.4561 29.1149 22.9756C29.3972 23.0439 29.6159 23.3516 29.4607 23.7139Z" fill="#28AECB"/>
</g>
<defs>
<clipPath id="clip0_106_1805">
<rect width="35" height="35" fill="white"/>
</clipPath>
</defs>
</svg>
