<svg width="35" height="35" viewBox="0 0 35 35" fill="none" xmlns="http://www.w3.org/2000/svg">
<g clip-path="url(#clip0_106_1803)">
<path d="M35 17.5C35 22.1413 33.1563 26.5925 29.8744 29.8744C26.5925 33.1563 22.1413 35 17.5 35C12.8587 35 8.40752 33.1563 5.12563 29.8744C1.84374 26.5925 0 22.1413 0 17.5C0 12.8587 1.84374 8.40752 5.12563 5.12563C8.40752 1.84374 12.8587 0 17.5 0C22.1413 0 26.5925 1.84374 29.8744 5.12563C33.1563 8.40752 35 12.8587 35 17.5ZM18.1278 12.9194C16.4259 13.6281 13.0222 15.0938 7.92094 17.3162C7.09406 17.6444 6.65875 17.9681 6.61938 18.2831C6.55375 18.8147 7.22094 19.0247 8.12875 19.3113L8.51156 19.4316C9.40406 19.7225 10.6072 20.0616 11.2306 20.0747C11.7994 20.0878 12.4316 19.8559 13.1294 19.3747C17.8959 16.1569 20.3569 14.5316 20.51 14.4966C20.6194 14.4703 20.7725 14.4397 20.8731 14.5316C20.9759 14.6213 20.965 14.7941 20.9541 14.84C20.8884 15.1222 18.27 17.5547 16.9159 18.8147C16.4937 19.2084 16.1941 19.4862 16.1328 19.5497C15.9979 19.6875 15.8608 19.8232 15.7216 19.9566C14.8903 20.7572 14.2691 21.3566 15.7544 22.3366C16.4697 22.8091 17.0428 23.1962 17.6138 23.5856C18.235 24.01 18.8563 24.4322 19.6612 24.9616C19.8647 25.0928 20.0616 25.235 20.2519 25.3706C20.9759 25.8869 21.63 26.3506 22.4328 26.2763C22.9009 26.2325 23.3844 25.795 23.6294 24.4825C24.2091 21.3828 25.3488 14.6694 25.6112 11.9022C25.6273 11.6722 25.6177 11.4411 25.5828 11.2131C25.5622 11.0292 25.4732 10.8598 25.3334 10.7384C25.1344 10.601 24.8971 10.5299 24.6553 10.535C23.9991 10.5459 22.9862 10.8981 18.1278 12.9194Z" fill="#28AECB"/>
</g>
<defs>
<clipPath id="clip0_106_1803">
<rect width="35" height="35" fill="white"/>
</clipPath>
</defs>
</svg>
