<svg width="35" height="35" viewBox="0 0 35 35" fill="none" xmlns="http://www.w3.org/2000/svg">
<g clip-path="url(#clip0_106_1809)">
<path d="M17.5002 0.699219C8.2217 0.699219 0.700195 8.22072 0.700195 17.4992C0.700195 26.7777 8.2217 34.2992 17.5002 34.2992C26.7787 34.2992 34.3002 26.7777 34.3002 17.4992C34.3002 8.22072 26.7787 0.699219 17.5002 0.699219ZM24.3339 14.4612C24.3409 14.6047 24.3427 14.7482 24.3427 14.8882C24.3427 19.2632 21.0159 24.305 14.9294 24.305C13.131 24.308 11.3699 23.7914 9.85794 22.8175C10.1152 22.849 10.3794 22.8612 10.6472 22.8612C12.1977 22.8612 13.6239 22.3345 14.7562 21.4455C14.0662 21.4319 13.3976 21.2034 12.8436 20.7919C12.2897 20.3803 11.8779 19.8062 11.6657 19.1495C12.1612 19.2437 12.6717 19.2239 13.1584 19.0917C12.4095 18.9403 11.736 18.5345 11.2522 17.9431C10.7683 17.3518 10.5039 16.6113 10.5037 15.8472V15.807C10.9499 16.0537 11.4609 16.2042 12.0034 16.2217C11.3013 15.7543 10.8043 15.0364 10.614 14.2147C10.4237 13.393 10.5545 12.5297 10.9797 11.8012C11.8109 12.8232 12.8474 13.6593 14.0222 14.2553C15.197 14.8512 16.4838 15.1939 17.7994 15.261C17.6322 14.551 17.7042 13.8057 18.0042 13.1409C18.3043 12.476 18.8155 11.929 19.4586 11.5847C20.1016 11.2404 20.8404 11.1182 21.56 11.2371C22.2796 11.3561 22.9398 11.7094 23.4379 12.2422C24.1785 12.0957 24.8887 11.8241 25.5379 11.439C25.2911 12.2057 24.7744 12.8568 24.0837 13.2712C24.7397 13.1922 25.3802 13.0159 25.9842 12.748C25.5405 13.4128 24.9817 13.993 24.3339 14.4612Z" fill="#28AECB"/>
</g>
<defs>
<clipPath id="clip0_106_1809">
<rect width="35" height="35" fill="white"/>
</clipPath>
</defs>
</svg>
