<svg width="162" height="34" viewBox="0 0 162 34" fill="none" xmlns="http://www.w3.org/2000/svg">
<path d="M68.6719 19.2109C68.6719 18.957 68.6328 18.7292 68.5547 18.5273C68.4831 18.319 68.3464 18.1302 68.1445 17.9609C67.9427 17.7852 67.6595 17.6126 67.2949 17.4434C66.9303 17.2741 66.4583 17.0983 65.8789 16.916C65.2344 16.7077 64.6224 16.4733 64.043 16.2129C63.4701 15.9525 62.9622 15.6497 62.5195 15.3047C62.0833 14.9531 61.7383 14.5462 61.4844 14.084C61.237 13.6217 61.1133 13.0846 61.1133 12.4727C61.1133 11.8802 61.2435 11.3431 61.5039 10.8613C61.7643 10.373 62.1289 9.95638 62.5977 9.61133C63.0664 9.25977 63.6198 8.98958 64.2578 8.80078C64.9023 8.61198 65.6087 8.51758 66.377 8.51758C67.4251 8.51758 68.3398 8.70638 69.1211 9.08398C69.9023 9.46159 70.5078 9.97917 70.9375 10.6367C71.3737 11.2943 71.5918 12.0462 71.5918 12.8926H68.6816C68.6816 12.4759 68.5938 12.1113 68.418 11.7988C68.2487 11.4798 67.9883 11.2292 67.6367 11.0469C67.2917 10.8646 66.8555 10.7734 66.3281 10.7734C65.8203 10.7734 65.3971 10.8516 65.0586 11.0078C64.7201 11.1576 64.4661 11.3626 64.2969 11.623C64.1276 11.877 64.043 12.1634 64.043 12.4824C64.043 12.7233 64.1016 12.9414 64.2188 13.1367C64.3424 13.332 64.5247 13.5143 64.7656 13.6836C65.0065 13.8529 65.3027 14.0124 65.6543 14.1621C66.0059 14.3118 66.4128 14.4583 66.875 14.6016C67.6497 14.8359 68.3301 15.0996 68.916 15.3926C69.5085 15.6855 70.0033 16.0143 70.4004 16.3789C70.7975 16.7435 71.097 17.1569 71.2988 17.6191C71.5007 18.0814 71.6016 18.6055 71.6016 19.1914C71.6016 19.8099 71.4811 20.3633 71.2402 20.8516C70.9993 21.3398 70.651 21.7533 70.1953 22.0918C69.7396 22.4303 69.196 22.6875 68.5645 22.8633C67.9329 23.0391 67.2266 23.127 66.4453 23.127C65.7422 23.127 65.0488 23.0358 64.3652 22.8535C63.6816 22.6647 63.0599 22.3815 62.5 22.0039C61.9466 21.6263 61.5039 21.1445 61.1719 20.5586C60.8398 19.9727 60.6738 19.2793 60.6738 18.4785H63.6133C63.6133 18.9212 63.6816 19.2956 63.8184 19.6016C63.9551 19.9076 64.1471 20.1549 64.3945 20.3438C64.6484 20.5326 64.9479 20.6693 65.293 20.7539C65.6445 20.8385 66.0286 20.8809 66.4453 20.8809C66.9531 20.8809 67.3698 20.8092 67.6953 20.666C68.0273 20.5228 68.2715 20.3242 68.4277 20.0703C68.5905 19.8164 68.6719 19.5299 68.6719 19.2109ZM76.2305 7.92188V22.9316H73.418V7.92188H76.2305ZM82.8906 12.3652L78.3008 17.5996L75.8398 20.0898L74.8145 18.0586L76.7676 15.5781L79.5117 12.3652H82.8906ZM79.9707 22.9316L76.8457 18.0488L78.7891 16.3496L83.2129 22.9316H79.9707ZM87.2363 21.7402L90.0391 12.3652H93.0566L88.8086 24.5234C88.7174 24.7904 88.5938 25.0768 88.4375 25.3828C88.2878 25.6888 88.0827 25.9785 87.8223 26.252C87.5684 26.5319 87.2461 26.7598 86.8555 26.9355C86.4714 27.1113 85.9993 27.1992 85.4395 27.1992C85.1725 27.1992 84.9544 27.1829 84.7852 27.1504C84.6159 27.1178 84.4141 27.0723 84.1797 27.0137V24.9531C84.2513 24.9531 84.3262 24.9531 84.4043 24.9531C84.4824 24.9596 84.5573 24.9629 84.6289 24.9629C85 24.9629 85.3027 24.9206 85.5371 24.8359C85.7715 24.7513 85.9603 24.6211 86.1035 24.4453C86.2467 24.276 86.3607 24.0547 86.4453 23.7812L87.2363 21.7402ZM86.0645 12.3652L88.3594 20.0215L88.7598 23L86.8457 23.2051L83.0469 12.3652H86.0645ZM104.902 16.6914H101.25L101.23 14.6797H104.297C104.837 14.6797 105.28 14.6113 105.625 14.4746C105.97 14.3314 106.227 14.1263 106.396 13.8594C106.572 13.5859 106.66 13.2539 106.66 12.8633C106.66 12.4206 106.576 12.0625 106.406 11.7891C106.243 11.5156 105.986 11.3171 105.635 11.1934C105.29 11.0697 104.844 11.0078 104.297 11.0078H102.266V22.9316H99.3359V8.71289H104.297C105.124 8.71289 105.863 8.79102 106.514 8.94727C107.171 9.10352 107.728 9.34115 108.184 9.66016C108.639 9.97917 108.988 10.3828 109.229 10.8711C109.469 11.3529 109.59 11.9258 109.59 12.5898C109.59 13.1758 109.456 13.7161 109.189 14.2109C108.929 14.7057 108.516 15.1094 107.949 15.4219C107.389 15.7344 106.657 15.9069 105.752 15.9395L104.902 16.6914ZM104.775 22.9316H100.449L101.592 20.6465H104.775C105.29 20.6465 105.71 20.5651 106.035 20.4023C106.361 20.2331 106.602 20.0052 106.758 19.7188C106.914 19.4323 106.992 19.1035 106.992 18.7324C106.992 18.3158 106.921 17.9544 106.777 17.6484C106.641 17.3424 106.419 17.1081 106.113 16.9453C105.807 16.776 105.404 16.6914 104.902 16.6914H102.08L102.1 14.6797H105.615L106.289 15.4707C107.155 15.4577 107.852 15.6107 108.379 15.9297C108.913 16.2422 109.3 16.6491 109.541 17.1504C109.788 17.6517 109.912 18.1888 109.912 18.7617C109.912 19.6732 109.714 20.4414 109.316 21.0664C108.919 21.6849 108.337 22.1504 107.568 22.4629C106.807 22.7754 105.876 22.9316 104.775 22.9316ZM114.746 14.6699V22.9316H111.934V12.3652H114.58L114.746 14.6699ZM117.93 12.2969L117.881 14.9043C117.744 14.8848 117.578 14.8685 117.383 14.8555C117.194 14.8359 117.021 14.8262 116.865 14.8262C116.468 14.8262 116.123 14.8783 115.83 14.9824C115.544 15.0801 115.303 15.2266 115.107 15.4219C114.919 15.6172 114.775 15.8548 114.678 16.1348C114.587 16.4147 114.535 16.7337 114.521 17.0918L113.955 16.916C113.955 16.2324 114.023 15.6042 114.16 15.0312C114.297 14.4518 114.495 13.9473 114.756 13.5176C115.023 13.0879 115.348 12.7559 115.732 12.5215C116.117 12.2871 116.556 12.1699 117.051 12.1699C117.207 12.1699 117.367 12.1829 117.529 12.209C117.692 12.2285 117.826 12.2578 117.93 12.2969ZM123.926 23.127C123.105 23.127 122.37 22.9967 121.719 22.7363C121.068 22.4694 120.514 22.1016 120.059 21.6328C119.609 21.1641 119.264 20.6204 119.023 20.002C118.783 19.377 118.662 18.7129 118.662 18.0098V17.6191C118.662 16.8184 118.776 16.0859 119.004 15.4219C119.232 14.7578 119.557 14.1816 119.98 13.6934C120.41 13.2051 120.931 12.8307 121.543 12.5703C122.155 12.3034 122.845 12.1699 123.613 12.1699C124.362 12.1699 125.026 12.2936 125.605 12.541C126.185 12.7884 126.67 13.14 127.061 13.5957C127.458 14.0514 127.757 14.5983 127.959 15.2363C128.161 15.8678 128.262 16.571 128.262 17.3457V18.5176H119.863V16.6426H125.498V16.4277C125.498 16.0371 125.426 15.6888 125.283 15.3828C125.146 15.0703 124.938 14.8229 124.658 14.6406C124.378 14.4583 124.02 14.3672 123.584 14.3672C123.213 14.3672 122.894 14.4486 122.627 14.6113C122.36 14.7741 122.142 15.002 121.973 15.2949C121.81 15.5879 121.686 15.9329 121.602 16.3301C121.523 16.7207 121.484 17.1504 121.484 17.6191V18.0098C121.484 18.4329 121.543 18.8236 121.66 19.1816C121.784 19.5397 121.956 19.849 122.178 20.1094C122.406 20.3698 122.679 20.5716 122.998 20.7148C123.324 20.8581 123.691 20.9297 124.102 20.9297C124.609 20.9297 125.081 20.832 125.518 20.6367C125.96 20.4349 126.341 20.1322 126.66 19.7285L128.027 21.2129C127.806 21.5319 127.503 21.8379 127.119 22.1309C126.742 22.4238 126.286 22.6647 125.752 22.8535C125.218 23.0358 124.609 23.127 123.926 23.127ZM134.727 23.127C133.906 23.127 133.171 22.9967 132.52 22.7363C131.868 22.4694 131.315 22.1016 130.859 21.6328C130.41 21.1641 130.065 20.6204 129.824 20.002C129.583 19.377 129.463 18.7129 129.463 18.0098V17.6191C129.463 16.8184 129.577 16.0859 129.805 15.4219C130.033 14.7578 130.358 14.1816 130.781 13.6934C131.211 13.2051 131.732 12.8307 132.344 12.5703C132.956 12.3034 133.646 12.1699 134.414 12.1699C135.163 12.1699 135.827 12.2936 136.406 12.541C136.986 12.7884 137.471 13.14 137.861 13.5957C138.258 14.0514 138.558 14.5983 138.76 15.2363C138.962 15.8678 139.062 16.571 139.062 17.3457V18.5176H130.664V16.6426H136.299V16.4277C136.299 16.0371 136.227 15.6888 136.084 15.3828C135.947 15.0703 135.739 14.8229 135.459 14.6406C135.179 14.4583 134.821 14.3672 134.385 14.3672C134.014 14.3672 133.695 14.4486 133.428 14.6113C133.161 14.7741 132.943 15.002 132.773 15.2949C132.611 15.5879 132.487 15.9329 132.402 16.3301C132.324 16.7207 132.285 17.1504 132.285 17.6191V18.0098C132.285 18.4329 132.344 18.8236 132.461 19.1816C132.585 19.5397 132.757 19.849 132.979 20.1094C133.206 20.3698 133.48 20.5716 133.799 20.7148C134.124 20.8581 134.492 20.9297 134.902 20.9297C135.41 20.9297 135.882 20.832 136.318 20.6367C136.761 20.4349 137.142 20.1322 137.461 19.7285L138.828 21.2129C138.607 21.5319 138.304 21.8379 137.92 22.1309C137.542 22.4238 137.087 22.6647 136.553 22.8535C136.019 23.0358 135.41 23.127 134.727 23.127ZM149.072 20.7344V22.9316H141.045V20.7344H149.072ZM148.916 13.9863L142.178 22.9316H140.293V21.2617L147.002 12.3652H148.916V13.9863ZM147.92 12.3652V14.5723H140.449V12.3652H147.92ZM155.547 23.127C154.727 23.127 153.991 22.9967 153.34 22.7363C152.689 22.4694 152.135 22.1016 151.68 21.6328C151.23 21.1641 150.885 20.6204 150.645 20.002C150.404 19.377 150.283 18.7129 150.283 18.0098V17.6191C150.283 16.8184 150.397 16.0859 150.625 15.4219C150.853 14.7578 151.178 14.1816 151.602 13.6934C152.031 13.2051 152.552 12.8307 153.164 12.5703C153.776 12.3034 154.466 12.1699 155.234 12.1699C155.983 12.1699 156.647 12.2936 157.227 12.541C157.806 12.7884 158.291 13.14 158.682 13.5957C159.079 14.0514 159.378 14.5983 159.58 15.2363C159.782 15.8678 159.883 16.571 159.883 17.3457V18.5176H151.484V16.6426H157.119V16.4277C157.119 16.0371 157.048 15.6888 156.904 15.3828C156.768 15.0703 156.559 14.8229 156.279 14.6406C155.999 14.4583 155.641 14.3672 155.205 14.3672C154.834 14.3672 154.515 14.4486 154.248 14.6113C153.981 14.7741 153.763 15.002 153.594 15.2949C153.431 15.5879 153.307 15.9329 153.223 16.3301C153.145 16.7207 153.105 17.1504 153.105 17.6191V18.0098C153.105 18.4329 153.164 18.8236 153.281 19.1816C153.405 19.5397 153.577 19.849 153.799 20.1094C154.027 20.3698 154.3 20.5716 154.619 20.7148C154.945 20.8581 155.312 20.9297 155.723 20.9297C156.23 20.9297 156.702 20.832 157.139 20.6367C157.581 20.4349 157.962 20.1322 158.281 19.7285L159.648 21.2129C159.427 21.5319 159.124 21.8379 158.74 22.1309C158.363 22.4238 157.907 22.6647 157.373 22.8535C156.839 23.0358 156.23 23.127 155.547 23.127Z" fill="white"/>
<path d="M41.4625 8.85407C44.0713 7.85514 46.6726 6.84959 49.2815 5.85066C50.2268 5.48681 50.2419 4.32249 49.3118 3.93879C44.8578 2.10632 37.5529 -0.162782 28.3652 0.00921944C14.3378 0.267222 4.43164 6.04251 0.469182 8.70853C0.0230279 9.00622 -0.120649 9.52884 0.106209 9.97869C1.70178 13.0416 3.29735 16.098 4.89292 19.1609C5.15759 19.6703 5.82304 19.9085 6.42043 19.7034C9.11248 18.7838 12.6666 17.8445 16.9315 17.3748C19.7294 17.0705 22.2854 17.0308 24.5086 17.1234C25.1287 17.1498 25.2194 17.9238 24.6145 18.0628C23.4197 18.334 22.1341 18.6912 20.7881 19.1742C18.1868 20.1003 16.0997 21.2117 14.5193 22.1974C14.0504 22.4885 13.8841 23.031 14.126 23.4874C15.6914 26.5107 17.2643 29.5339 18.8296 32.5638C19.2606 33.3974 20.6218 33.3841 21.0301 32.544C22.0056 30.5395 22.9735 28.535 23.949 26.5305C24.07 26.2791 24.2969 26.0807 24.5767 25.9748C26.3613 25.3067 28.5845 24.6319 31.2009 24.1754C34.8609 23.5337 38.0747 23.5337 40.5399 23.7057C41.0617 23.7454 41.5532 23.4808 41.7498 23.0574C42.627 21.1654 43.5042 19.28 44.3814 17.388C44.6007 16.9183 44.4041 16.3824 43.9125 16.1112C41.1146 14.55 37.0614 12.6976 31.8361 11.5333C28.1837 10.7196 24.7884 10.4285 21.8468 10.4153C20.6898 10.4087 20.5083 8.95992 21.6351 8.73499C23.6314 8.32483 25.8697 8.01391 28.3123 7.8816C33.4392 7.61036 37.7193 8.24545 40.6987 8.91361C40.9407 8.96653 41.2205 8.9533 41.4625 8.85407Z" fill="#28AECB"/>
</svg>
