<svg width="198" height="36" viewBox="0 0 198 36" fill="none" xmlns="http://www.w3.org/2000/svg">
<path d="M68.4047 12.915C68.4047 12.6464 68.3634 12.4054 68.2807 12.192C68.205 11.9716 68.0604 11.7719 67.8469 11.5929C67.6334 11.4069 67.3339 11.2244 66.9483 11.0454C66.5626 10.8664 66.0634 10.6804 65.4505 10.4876C64.7688 10.2673 64.1215 10.0194 63.5086 9.74392C62.9026 9.46847 62.3655 9.14826 61.8972 8.7833C61.4359 8.41144 61.0709 7.98106 60.8023 7.49214C60.5407 7.00322 60.4098 6.43511 60.4098 5.78781C60.4098 5.16116 60.5475 4.59305 60.823 4.08348C61.0984 3.56701 61.4841 3.1263 61.9799 2.76133C62.4757 2.38948 63.061 2.1037 63.7359 1.904C64.4176 1.7043 65.1647 1.60445 65.9773 1.60445C67.086 1.60445 68.0535 1.80415 68.8798 2.20355C69.7062 2.60295 70.3466 3.1504 70.8011 3.8459C71.2624 4.54141 71.4931 5.33676 71.4931 6.23197H68.415C68.415 5.79125 68.322 5.40562 68.1361 5.07509C67.9571 4.73766 67.6816 4.47255 67.3098 4.27973C66.9448 4.08692 66.4834 3.99051 65.9257 3.99051C65.3885 3.99051 64.9409 4.07315 64.5829 4.23842C64.2248 4.3968 63.9562 4.61371 63.7772 4.88916C63.5981 5.15772 63.5086 5.46071 63.5086 5.79814C63.5086 6.05292 63.5706 6.28361 63.6945 6.4902C63.8254 6.69678 64.0182 6.8896 64.273 7.06864C64.5278 7.24768 64.8411 7.41639 65.2129 7.57477C65.5848 7.73315 66.0152 7.88809 66.5041 8.03959C67.3236 8.28749 68.0432 8.56638 68.6629 8.87626C69.2896 9.18614 69.8129 9.53389 70.233 9.91952C70.653 10.3051 70.9698 10.7424 71.1833 11.2313C71.3967 11.7203 71.5035 12.2746 71.5035 12.8943C71.5035 13.5485 71.3761 14.1339 71.1213 14.6503C70.8665 15.1668 70.4981 15.6041 70.016 15.9621C69.534 16.3202 68.959 16.5922 68.2911 16.7782C67.6231 16.9641 66.8759 17.057 66.0496 17.057C65.3059 17.057 64.5725 16.9606 63.8495 16.7678C63.1264 16.5681 62.4688 16.2686 61.8766 15.8692C61.2913 15.4698 60.823 14.9602 60.4718 14.3404C60.1206 13.7207 59.945 12.9873 59.945 12.1403H63.0541C63.0541 12.6086 63.1264 13.0045 63.271 13.3282C63.4156 13.6518 63.6188 13.9135 63.8805 14.1132C64.149 14.3129 64.4658 14.4575 64.8308 14.547C65.2026 14.6366 65.6089 14.6813 66.0496 14.6813C66.5867 14.6813 67.0274 14.6056 67.3718 14.4541C67.7229 14.3026 67.9812 14.0925 68.1465 13.824C68.3186 13.5554 68.4047 13.2524 68.4047 12.915Z" fill="white"/>
<path d="M76.3995 0.974365V16.8505H73.4247V0.974365H76.3995ZM83.4441 5.67418L78.5893 11.2107L75.9864 13.8446L74.9018 11.6962L76.9676 9.07252L79.8702 5.67418H83.4441ZM80.3556 16.8505L77.0503 11.6858L79.1058 9.88853L83.785 16.8505H80.3556Z" fill="white"/>
<path d="M88.0406 15.5903L91.0051 5.67418H94.1969L89.7036 18.5341C89.6072 18.8165 89.4764 19.1195 89.3111 19.4431C89.1527 19.7668 88.9358 20.0732 88.6604 20.3624C88.3918 20.6585 88.051 20.8995 87.6378 21.0855C87.2315 21.2714 86.7323 21.3643 86.14 21.3643C85.8577 21.3643 85.627 21.3471 85.448 21.3127C85.2689 21.2783 85.0555 21.2301 84.8076 21.1681V18.9886C84.8833 18.9886 84.9625 18.9886 85.0451 18.9886C85.1278 18.9955 85.207 18.9989 85.2827 18.9989C85.6752 18.9989 85.9954 18.9542 86.2433 18.8647C86.4912 18.7751 86.6909 18.6374 86.8424 18.4515C86.9939 18.2725 87.1144 18.0383 87.204 17.7491L88.0406 15.5903ZM86.8011 5.67418L89.2285 13.7723L89.652 16.9228L87.6275 17.1397L83.6094 5.67418H86.8011Z" fill="white"/>
<path d="M106.726 10.2501H102.863L102.842 8.12222H106.086C106.657 8.12222 107.126 8.04992 107.491 7.90531C107.856 7.75381 108.128 7.5369 108.307 7.25456C108.493 6.96534 108.586 6.61415 108.586 6.20098C108.586 5.73272 108.496 5.35398 108.317 5.06476C108.145 4.77554 107.873 4.56551 107.501 4.43467C107.136 4.30383 106.664 4.23842 106.086 4.23842H103.937V16.8505H100.839V1.81104H106.086C106.96 1.81104 107.742 1.89367 108.431 2.05894C109.126 2.22421 109.715 2.47555 110.197 2.81298C110.679 3.1504 111.047 3.57734 111.302 4.09381C111.557 4.60338 111.684 5.20937 111.684 5.91176C111.684 6.53151 111.543 7.10307 111.261 7.62642C110.985 8.14977 110.548 8.57671 109.949 8.90725C109.357 9.23778 108.582 9.42027 107.625 9.4547L106.726 10.2501ZM106.592 16.8505H102.016L103.225 14.4334H106.592C107.136 14.4334 107.58 14.3473 107.924 14.1752C108.269 13.9961 108.524 13.7551 108.689 13.4521C108.854 13.1491 108.937 12.8014 108.937 12.4089C108.937 11.9682 108.861 11.586 108.71 11.2623C108.565 10.9387 108.331 10.6908 108.007 10.5186C107.683 10.3396 107.257 10.2501 106.726 10.2501H103.741L103.762 8.12222H107.48L108.193 8.95889C109.109 8.94512 109.846 9.10695 110.404 9.44437C110.968 9.77491 111.378 10.2053 111.633 10.7355C111.894 11.2658 112.025 11.8339 112.025 12.4399C112.025 13.4039 111.815 14.2165 111.395 14.8776C110.975 15.5318 110.359 16.0241 109.546 16.3547C108.74 16.6852 107.756 16.8505 106.592 16.8505Z" fill="white"/>
<path d="M117.138 8.11189V16.8505H114.163V5.67418H116.963L117.138 8.11189ZM120.506 5.60188L120.454 8.3598C120.309 8.33914 120.134 8.32192 119.927 8.30815C119.727 8.28749 119.545 8.27716 119.38 8.27716C118.96 8.27716 118.595 8.33225 118.285 8.44243C117.982 8.54572 117.727 8.70066 117.52 8.90725C117.321 9.11383 117.169 9.36518 117.066 9.66128C116.969 9.95739 116.914 10.2948 116.901 10.6736L116.302 10.4876C116.302 9.76458 116.374 9.10006 116.518 8.49408C116.663 7.88121 116.873 7.34753 117.149 6.89304C117.431 6.43855 117.775 6.08736 118.181 5.83945C118.588 5.59155 119.053 5.4676 119.576 5.4676C119.741 5.4676 119.91 5.48137 120.082 5.50892C120.254 5.52957 120.395 5.56056 120.506 5.60188Z" fill="white"/>
<path d="M126.848 17.057C125.98 17.057 125.202 16.9193 124.513 16.6439C123.825 16.3615 123.239 15.9725 122.757 15.4767C122.282 14.9809 121.917 14.4059 121.662 13.7517C121.408 13.0906 121.28 12.3882 121.28 11.6445V11.2313C121.28 10.3843 121.401 9.60964 121.642 8.90725C121.883 8.20486 122.227 7.59543 122.675 7.07897C123.129 6.5625 123.68 6.16655 124.327 5.8911C124.975 5.60877 125.705 5.4676 126.517 5.4676C127.309 5.4676 128.011 5.59844 128.624 5.86011C129.237 6.12179 129.75 6.49364 130.163 6.97567C130.583 7.45771 130.9 8.03615 131.114 8.71099C131.327 9.37895 131.434 10.1227 131.434 10.9421V12.1816H122.551V10.1984H128.511V9.97116C128.511 9.55799 128.435 9.18958 128.283 8.86593C128.139 8.53539 127.919 8.27372 127.622 8.0809C127.326 7.88809 126.948 7.79169 126.486 7.79169C126.094 7.79169 125.756 7.87776 125.474 8.04992C125.192 8.22207 124.961 8.46309 124.782 8.77297C124.61 9.08284 124.479 9.44781 124.389 9.86787C124.307 10.281 124.265 10.7355 124.265 11.2313V11.6445C124.265 12.0921 124.327 12.5053 124.451 12.884C124.582 13.2628 124.765 13.5899 124.999 13.8653C125.24 14.1407 125.529 14.3542 125.866 14.5057C126.211 14.6572 126.6 14.733 127.034 14.733C127.571 14.733 128.07 14.6297 128.531 14.4231C129 14.2096 129.402 13.8894 129.74 13.4625L131.186 15.0325C130.952 15.3699 130.632 15.6936 130.225 16.0035C129.826 16.3133 129.344 16.5681 128.779 16.7678C128.215 16.9606 127.571 17.057 126.848 17.057Z" fill="white"/>
<path d="M138.272 17.057C137.404 17.057 136.626 16.9193 135.937 16.6439C135.249 16.3615 134.664 15.9725 134.181 15.4767C133.706 14.9809 133.341 14.4059 133.087 13.7517C132.832 13.0906 132.704 12.3882 132.704 11.6445V11.2313C132.704 10.3843 132.825 9.60964 133.066 8.90725C133.307 8.20486 133.651 7.59543 134.099 7.07897C134.553 6.5625 135.104 6.16655 135.752 5.8911C136.399 5.60877 137.129 5.4676 137.941 5.4676C138.733 5.4676 139.436 5.59844 140.049 5.86011C140.661 6.12179 141.174 6.49364 141.588 6.97567C142.008 7.45771 142.324 8.03615 142.538 8.71099C142.751 9.37895 142.858 10.1227 142.858 10.9421V12.1816H133.975V10.1984H139.935V9.97116C139.935 9.55799 139.859 9.18958 139.708 8.86593C139.563 8.53539 139.343 8.27372 139.047 8.0809C138.75 7.88809 138.372 7.79169 137.91 7.79169C137.518 7.79169 137.18 7.87776 136.898 8.04992C136.616 8.22207 136.385 8.46309 136.206 8.77297C136.034 9.08284 135.903 9.44781 135.814 9.86787C135.731 10.281 135.69 10.7355 135.69 11.2313V11.6445C135.69 12.0921 135.752 12.5053 135.875 12.884C136.006 13.2628 136.189 13.5899 136.423 13.8653C136.664 14.1407 136.953 14.3542 137.291 14.5057C137.635 14.6572 138.024 14.733 138.458 14.733C138.995 14.733 139.494 14.6297 139.956 14.4231C140.424 14.2096 140.827 13.8894 141.164 13.4625L142.61 15.0325C142.376 15.3699 142.056 15.6936 141.65 16.0035C141.25 16.3133 140.768 16.5681 140.203 16.7678C139.639 16.9606 138.995 17.057 138.272 17.057Z" fill="white"/>
<path d="M153.446 14.5264V16.8505H144.955V14.5264H153.446ZM153.28 7.38884L146.153 16.8505H144.16V15.0842L151.256 5.67418H153.28V7.38884ZM152.227 5.67418V8.0086H144.325V5.67418H152.227Z" fill="white"/>
<path d="M160.294 17.057C159.426 17.057 158.648 16.9193 157.959 16.6439C157.271 16.3615 156.686 15.9725 156.204 15.4767C155.728 14.9809 155.363 14.4059 155.109 13.7517C154.854 13.0906 154.726 12.3882 154.726 11.6445V11.2313C154.726 10.3843 154.847 9.60964 155.088 8.90725C155.329 8.20486 155.673 7.59543 156.121 7.07897C156.575 6.5625 157.126 6.16655 157.774 5.8911C158.421 5.60877 159.151 5.4676 159.963 5.4676C160.755 5.4676 161.458 5.59844 162.071 5.86011C162.683 6.12179 163.196 6.49364 163.61 6.97567C164.03 7.45771 164.346 8.03615 164.56 8.71099C164.773 9.37895 164.88 10.1227 164.88 10.9421V12.1816H155.997V10.1984H161.957V9.97116C161.957 9.55799 161.881 9.18958 161.73 8.86593C161.585 8.53539 161.365 8.27372 161.069 8.0809C160.772 7.88809 160.394 7.79169 159.932 7.79169C159.54 7.79169 159.202 7.87776 158.92 8.04992C158.638 8.22207 158.407 8.46309 158.228 8.77297C158.056 9.08284 157.925 9.44781 157.836 9.86787C157.753 10.281 157.712 10.7355 157.712 11.2313V11.6445C157.712 12.0921 157.774 12.5053 157.898 12.884C158.028 13.2628 158.211 13.5899 158.445 13.8653C158.686 14.1407 158.975 14.3542 159.313 14.5057C159.657 14.6572 160.046 14.733 160.48 14.733C161.017 14.733 161.516 14.6297 161.978 14.4231C162.446 14.2096 162.849 13.8894 163.186 13.4625L164.632 15.0325C164.398 15.3699 164.078 15.6936 163.672 16.0035C163.272 16.3133 162.79 16.5681 162.225 16.7678C161.661 16.9606 161.017 17.057 160.294 17.057Z" fill="white"/>
<path d="M182.686 8.8251L181.708 15.0341C181.243 15.5998 180.662 16.0438 179.968 16.3661C179.28 16.6812 178.553 16.9032 177.787 17.0321C177.021 17.161 176.29 17.2183 175.596 17.204C174.529 17.1897 173.619 16.9748 172.867 16.5595C172.122 16.1369 171.528 15.5712 171.084 14.8622C170.647 14.1532 170.354 13.3547 170.203 12.4667C170.053 11.5715 170.038 10.6405 170.16 9.67373L170.3 8.69619C170.436 7.69359 170.697 6.73753 171.084 5.82803C171.471 4.91136 171.976 4.09854 172.599 3.38955C173.222 2.6734 173.967 2.11481 174.833 1.71377C175.7 1.30557 176.684 1.11221 177.787 1.13369C178.89 1.15518 179.828 1.37002 180.602 1.77822C181.375 2.18643 181.977 2.77367 182.406 3.53994C182.843 4.29906 183.097 5.22288 183.169 6.31143L180.14 6.30068C180.104 5.78506 180 5.33031 179.828 4.93643C179.656 4.54255 179.398 4.2346 179.055 4.0126C178.711 3.79059 178.26 3.66885 177.701 3.64736C177.014 3.61872 176.423 3.75479 175.929 4.05557C175.435 4.35635 175.019 4.76097 174.683 5.26943C174.353 5.77074 174.092 6.32217 173.898 6.92373C173.705 7.51813 173.569 8.10179 173.49 8.67471L173.351 9.68447C173.286 10.2073 173.254 10.7587 173.254 11.3388C173.261 11.9117 173.343 12.4524 173.501 12.9608C173.666 13.4621 173.938 13.8739 174.317 14.1962C174.697 14.5113 175.227 14.676 175.907 14.6903C176.237 14.6975 176.559 14.676 176.874 14.6259C177.189 14.5757 177.494 14.4934 177.787 14.3788C178.081 14.2571 178.356 14.0995 178.614 13.9062L179.151 11.1239H176.294L176.691 8.8251H182.686Z" fill="#38D5F8"/>
<path d="M197.649 8.76064L197.564 9.5126C197.42 10.5152 197.152 11.482 196.758 12.413C196.364 13.344 195.848 14.1747 195.211 14.9052C194.574 15.6285 193.814 16.2014 192.934 16.6239C192.06 17.0393 191.068 17.2362 189.958 17.2147C188.898 17.1933 187.999 16.9641 187.262 16.5272C186.531 16.0832 185.951 15.496 185.522 14.7655C185.099 14.0351 184.816 13.2222 184.673 12.3271C184.53 11.4247 184.515 10.5009 184.63 9.55557L184.716 8.81436C184.859 7.81175 185.128 6.84854 185.522 5.92471C185.923 5.00088 186.442 4.17731 187.079 3.454C187.724 2.72354 188.483 2.15062 189.356 1.73525C190.237 1.31989 191.226 1.12295 192.321 1.14443C193.381 1.15876 194.276 1.38792 195.007 1.83193C195.744 2.26878 196.325 2.85244 196.747 3.58291C197.177 4.30622 197.463 5.11904 197.606 6.02139C197.75 6.91657 197.764 7.82965 197.649 8.76064ZM194.373 9.55557L194.481 8.78213C194.538 8.29515 194.566 7.76878 194.566 7.20303C194.574 6.63011 194.509 6.08226 194.373 5.55947C194.237 5.02952 193.994 4.59626 193.643 4.25967C193.299 3.91592 192.801 3.72972 192.149 3.70107C191.448 3.67959 190.846 3.81924 190.345 4.12002C189.851 4.4208 189.435 4.829 189.099 5.34463C188.769 5.85309 188.508 6.41169 188.314 7.02041C188.128 7.62197 187.992 8.21279 187.906 8.79287L187.81 9.56631C187.745 10.0461 187.709 10.5761 187.702 11.1562C187.702 11.7291 187.77 12.2805 187.906 12.8104C188.042 13.3332 188.286 13.7665 188.637 14.1103C188.988 14.454 189.489 14.6402 190.141 14.6688C190.835 14.6903 191.43 14.5471 191.924 14.2392C192.425 13.9312 192.844 13.523 193.181 13.0146C193.517 12.4989 193.782 11.9403 193.976 11.3388C194.169 10.73 194.301 10.1356 194.373 9.55557Z" fill="#38D5F8"/>
<path d="M43.8556 9.3651C46.615 8.30851 49.3665 7.24493 52.1259 6.18834C53.1257 5.80349 53.1417 4.57197 52.1579 4.16613C47.4469 2.22789 39.7204 -0.172177 30.0024 0.00975156C15.1653 0.282645 4.68742 6.39126 0.496262 9.21116C0.024357 9.52604 -0.127613 10.0788 0.112339 10.5546C1.8 13.7944 3.48766 17.0271 5.17533 20.2669C5.45527 20.8056 6.15913 21.0575 6.791 20.8406C9.63843 19.868 13.3977 18.8744 17.9088 18.3776C20.8682 18.0557 23.5716 18.0137 25.9232 18.1117C26.579 18.1397 26.675 18.9584 26.0351 19.1053C24.7714 19.3922 23.4117 19.77 21.988 20.2808C19.2365 21.2605 17.0289 22.436 15.3573 23.4786C14.8614 23.7865 14.6854 24.3603 14.9414 24.8431C16.597 28.0408 18.2607 31.2386 19.9164 34.4433C20.3723 35.325 21.812 35.311 22.2439 34.4223C23.2757 32.3022 24.2995 30.182 25.3313 28.0618C25.4593 27.7959 25.6992 27.586 25.9952 27.474C27.8828 26.7673 30.2343 26.0536 33.0018 25.5708C36.873 24.892 40.2723 24.892 42.8798 25.074C43.4317 25.116 43.9516 24.8361 44.1595 24.3882C45.0873 22.387 46.0151 20.3928 46.943 18.3916C47.1749 17.8948 46.967 17.328 46.4471 17.0411C43.4877 15.3898 39.2005 13.4305 33.6736 12.199C29.8104 11.3383 26.2191 11.0305 23.1077 11.0165C21.884 11.0095 21.692 9.47706 22.8838 9.23915C24.9954 8.80532 27.3629 8.47645 29.9464 8.3365C35.3693 8.04962 39.8964 8.72135 43.0477 9.42808C43.3037 9.48406 43.5996 9.47006 43.8556 9.3651Z" fill="#28AECB"/>
<path d="M67.9054 24.2543V31.6583H67.165V25.3755L64.5736 29.7121H64.4679L61.8764 25.3755V31.6583H61.136V24.2543H62.0563L64.5207 28.3794L66.9852 24.2543H67.9054Z" fill="#DD3434"/>
<path d="M73.9218 30.992C73.3859 31.5208 72.7301 31.7853 71.9544 31.7853C71.1788 31.7853 70.5195 31.5208 69.9765 30.992C69.4406 30.4561 69.1726 29.7967 69.1726 29.014C69.1726 28.2313 69.4406 27.5755 69.9765 27.0467C70.5195 26.5108 71.1788 26.2428 71.9544 26.2428C72.7301 26.2428 73.3859 26.5108 73.9218 27.0467C74.4647 27.5755 74.7362 28.2313 74.7362 29.014C74.7362 29.7967 74.4647 30.4561 73.9218 30.992ZM70.4736 30.5054C70.8756 30.9074 71.3692 31.1083 71.9544 31.1083C72.5397 31.1083 73.0333 30.9074 73.4352 30.5054C73.8372 30.0964 74.0381 29.5993 74.0381 29.014C74.0381 28.4288 73.8372 27.9352 73.4352 27.5332C73.0333 27.1242 72.5397 26.9198 71.9544 26.9198C71.3692 26.9198 70.8756 27.1242 70.4736 27.5332C70.0717 27.9352 69.8707 28.4288 69.8707 29.014C69.8707 29.5993 70.0717 30.0964 70.4736 30.5054Z" fill="#DD3434"/>
<path d="M79.5056 26.3697H80.246L78.0777 31.6583H77.2315L75.0632 26.3697H75.8036L77.6546 30.9285L79.5056 26.3697Z" fill="#DD3434"/>
<path d="M81.7984 25.1005C81.6997 25.1992 81.5798 25.2486 81.4388 25.2486C81.2977 25.2486 81.1779 25.1992 81.0791 25.1005C80.9804 25.0018 80.9311 24.8819 80.9311 24.7409C80.9311 24.5998 80.9804 24.48 81.0791 24.3812C81.1779 24.2825 81.2977 24.2332 81.4388 24.2332C81.5798 24.2332 81.6997 24.2825 81.7984 24.3812C81.8971 24.48 81.9465 24.5998 81.9465 24.7409C81.9465 24.8819 81.8971 25.0018 81.7984 25.1005ZM81.0897 31.6583V26.3697H81.7878V31.6583H81.0897Z" fill="#DD3434"/>
<path d="M85.7443 26.2428C86.3859 26.2428 86.8901 26.4403 87.2568 26.8351C87.6305 27.223 87.8174 27.7483 87.8174 28.4111V31.6583H87.1193V28.4111C87.1193 27.9387 86.9924 27.572 86.7385 27.3111C86.4917 27.0502 86.1391 26.9198 85.6808 26.9198C85.1731 26.9198 84.7606 27.0819 84.4433 27.4063C84.126 27.7236 83.9673 28.2172 83.9673 28.8871V31.6583H83.2692V26.3697H83.9673V27.1948C84.3622 26.5601 84.9545 26.2428 85.7443 26.2428Z" fill="#DD3434"/>
<path d="M93.7154 26.3697H94.4135V31.4468C94.4135 32.2083 94.1526 32.8077 93.6308 33.2449C93.109 33.6821 92.4849 33.9007 91.7586 33.9007C90.5176 33.9007 89.682 33.4706 89.2518 32.6103L89.8653 32.2612C90.1826 32.9029 90.8137 33.2238 91.7586 33.2238C92.365 33.2238 92.841 33.0616 93.1865 32.7372C93.5391 32.4199 93.7154 31.9898 93.7154 31.4468V30.6218C93.2289 31.3974 92.5167 31.7853 91.5788 31.7853C90.8243 31.7853 90.1791 31.5173 89.6432 30.9814C89.1143 30.4455 88.8499 29.7897 88.8499 29.014C88.8499 28.2384 89.1143 27.5826 89.6432 27.0467C90.1791 26.5108 90.8243 26.2428 91.5788 26.2428C92.5167 26.2428 93.2289 26.6306 93.7154 27.4063V26.3697ZM90.1509 30.5054C90.5528 30.9074 91.0464 31.1083 91.6317 31.1083C92.217 31.1083 92.7106 30.9074 93.1125 30.5054C93.5144 30.0964 93.7154 29.5993 93.7154 29.014C93.7154 28.4288 93.5144 27.9352 93.1125 27.5332C92.7106 27.1242 92.217 26.9198 91.6317 26.9198C91.0464 26.9198 90.5528 27.1242 90.1509 27.5332C89.749 27.9352 89.548 28.4288 89.548 29.014C89.548 29.5993 89.749 30.0964 90.1509 30.5054Z" fill="#DD3434"/>
<path d="M99.0859 27.7554C99.0859 27.9951 99.1917 28.1855 99.4032 28.3265C99.6147 28.4676 99.8721 28.5768 100.175 28.6544C100.479 28.732 100.782 28.8201 101.085 28.9188C101.388 29.0105 101.646 29.1692 101.857 29.3948C102.069 29.6134 102.174 29.9025 102.174 30.2621C102.174 30.7134 101.995 31.0801 101.635 31.3622C101.282 31.6442 100.824 31.7853 100.26 31.7853C99.7522 31.7853 99.3186 31.6724 98.959 31.4468C98.6064 31.2211 98.3596 30.9285 98.2186 30.5689L98.8109 30.2198C98.9096 30.4948 99.0859 30.7134 99.3397 30.8756C99.6006 31.0308 99.9074 31.1083 100.26 31.1083C100.605 31.1083 100.895 31.0413 101.127 30.9074C101.36 30.7663 101.476 30.5513 101.476 30.2621C101.476 30.0224 101.371 29.832 101.159 29.691C100.947 29.5499 100.69 29.4407 100.387 29.3631C100.084 29.2855 99.7804 29.2009 99.4772 29.1092C99.174 29.0105 98.9166 28.8519 98.7051 28.6333C98.4936 28.4076 98.3878 28.115 98.3878 27.7554C98.3878 27.3252 98.557 26.9656 98.8955 26.6765C99.241 26.3874 99.6747 26.2428 100.196 26.2428C100.627 26.2428 101.004 26.3415 101.328 26.539C101.653 26.7294 101.892 26.9903 102.047 27.3217L101.466 27.6602C101.261 27.1666 100.838 26.9198 100.196 26.9198C99.8933 26.9198 99.6324 26.9938 99.4138 27.1419C99.1952 27.2829 99.0859 27.4874 99.0859 27.7554Z" fill="#DD3434"/>
<path d="M105.627 26.2428C106.41 26.2428 107.041 26.5214 107.521 27.0784C108.007 27.6284 108.251 28.2807 108.251 29.0352C108.251 29.1128 108.243 29.2221 108.229 29.3631H103.586C103.656 29.899 103.882 30.3256 104.263 30.6429C104.651 30.9532 105.127 31.1083 105.691 31.1083C106.093 31.1083 106.438 31.0272 106.727 30.865C107.024 30.6958 107.246 30.4772 107.394 30.2093L108.007 30.5689C107.775 30.9426 107.457 31.2388 107.055 31.4574C106.653 31.676 106.195 31.7853 105.68 31.7853C104.848 31.7853 104.171 31.5244 103.649 31.0025C103.128 30.4807 102.867 29.8179 102.867 29.014C102.867 28.2243 103.124 27.565 103.639 27.0361C104.154 26.5072 104.816 26.2428 105.627 26.2428ZM105.627 26.9198C105.077 26.9198 104.615 27.0855 104.242 27.4169C103.875 27.7413 103.656 28.1643 103.586 28.6861H107.531C107.461 28.1291 107.246 27.6954 106.886 27.3852C106.526 27.0749 106.107 26.9198 105.627 26.9198Z" fill="#DD3434"/>
<path d="M110.059 27.2476C110.383 26.606 110.94 26.2851 111.73 26.2851V26.9621C111.251 26.9621 110.852 27.1031 110.535 27.3852C110.218 27.6672 110.059 28.1115 110.059 28.7179V31.6583H109.361V26.3697H110.059V27.2476Z" fill="#DD3434"/>
<path d="M116.495 26.3697H117.235L115.067 31.6583H114.221L112.052 26.3697H112.793L114.644 30.9285L116.495 26.3697Z" fill="#DD3434"/>
<path d="M118.788 25.1005C118.689 25.1992 118.569 25.2486 118.428 25.2486C118.287 25.2486 118.167 25.1992 118.068 25.1005C117.97 25.0018 117.92 24.8819 117.92 24.7409C117.92 24.5998 117.97 24.48 118.068 24.3812C118.167 24.2825 118.287 24.2332 118.428 24.2332C118.569 24.2332 118.689 24.2825 118.788 24.3812C118.886 24.48 118.936 24.5998 118.936 24.7409C118.936 24.8819 118.886 25.0018 118.788 25.1005ZM118.079 31.6583V26.3697H118.777V31.6583H118.079Z" fill="#DD3434"/>
<path d="M122.723 31.7853C121.926 31.7853 121.263 31.5208 120.734 30.992C120.205 30.4561 119.941 29.7967 119.941 29.014C119.941 28.2313 120.205 27.5755 120.734 27.0467C121.263 26.5108 121.926 26.2428 122.723 26.2428C123.245 26.2428 123.714 26.3697 124.13 26.6236C124.546 26.8704 124.849 27.2053 125.039 27.6284L124.468 27.9563C124.327 27.639 124.098 27.3887 123.781 27.2053C123.47 27.015 123.118 26.9198 122.723 26.9198C122.138 26.9198 121.644 27.1242 121.242 27.5332C120.84 27.9352 120.639 28.4288 120.639 29.014C120.639 29.5993 120.84 30.0964 121.242 30.5054C121.644 30.9074 122.138 31.1083 122.723 31.1083C123.118 31.1083 123.47 31.0167 123.781 30.8333C124.091 30.6429 124.334 30.3891 124.51 30.0718L125.092 30.4102C124.874 30.8333 124.553 31.1683 124.13 31.4151C123.706 31.6619 123.238 31.7853 122.723 31.7853Z" fill="#DD3434"/>
<path d="M128.486 26.2428C129.269 26.2428 129.9 26.5214 130.379 27.0784C130.866 27.6284 131.109 28.2807 131.109 29.0352C131.109 29.1128 131.102 29.2221 131.088 29.3631H126.445C126.515 29.899 126.741 30.3256 127.122 30.6429C127.509 30.9532 127.985 31.1083 128.55 31.1083C128.951 31.1083 129.297 31.0272 129.586 30.865C129.882 30.6958 130.104 30.4772 130.252 30.2093L130.866 30.5689C130.633 30.9426 130.316 31.2388 129.914 31.4574C129.512 31.676 129.054 31.7853 128.539 31.7853C127.707 31.7853 127.03 31.5244 126.508 31.0025C125.986 30.4807 125.725 29.8179 125.725 29.014C125.725 28.2243 125.983 27.565 126.498 27.0361C127.012 26.5072 127.675 26.2428 128.486 26.2428ZM128.486 26.9198C127.936 26.9198 127.474 27.0855 127.1 27.4169C126.734 27.7413 126.515 28.1643 126.445 28.6861H130.39C130.319 28.1291 130.104 27.6954 129.745 27.3852C129.385 27.0749 128.966 26.9198 128.486 26.9198Z" fill="#DD3434"/>
<path d="M132.563 27.7554C132.563 27.9951 132.669 28.1855 132.88 28.3265C133.092 28.4676 133.349 28.5768 133.652 28.6544C133.956 28.732 134.259 28.8201 134.562 28.9188C134.865 29.0105 135.123 29.1692 135.334 29.3948C135.546 29.6134 135.652 29.9025 135.652 30.2621C135.652 30.7134 135.472 31.0801 135.112 31.3622C134.76 31.6442 134.301 31.7853 133.737 31.7853C133.229 31.7853 132.796 31.6724 132.436 31.4468C132.084 31.2211 131.837 30.9285 131.696 30.5689L132.288 30.2198C132.387 30.4948 132.563 30.7134 132.817 30.8756C133.078 31.0308 133.385 31.1083 133.737 31.1083C134.083 31.1083 134.372 31.0413 134.604 30.9074C134.837 30.7663 134.953 30.5513 134.953 30.2621C134.953 30.0224 134.848 29.832 134.636 29.691C134.425 29.5499 134.167 29.4407 133.864 29.3631C133.561 29.2855 133.258 29.2009 132.954 29.1092C132.651 29.0105 132.394 28.8519 132.182 28.6333C131.971 28.4076 131.865 28.115 131.865 27.7554C131.865 27.3252 132.034 26.9656 132.373 26.6765C132.718 26.3874 133.152 26.2428 133.674 26.2428C134.104 26.2428 134.481 26.3415 134.805 26.539C135.13 26.7294 135.37 26.9903 135.525 27.3217L134.943 27.6602C134.738 27.1666 134.315 26.9198 133.674 26.9198C133.37 26.9198 133.11 26.9938 132.891 27.1419C132.672 27.2829 132.563 27.4874 132.563 27.7554Z" fill="#DD3434"/>
</svg>
