<svg width="330" height="1144" viewBox="0 0 330 1144" fill="none" xmlns="http://www.w3.org/2000/svg">
<path fill-rule="evenodd" clip-rule="evenodd" d="M1476.02 281.976H1226.07C1216.01 281.976 1207.85 290.13 1207.85 300.188V506.175C1207.85 516.233 1216.01 524.387 1226.07 524.387H1476.02C1486.08 524.387 1494.24 516.233 1494.24 506.175V300.188C1494.24 290.13 1486.08 281.976 1476.02 281.976ZM1226.07 281.348C1215.66 281.348 1207.23 289.783 1207.23 300.188V506.175C1207.23 516.58 1215.66 525.015 1226.07 525.015H1476.02C1486.43 525.015 1494.87 516.58 1494.87 506.175V403.182V300.188C1494.87 289.783 1486.43 281.348 1476.02 281.348H1226.07Z" fill="url(#paint0_radial_111_1816)"/>
<path fill-rule="evenodd" clip-rule="evenodd" d="M1918.16 281.976H1551.39C1541.33 281.976 1533.18 290.13 1533.18 300.188V506.175C1533.18 516.233 1541.33 524.387 1551.39 524.387H1918.16C1928.22 524.387 1936.37 516.233 1936.37 506.175V300.188C1936.37 290.13 1928.22 281.976 1918.16 281.976ZM1551.39 281.348C1540.98 281.348 1532.55 289.783 1532.55 300.188V506.175C1532.55 516.58 1540.98 525.015 1551.39 525.015H1918.16C1928.56 525.015 1937 516.58 1937 506.175V300.188C1937 289.783 1928.56 281.348 1918.16 281.348H1551.39Z" fill="url(#paint1_radial_111_1816)"/>
<path fill-rule="evenodd" clip-rule="evenodd" d="M1918.16 0.628009H1226.07C1216.01 0.628009 1207.85 8.78191 1207.85 18.8403V224.827C1207.85 234.885 1216.01 243.039 1226.07 243.039H1918.16C1928.22 243.039 1936.37 234.885 1936.37 224.827V18.8403C1936.37 8.78191 1928.22 0.628009 1918.16 0.628009ZM1226.07 0C1215.66 0 1207.23 8.43507 1207.23 18.8403V224.827C1207.23 235.232 1215.66 243.667 1226.07 243.667H1918.16C1928.56 243.667 1937 235.232 1937 224.827V18.8403C1937 8.43507 1928.56 0 1918.16 0H1226.07Z" fill="url(#paint2_radial_111_1816)"/>
<path fill-rule="evenodd" clip-rule="evenodd" d="M1918.16 719.07H1226.07C1216.01 719.07 1207.85 727.224 1207.85 737.282V943.269C1207.85 953.327 1216.01 961.481 1226.07 961.481H1918.16C1928.22 961.481 1936.37 953.327 1936.37 943.269V737.282C1936.37 727.224 1928.22 719.07 1918.16 719.07ZM1226.07 718.442C1215.66 718.442 1207.23 726.877 1207.23 737.282V943.269C1207.23 953.674 1215.66 962.109 1226.07 962.109H1918.16C1928.56 962.109 1937 953.674 1937 943.269V737.282C1937 726.877 1928.56 718.442 1918.16 718.442H1226.07Z" fill="url(#paint3_radial_111_1816)"/>
<path fill-rule="evenodd" clip-rule="evenodd" d="M993.696 904.961H301.605C291.546 904.961 283.392 913.115 283.392 923.173V1129.16C283.392 1139.22 291.546 1147.37 301.605 1147.37H993.696C1003.75 1147.37 1011.91 1139.22 1011.91 1129.16V923.173C1011.91 913.115 1003.75 904.961 993.696 904.961ZM301.605 904.333C291.199 904.333 282.764 912.768 282.764 923.173V1129.16C282.764 1139.56 291.199 1148 301.605 1148H993.696C1004.1 1148 1012.54 1139.56 1012.54 1129.16V923.173C1012.54 912.768 1004.1 904.333 993.696 904.333H301.605Z" fill="url(#paint4_radial_111_1816)"/>
<path fill-rule="evenodd" clip-rule="evenodd" d="M69.2328 904.961H-170.675C-180.734 904.961 -188.888 913.115 -188.888 923.173V1129.16C-188.888 1139.22 -180.734 1147.37 -170.675 1147.37H69.2328C79.2915 1147.37 87.4457 1139.22 87.4457 1129.16V923.173C87.4457 913.115 79.2915 904.961 69.2328 904.961ZM-170.675 904.333C-181.081 904.333 -189.516 912.768 -189.516 923.173V1129.16C-189.516 1139.56 -181.081 1148 -170.675 1148H69.2328C79.6384 1148 88.0737 1139.56 88.0737 1129.16V923.173C88.0737 912.768 79.6384 904.333 69.2328 904.333H-170.675Z" fill="url(#paint5_radial_111_1816)"/>
<path fill-rule="evenodd" clip-rule="evenodd" d="M-282.465 387.481H-522.373C-532.432 387.481 -540.586 395.635 -540.586 405.694V751.098C-540.586 761.157 -532.432 769.311 -522.373 769.311H-282.465C-272.406 769.311 -264.252 761.157 -264.252 751.098V405.694C-264.252 395.635 -272.406 387.481 -282.465 387.481ZM-522.373 386.853C-532.779 386.853 -541.214 395.288 -541.214 405.694V751.098C-541.214 761.504 -532.779 769.939 -522.373 769.939H-282.465C-272.06 769.939 -263.624 761.504 -263.624 751.098V405.694C-263.624 395.288 -272.06 386.853 -282.465 386.853H-522.373Z" fill="url(#paint6_radial_111_1816)"/>
<path fill-rule="evenodd" clip-rule="evenodd" d="M-246.039 904.961H-485.948C-496.006 904.961 -504.16 913.115 -504.16 923.173V1129.16C-504.16 1139.22 -496.006 1147.37 -485.948 1147.37H-246.039C-235.981 1147.37 -227.826 1139.22 -227.826 1129.16V923.173C-227.826 913.115 -235.981 904.961 -246.039 904.961ZM-485.948 904.333C-496.353 904.333 -504.788 912.768 -504.788 923.173V1129.16C-504.788 1139.56 -496.353 1148 -485.948 1148H-246.039C-235.634 1148 -227.198 1139.56 -227.198 1129.16V923.173C-227.198 912.768 -235.634 904.333 -246.039 904.333H-485.948Z" fill="url(#paint7_radial_111_1816)"/>
<path fill-rule="evenodd" clip-rule="evenodd" d="M233.463 878.603C233.463 864.896 244.581 853.786 258.289 853.797L1037.68 854.387C1051.37 854.397 1062.47 865.5 1062.47 879.193V1004.81H1063.09V879.193C1063.09 865.154 1051.72 853.769 1037.68 853.759L258.29 853.169C244.235 853.158 232.835 864.549 232.835 878.603V1161H233.463V878.603Z" fill="url(#paint8_radial_111_1816)"/>
<path fill-rule="evenodd" clip-rule="evenodd" d="M-690.372 878.603C-690.372 864.896 -679.254 853.786 -665.546 853.797L113.842 854.387C127.535 854.397 138.63 865.5 138.63 879.193V1156H139.258V879.193C139.258 865.154 127.882 853.769 113.842 853.759L-665.545 853.169C-679.601 853.158 -691 864.549 -691 878.603V1002.93H-690.372V878.603Z" fill="url(#paint9_radial_111_1816)"/>
<path fill-rule="evenodd" clip-rule="evenodd" d="M1182.11 668.515C1168.4 668.515 1157.3 679.622 1157.3 693.322V970.273H1156.67V693.322C1156.67 679.275 1168.06 667.887 1182.11 667.887H1936.37V668.515H1182.11Z" fill="url(#paint10_radial_111_1816)"/>
<path fill-rule="evenodd" clip-rule="evenodd" d="M-175.386 744.126C-175.386 757.851 -164.241 768.968 -150.515 768.933L1034.12 765.92C1047.73 765.885 1058.77 754.888 1058.86 741.276L1062.3 214.941C1062.39 201.178 1051.26 189.973 1037.49 189.973H-482.179V189.345H1037.49C1051.61 189.345 1063.02 200.834 1062.93 214.945L1059.49 741.28C1059.4 755.237 1048.08 766.512 1034.12 766.548L-150.514 769.561C-164.586 769.596 -176.014 758.199 -176.014 744.126V329.077C-176.014 315.376 -187.12 304.27 -200.821 304.27H-490.344V303.642H-200.821C-186.773 303.642 -175.386 315.03 -175.386 329.077V744.126Z" fill="url(#paint11_radial_111_1816)"/>
<path fill-rule="evenodd" clip-rule="evenodd" d="M1182.11 574.942C1168.4 574.942 1157.3 563.836 1157.3 550.136V20.0963H1156.67V550.136C1156.67 564.183 1168.06 575.57 1182.11 575.57H1934.49V574.942H1182.11Z" fill="url(#paint12_radial_111_1816)"/>
<path fill-rule="evenodd" clip-rule="evenodd" d="M1476.02 281.976H1226.07C1216.01 281.976 1207.85 290.13 1207.85 300.188V506.175C1207.85 516.233 1216.01 524.387 1226.07 524.387H1476.02C1486.08 524.387 1494.24 516.233 1494.24 506.175V300.188C1494.24 290.13 1486.08 281.976 1476.02 281.976ZM1226.07 281.348C1215.66 281.348 1207.23 289.783 1207.23 300.188V506.175C1207.23 516.58 1215.66 525.015 1226.07 525.015H1476.02C1486.43 525.015 1494.87 516.58 1494.87 506.175V403.182V300.188C1494.87 289.783 1486.43 281.348 1476.02 281.348H1226.07Z" fill="url(#paint13_radial_111_1816)"/>
<path fill-rule="evenodd" clip-rule="evenodd" d="M1918.16 281.976H1551.39C1541.33 281.976 1533.18 290.13 1533.18 300.188V506.175C1533.18 516.233 1541.33 524.387 1551.39 524.387H1918.16C1928.22 524.387 1936.37 516.233 1936.37 506.175V300.188C1936.37 290.13 1928.22 281.976 1918.16 281.976ZM1551.39 281.348C1540.98 281.348 1532.55 289.783 1532.55 300.188V506.175C1532.55 516.58 1540.98 525.015 1551.39 525.015H1918.16C1928.56 525.015 1937 516.58 1937 506.175V300.188C1937 289.783 1928.56 281.348 1918.16 281.348H1551.39Z" fill="url(#paint14_radial_111_1816)"/>
<defs>
<radialGradient id="paint0_radial_111_1816" cx="0" cy="0" r="1" gradientUnits="userSpaceOnUse" gradientTransform="translate(542.5 663.5) rotate(80.5056) scale(491.229 1125.23)">
<stop stop-color="#38C9E9"/>
<stop offset="1" stop-color="#38C9E9" stop-opacity="0"/>
</radialGradient>
<radialGradient id="paint1_radial_111_1816" cx="0" cy="0" r="1" gradientUnits="userSpaceOnUse" gradientTransform="translate(542.5 663.5) rotate(80.5056) scale(491.229 1125.23)">
<stop stop-color="#38C9E9"/>
<stop offset="1" stop-color="#38C9E9" stop-opacity="0"/>
</radialGradient>
<radialGradient id="paint2_radial_111_1816" cx="0" cy="0" r="1" gradientUnits="userSpaceOnUse" gradientTransform="translate(542.5 663.5) rotate(80.5056) scale(491.229 1125.23)">
<stop stop-color="#38C9E9"/>
<stop offset="1" stop-color="#38C9E9" stop-opacity="0"/>
</radialGradient>
<radialGradient id="paint3_radial_111_1816" cx="0" cy="0" r="1" gradientUnits="userSpaceOnUse" gradientTransform="translate(542.5 663.5) rotate(80.5056) scale(491.229 1125.23)">
<stop stop-color="#38C9E9"/>
<stop offset="1" stop-color="#38C9E9" stop-opacity="0"/>
</radialGradient>
<radialGradient id="paint4_radial_111_1816" cx="0" cy="0" r="1" gradientUnits="userSpaceOnUse" gradientTransform="translate(542.5 663.5) rotate(80.5056) scale(491.229 1125.23)">
<stop stop-color="#38C9E9"/>
<stop offset="1" stop-color="#38C9E9" stop-opacity="0"/>
</radialGradient>
<radialGradient id="paint5_radial_111_1816" cx="0" cy="0" r="1" gradientUnits="userSpaceOnUse" gradientTransform="translate(542.5 663.5) rotate(80.5056) scale(491.229 1125.23)">
<stop stop-color="#38C9E9"/>
<stop offset="1" stop-color="#38C9E9" stop-opacity="0"/>
</radialGradient>
<radialGradient id="paint6_radial_111_1816" cx="0" cy="0" r="1" gradientUnits="userSpaceOnUse" gradientTransform="translate(542.5 663.5) rotate(80.5056) scale(491.229 1125.23)">
<stop stop-color="#38C9E9"/>
<stop offset="1" stop-color="#38C9E9" stop-opacity="0"/>
</radialGradient>
<radialGradient id="paint7_radial_111_1816" cx="0" cy="0" r="1" gradientUnits="userSpaceOnUse" gradientTransform="translate(542.5 663.5) rotate(80.5056) scale(491.229 1125.23)">
<stop stop-color="#38C9E9"/>
<stop offset="1" stop-color="#38C9E9" stop-opacity="0"/>
</radialGradient>
<radialGradient id="paint8_radial_111_1816" cx="0" cy="0" r="1" gradientUnits="userSpaceOnUse" gradientTransform="translate(542.5 663.5) rotate(80.5056) scale(491.229 1125.23)">
<stop stop-color="#38C9E9"/>
<stop offset="1" stop-color="#38C9E9" stop-opacity="0"/>
</radialGradient>
<radialGradient id="paint9_radial_111_1816" cx="0" cy="0" r="1" gradientUnits="userSpaceOnUse" gradientTransform="translate(542.5 663.5) rotate(80.5056) scale(491.229 1125.23)">
<stop stop-color="#38C9E9"/>
<stop offset="1" stop-color="#38C9E9" stop-opacity="0"/>
</radialGradient>
<radialGradient id="paint10_radial_111_1816" cx="0" cy="0" r="1" gradientUnits="userSpaceOnUse" gradientTransform="translate(542.5 663.5) rotate(80.5056) scale(491.229 1125.23)">
<stop stop-color="#38C9E9"/>
<stop offset="1" stop-color="#38C9E9" stop-opacity="0"/>
</radialGradient>
<radialGradient id="paint11_radial_111_1816" cx="0" cy="0" r="1" gradientUnits="userSpaceOnUse" gradientTransform="translate(542.5 663.5) rotate(80.5056) scale(491.229 1125.23)">
<stop stop-color="#38C9E9"/>
<stop offset="1" stop-color="#38C9E9" stop-opacity="0"/>
</radialGradient>
<radialGradient id="paint12_radial_111_1816" cx="0" cy="0" r="1" gradientUnits="userSpaceOnUse" gradientTransform="translate(542.5 663.5) rotate(80.5056) scale(491.229 1125.23)">
<stop stop-color="#38C9E9"/>
<stop offset="1" stop-color="#38C9E9" stop-opacity="0"/>
</radialGradient>
<radialGradient id="paint13_radial_111_1816" cx="0" cy="0" r="1" gradientUnits="userSpaceOnUse" gradientTransform="translate(542.5 663.5) rotate(80.5056) scale(491.229 1125.23)">
<stop stop-color="#38C9E9"/>
<stop offset="1" stop-color="#38C9E9" stop-opacity="0"/>
</radialGradient>
<radialGradient id="paint14_radial_111_1816" cx="0" cy="0" r="1" gradientUnits="userSpaceOnUse" gradientTransform="translate(542.5 663.5) rotate(80.5056) scale(491.229 1125.23)">
<stop stop-color="#38C9E9"/>
<stop offset="1" stop-color="#38C9E9" stop-opacity="0"/>
</radialGradient>
</defs>
</svg>
