<svg width="375" height="258" viewBox="0 0 375 258" fill="none" xmlns="http://www.w3.org/2000/svg">
<path fill-rule="evenodd" clip-rule="evenodd" d="M328.333 63.3709H272.121C269.859 63.3709 268.026 65.2034 268.026 67.4639V113.757C268.026 116.018 269.859 117.85 272.121 117.85H328.333C330.595 117.85 332.429 116.018 332.429 113.757V67.4639C332.429 65.2034 330.595 63.3709 328.333 63.3709ZM272.121 63.2298C269.781 63.2298 267.884 65.1255 267.884 67.4639V113.757C267.884 116.096 269.781 117.991 272.121 117.991H328.333C330.673 117.991 332.57 116.096 332.57 113.757V90.6105V67.4639C332.57 65.1255 330.673 63.2298 328.333 63.2298H272.121Z" fill="url(#paint0_radial_8_5879)"/>
<path fill-rule="evenodd" clip-rule="evenodd" d="M427.763 63.3709H345.281C343.019 63.3709 341.186 65.2034 341.186 67.4639V113.757C341.186 116.018 343.019 117.85 345.281 117.85H427.763C430.025 117.85 431.859 116.018 431.859 113.757V67.4639C431.859 65.2034 430.025 63.3709 427.763 63.3709ZM345.281 63.2298C342.941 63.2298 341.044 65.1255 341.044 67.4639V113.757C341.044 116.096 342.941 117.991 345.281 117.991H427.763C430.103 117.991 432 116.096 432 113.757V67.4639C432 65.1255 430.103 63.2298 427.763 63.2298H345.281Z" fill="url(#paint1_radial_8_5879)"/>
<path fill-rule="evenodd" clip-rule="evenodd" d="M427.763 0.141138H272.121C269.859 0.141138 268.026 1.97363 268.026 4.23413V50.5274C268.026 52.7879 269.859 54.6203 272.121 54.6203H427.763C430.025 54.6203 431.859 52.7879 431.859 50.5274V4.23414C431.859 1.97364 430.025 0.141138 427.763 0.141138ZM272.121 0C269.781 0 267.884 1.89569 267.884 4.23413V50.5274C267.884 52.8658 269.781 54.7615 272.121 54.7615H427.763C430.103 54.7615 432 52.8658 432 50.5274V4.23414C432 1.89569 430.103 0 427.763 0H272.121Z" fill="url(#paint2_radial_8_5879)"/>
<path fill-rule="evenodd" clip-rule="evenodd" d="M427.763 161.603H272.121C269.859 161.603 268.026 163.435 268.026 165.696V211.989C268.026 214.25 269.859 216.082 272.121 216.082H427.763C430.025 216.082 431.859 214.25 431.859 211.989V165.696C431.859 163.435 430.025 161.603 427.763 161.603ZM272.121 161.462C269.781 161.462 267.884 163.357 267.884 165.696V211.989C267.884 214.328 269.781 216.223 272.121 216.223H427.763C430.103 216.223 432 214.328 432 211.989V165.696C432 163.357 430.103 161.462 427.763 161.462H272.121Z" fill="url(#paint3_radial_8_5879)"/>
<path fill-rule="evenodd" clip-rule="evenodd" d="M219.864 203.38H64.2227C61.9607 203.38 60.1269 205.212 60.1269 207.473V253.766C60.1269 256.026 61.9607 257.859 64.2227 257.859H219.864C222.126 257.859 223.96 256.026 223.96 253.766V207.473C223.96 205.212 222.126 203.38 219.864 203.38ZM64.2227 203.239C61.8827 203.239 59.9857 205.134 59.9857 207.473V253.766C59.9857 256.104 61.8827 258 64.2227 258H219.864C222.204 258 224.101 256.104 224.101 253.766V207.473C224.101 205.134 222.204 203.239 219.864 203.239H64.2227Z" fill="url(#paint4_radial_8_5879)"/>
<path fill-rule="evenodd" clip-rule="evenodd" d="M11.9656 203.38H-41.9864C-44.2484 203.38 -46.0822 205.212 -46.0822 207.473V253.766C-46.0822 256.026 -44.2484 257.859 -41.9864 257.859H11.9656C14.2277 257.859 16.0614 256.026 16.0614 253.766V207.473C16.0614 205.212 14.2277 203.38 11.9656 203.38ZM-41.9864 203.239C-44.3264 203.239 -46.2234 205.134 -46.2234 207.473V253.766C-46.2234 256.104 -44.3264 258 -41.9864 258H11.9656C14.3057 258 16.2027 256.104 16.2027 253.766V207.473C16.2027 205.134 14.3057 203.239 11.9656 203.239H-41.9864Z" fill="url(#paint5_radial_8_5879)"/>
<path fill-rule="evenodd" clip-rule="evenodd" d="M-67.1263 87.0821H-121.078C-123.34 87.0821 -125.174 88.9146 -125.174 91.1751V168.801C-125.174 171.061 -123.34 172.894 -121.078 172.894H-67.1263C-64.8642 172.894 -63.0305 171.061 -63.0305 168.801V91.1751C-63.0305 88.9146 -64.8642 87.0821 -67.1263 87.0821ZM-121.078 86.9409C-123.418 86.9409 -125.315 88.8366 -125.315 91.1751V168.801C-125.315 171.139 -123.418 173.035 -121.078 173.035H-67.1263C-64.7862 173.035 -62.8892 171.139 -62.8892 168.801V91.1751C-62.8892 88.8366 -64.7862 86.9409 -67.1263 86.9409H-121.078Z" fill="url(#paint6_radial_8_5879)"/>
<path fill-rule="evenodd" clip-rule="evenodd" d="M-58.9346 203.38H-112.887C-115.149 203.38 -116.982 205.212 -116.982 207.473V253.766C-116.982 256.026 -115.149 257.859 -112.887 257.859H-58.9346C-56.6726 257.859 -54.8388 256.026 -54.8388 253.766V207.473C-54.8388 205.212 -56.6726 203.38 -58.9346 203.38ZM-112.887 203.239C-115.227 203.239 -117.124 205.134 -117.124 207.473V253.766C-117.124 256.104 -115.227 258 -112.887 258H-58.9346C-56.5946 258 -54.6976 256.104 -54.6976 253.766V207.473C-54.6976 205.134 -56.5946 203.239 -58.9346 203.239H-112.887Z" fill="url(#paint7_radial_8_5879)"/>
<path fill-rule="evenodd" clip-rule="evenodd" d="M48.8987 197.456C48.8987 194.376 51.399 191.879 54.4817 191.881L229.755 192.014C232.834 192.016 235.33 194.511 235.33 197.589V225.821H235.471V197.589C235.471 194.434 232.913 191.875 229.755 191.873L54.4818 191.74C51.321 191.738 48.7574 194.298 48.7574 197.456V225.397H48.8987V197.456Z" fill="url(#paint8_radial_8_5879)"/>
<path fill-rule="evenodd" clip-rule="evenodd" d="M-158.859 197.456C-158.859 194.376 -156.358 191.879 -153.276 191.881L21.9975 192.014C25.077 192.016 27.5721 194.511 27.5721 197.589V225.821H27.7134V197.589C27.7134 194.434 25.155 191.875 21.9976 191.873L-153.276 191.74C-156.436 191.738 -159 194.298 -159 197.456V225.397H-158.859V197.456Z" fill="url(#paint9_radial_8_5879)"/>
<path fill-rule="evenodd" clip-rule="evenodd" d="M262.235 150.241C259.154 150.241 256.656 152.737 256.656 155.816V218.058H256.515V155.816C256.515 152.659 259.076 150.1 262.235 150.1H431.859V150.241H262.235Z" fill="url(#paint10_radial_8_5879)"/>
<path fill-rule="evenodd" clip-rule="evenodd" d="M-43.0456 167.234C-43.0456 170.318 -40.5393 172.817 -37.4526 172.809L228.954 172.132C232.016 172.124 234.499 169.653 234.519 166.593L235.292 48.3056C235.313 45.2125 232.809 42.6942 229.714 42.6942H-112.039V42.5531H229.714C232.887 42.5531 235.454 45.1351 235.434 48.3065L235.047 107.45L234.66 166.594C234.639 169.731 232.093 172.265 228.955 172.273L-37.4523 172.95C-40.617 172.958 -43.1869 170.397 -43.1869 167.234V73.9562C-43.1869 70.8773 -45.6846 68.3813 -48.7657 68.3813H-113.875V68.2402H-48.7657C-45.6066 68.2402 -43.0456 70.7993 -43.0456 73.9562V167.234Z" fill="url(#paint11_radial_8_5879)"/>
<path fill-rule="evenodd" clip-rule="evenodd" d="M262.235 129.212C259.154 129.212 256.656 126.716 256.656 123.637V4.51641H256.515V123.637C256.515 126.794 259.076 129.353 262.235 129.353H431.435V129.212H262.235Z" fill="url(#paint12_radial_8_5879)"/>
<path fill-rule="evenodd" clip-rule="evenodd" d="M328.333 63.3709H272.121C269.859 63.3709 268.026 65.2034 268.026 67.4639V113.757C268.026 116.018 269.859 117.85 272.121 117.85H328.333C330.595 117.85 332.429 116.018 332.429 113.757V67.4639C332.429 65.2034 330.595 63.3709 328.333 63.3709ZM272.121 63.2298C269.781 63.2298 267.884 65.1255 267.884 67.4639V113.757C267.884 116.096 269.781 117.991 272.121 117.991H328.333C330.673 117.991 332.57 116.096 332.57 113.757V90.6105V67.4639C332.57 65.1255 330.673 63.2298 328.333 63.2298H272.121Z" fill="url(#paint13_radial_8_5879)"/>
<path fill-rule="evenodd" clip-rule="evenodd" d="M427.763 63.3709H345.281C343.019 63.3709 341.186 65.2034 341.186 67.4639V113.757C341.186 116.018 343.019 117.85 345.281 117.85H427.763C430.025 117.85 431.859 116.018 431.859 113.757V67.4639C431.859 65.2034 430.025 63.3709 427.763 63.3709ZM345.281 63.2298C342.941 63.2298 341.044 65.1255 341.044 67.4639V113.757C341.044 116.096 342.941 117.991 345.281 117.991H427.763C430.103 117.991 432 116.096 432 113.757V67.4639C432 65.1255 430.103 63.2298 427.763 63.2298H345.281Z" fill="url(#paint14_radial_8_5879)"/>
<defs>
<radialGradient id="paint0_radial_8_5879" cx="0" cy="0" r="1" gradientUnits="userSpaceOnUse" gradientTransform="translate(123.471 120.391) rotate(84.5422) scale(138.236 316.855)">
<stop stop-color="#38C9E9"/>
<stop offset="1" stop-color="#38C9E9" stop-opacity="0"/>
</radialGradient>
<radialGradient id="paint1_radial_8_5879" cx="0" cy="0" r="1" gradientUnits="userSpaceOnUse" gradientTransform="translate(123.471 120.391) rotate(84.5422) scale(138.236 316.855)">
<stop stop-color="#38C9E9"/>
<stop offset="1" stop-color="#38C9E9" stop-opacity="0"/>
</radialGradient>
<radialGradient id="paint2_radial_8_5879" cx="0" cy="0" r="1" gradientUnits="userSpaceOnUse" gradientTransform="translate(123.471 120.391) rotate(84.5422) scale(138.236 316.855)">
<stop stop-color="#38C9E9"/>
<stop offset="1" stop-color="#38C9E9" stop-opacity="0"/>
</radialGradient>
<radialGradient id="paint3_radial_8_5879" cx="0" cy="0" r="1" gradientUnits="userSpaceOnUse" gradientTransform="translate(123.471 120.391) rotate(84.5422) scale(138.236 316.855)">
<stop stop-color="#38C9E9"/>
<stop offset="1" stop-color="#38C9E9" stop-opacity="0"/>
</radialGradient>
<radialGradient id="paint4_radial_8_5879" cx="0" cy="0" r="1" gradientUnits="userSpaceOnUse" gradientTransform="translate(123.471 120.391) rotate(84.5422) scale(138.236 316.855)">
<stop stop-color="#38C9E9"/>
<stop offset="1" stop-color="#38C9E9" stop-opacity="0"/>
</radialGradient>
<radialGradient id="paint5_radial_8_5879" cx="0" cy="0" r="1" gradientUnits="userSpaceOnUse" gradientTransform="translate(123.471 120.391) rotate(84.5422) scale(138.236 316.855)">
<stop stop-color="#38C9E9"/>
<stop offset="1" stop-color="#38C9E9" stop-opacity="0"/>
</radialGradient>
<radialGradient id="paint6_radial_8_5879" cx="0" cy="0" r="1" gradientUnits="userSpaceOnUse" gradientTransform="translate(123.471 120.391) rotate(84.5422) scale(138.236 316.855)">
<stop stop-color="#38C9E9"/>
<stop offset="1" stop-color="#38C9E9" stop-opacity="0"/>
</radialGradient>
<radialGradient id="paint7_radial_8_5879" cx="0" cy="0" r="1" gradientUnits="userSpaceOnUse" gradientTransform="translate(123.471 120.391) rotate(84.5422) scale(138.236 316.855)">
<stop stop-color="#38C9E9"/>
<stop offset="1" stop-color="#38C9E9" stop-opacity="0"/>
</radialGradient>
<radialGradient id="paint8_radial_8_5879" cx="0" cy="0" r="1" gradientUnits="userSpaceOnUse" gradientTransform="translate(123.471 120.391) rotate(84.5422) scale(138.236 316.855)">
<stop stop-color="#38C9E9"/>
<stop offset="1" stop-color="#38C9E9" stop-opacity="0"/>
</radialGradient>
<radialGradient id="paint9_radial_8_5879" cx="0" cy="0" r="1" gradientUnits="userSpaceOnUse" gradientTransform="translate(123.471 120.391) rotate(84.5422) scale(138.236 316.855)">
<stop stop-color="#38C9E9"/>
<stop offset="1" stop-color="#38C9E9" stop-opacity="0"/>
</radialGradient>
<radialGradient id="paint10_radial_8_5879" cx="0" cy="0" r="1" gradientUnits="userSpaceOnUse" gradientTransform="translate(123.471 120.391) rotate(84.5422) scale(138.236 316.855)">
<stop stop-color="#38C9E9"/>
<stop offset="1" stop-color="#38C9E9" stop-opacity="0"/>
</radialGradient>
<radialGradient id="paint11_radial_8_5879" cx="0" cy="0" r="1" gradientUnits="userSpaceOnUse" gradientTransform="translate(123.471 120.391) rotate(84.5422) scale(138.236 316.855)">
<stop stop-color="#38C9E9"/>
<stop offset="1" stop-color="#38C9E9" stop-opacity="0"/>
</radialGradient>
<radialGradient id="paint12_radial_8_5879" cx="0" cy="0" r="1" gradientUnits="userSpaceOnUse" gradientTransform="translate(123.471 120.391) rotate(84.5422) scale(138.236 316.855)">
<stop stop-color="#38C9E9"/>
<stop offset="1" stop-color="#38C9E9" stop-opacity="0"/>
</radialGradient>
<radialGradient id="paint13_radial_8_5879" cx="0" cy="0" r="1" gradientUnits="userSpaceOnUse" gradientTransform="translate(123.471 120.391) rotate(84.5422) scale(138.236 316.855)">
<stop stop-color="#38C9E9"/>
<stop offset="1" stop-color="#38C9E9" stop-opacity="0"/>
</radialGradient>
<radialGradient id="paint14_radial_8_5879" cx="0" cy="0" r="1" gradientUnits="userSpaceOnUse" gradientTransform="translate(123.471 120.391) rotate(84.5422) scale(138.236 316.855)">
<stop stop-color="#38C9E9"/>
<stop offset="1" stop-color="#38C9E9" stop-opacity="0"/>
</radialGradient>
</defs>
</svg>
