<svg width="834" height="518" viewBox="0 0 834 518" fill="none" xmlns="http://www.w3.org/2000/svg">
<path fill-rule="evenodd" clip-rule="evenodd" d="M801.965 127.233H689.161C684.621 127.233 680.941 130.912 680.941 135.451V228.396C680.941 232.935 684.621 236.614 689.161 236.614H801.965C806.504 236.614 810.184 232.935 810.184 228.396V135.451C810.184 130.912 806.504 127.233 801.965 127.233ZM689.161 126.95C684.465 126.95 680.658 130.756 680.658 135.451V228.396C680.658 233.091 684.465 236.897 689.161 236.897H801.965C806.661 236.897 810.467 233.091 810.467 228.396V181.923V135.451C810.467 130.756 806.661 126.95 801.965 126.95H689.161Z" fill="url(#paint0_radial_8_4260)"/>
<path fill-rule="evenodd" clip-rule="evenodd" d="M1001.5 127.233H835.976C831.436 127.233 827.757 130.912 827.757 135.451V228.396C827.757 232.935 831.436 236.614 835.976 236.614H1001.5C1006.04 236.614 1009.72 232.935 1009.72 228.396V135.451C1009.72 130.912 1006.04 127.233 1001.5 127.233ZM835.976 126.95C831.28 126.95 827.473 130.756 827.473 135.451V228.396C827.473 233.091 831.28 236.897 835.976 236.897H1001.5C1006.19 236.897 1010 233.091 1010 228.396V135.451C1010 130.756 1006.19 126.95 1001.5 126.95H835.976Z" fill="url(#paint1_radial_8_4260)"/>
<path fill-rule="evenodd" clip-rule="evenodd" d="M1001.5 0.28337H689.161C684.621 0.28337 680.941 3.96257 680.941 8.50109V101.446C680.941 105.985 684.621 109.664 689.161 109.664H1001.5C1006.04 109.664 1009.72 105.985 1009.72 101.446V8.50109C1009.72 3.96257 1006.04 0.28337 1001.5 0.28337ZM689.161 0C684.465 0 680.658 3.80607 680.658 8.50109V101.446C680.658 106.141 684.465 109.947 689.161 109.947H1001.5C1006.19 109.947 1010 106.141 1010 101.446V8.50109C1010 3.80607 1006.19 0 1001.5 0H689.161Z" fill="url(#paint2_radial_8_4260)"/>
<path fill-rule="evenodd" clip-rule="evenodd" d="M1001.5 324.458H689.161C684.621 324.458 680.941 328.138 680.941 332.676V425.621C680.941 430.16 684.621 433.839 689.161 433.839H1001.5C1006.04 433.839 1009.72 430.16 1009.72 425.621V332.676C1009.72 328.138 1006.04 324.458 1001.5 324.458ZM689.161 324.175C684.465 324.175 680.658 327.981 680.658 332.676V425.621C680.658 430.316 684.465 434.123 689.161 434.123H1001.5C1006.19 434.123 1010 430.316 1010 425.621V332.676C1010 327.981 1006.19 324.175 1001.5 324.175H689.161Z" fill="url(#paint3_radial_8_4260)"/>
<path fill-rule="evenodd" clip-rule="evenodd" d="M584.293 408.336H271.956C267.417 408.336 263.737 412.015 263.737 416.554V509.499C263.737 514.037 267.417 517.717 271.956 517.717H584.293C588.832 517.717 592.512 514.037 592.512 509.499V416.554C592.512 412.015 588.832 408.336 584.293 408.336ZM271.956 408.053C267.26 408.053 263.453 411.859 263.453 416.554V509.499C263.453 514.194 267.26 518 271.956 518H584.293C588.989 518 592.796 514.194 592.796 509.499V416.554C592.796 411.859 588.989 408.053 584.293 408.053H271.956Z" fill="url(#paint4_radial_8_4260)"/>
<path fill-rule="evenodd" clip-rule="evenodd" d="M167.088 408.336H58.8192C54.2798 408.336 50.5998 412.015 50.5998 416.554V509.499C50.5998 514.037 54.2798 517.717 58.8192 517.717H167.088C171.628 517.717 175.308 514.037 175.308 509.499V416.554C175.308 412.015 171.628 408.336 167.088 408.336ZM58.8192 408.053C54.1232 408.053 50.3164 411.859 50.3164 416.554V509.499C50.3164 514.194 54.1232 518 58.8192 518H167.088C171.784 518 175.591 514.194 175.591 509.499V416.554C175.591 411.859 171.784 408.053 167.088 408.053H58.8192Z" fill="url(#paint5_radial_8_4260)"/>
<path fill-rule="evenodd" clip-rule="evenodd" d="M8.36923 174.839H-99.8999C-104.439 174.839 -108.119 178.518 -108.119 183.057V338.91C-108.119 343.449 -104.439 347.128 -99.8999 347.128H8.36923C12.9087 347.128 16.5886 343.449 16.5886 338.91V183.057C16.5886 178.518 12.9087 174.839 8.36923 174.839ZM-99.8999 174.556C-104.596 174.556 -108.403 178.362 -108.403 183.057V338.91C-108.403 343.605 -104.596 347.411 -99.8999 347.411H8.36923C13.0652 347.411 16.872 343.605 16.872 338.91V183.057C16.872 178.362 13.0652 174.556 8.36923 174.556H-99.8999Z" fill="url(#paint6_radial_8_4260)"/>
<path fill-rule="evenodd" clip-rule="evenodd" d="M24.808 408.336H-83.4611C-88.0005 408.336 -91.6805 412.015 -91.6805 416.554V509.499C-91.6805 514.037 -88.0005 517.717 -83.4611 517.717H24.808C29.3474 517.717 33.0274 514.037 33.0274 509.499V416.554C33.0274 412.015 29.3474 408.336 24.808 408.336ZM-83.4611 408.053C-88.1571 408.053 -91.9639 411.859 -91.9639 416.554V509.499C-91.9639 514.194 -88.1571 518 -83.4611 518H24.808C29.504 518 33.3108 514.194 33.3108 509.499V416.554C33.3108 411.859 29.504 408.053 24.808 408.053H-83.4611Z" fill="url(#paint7_radial_8_4260)"/>
<path fill-rule="evenodd" clip-rule="evenodd" d="M241.204 396.443C241.204 390.258 246.222 385.245 252.408 385.25L604.141 385.516C610.321 385.521 615.328 390.531 615.328 396.709V453.392H615.611V396.709C615.611 390.374 610.478 385.237 604.141 385.233L252.409 384.966C246.066 384.962 240.921 390.101 240.921 396.443V452.542H241.204V396.443Z" fill="url(#paint8_radial_8_4260)"/>
<path fill-rule="evenodd" clip-rule="evenodd" d="M-175.717 396.443C-175.717 390.258 -170.699 385.245 -164.513 385.25L187.22 385.516C193.4 385.521 198.407 390.531 198.407 396.709V453.392H198.69V396.709C198.69 390.374 193.556 385.237 187.22 385.233L-164.513 384.966C-170.855 384.962 -176 390.101 -176 396.443V452.542H-175.717V396.443Z" fill="url(#paint9_radial_8_4260)"/>
<path fill-rule="evenodd" clip-rule="evenodd" d="M669.321 301.647C663.138 301.647 658.125 306.658 658.125 312.84V437.806H657.842V312.84C657.842 306.502 662.981 301.364 669.321 301.364H1009.72V301.647H669.321Z" fill="url(#paint10_radial_8_4260)"/>
<path fill-rule="evenodd" clip-rule="evenodd" d="M56.6936 335.764C56.6936 341.957 61.7232 346.973 67.9174 346.957L602.534 345.598C608.678 345.582 613.661 340.62 613.701 334.478L615.253 96.9856C615.294 90.7754 610.27 85.7194 604.058 85.7194H-81.7605V85.436H604.058C610.427 85.436 615.578 90.62 615.537 96.9875L614.761 215.734L613.984 334.48C613.943 340.777 608.834 345.865 602.535 345.881L67.9181 347.241C61.5672 347.257 56.4101 342.114 56.4101 335.764V148.486C56.4101 142.304 51.3978 137.293 45.2148 137.293H-85.4451V137.009H45.2148C51.5543 137.009 56.6936 142.148 56.6936 148.486V335.764Z" fill="url(#paint11_radial_8_4260)"/>
<path fill-rule="evenodd" clip-rule="evenodd" d="M669.321 259.425C663.138 259.425 658.125 254.414 658.125 248.232V9.06783H657.842V248.232C657.842 254.57 662.981 259.708 669.321 259.708H1008.87V259.425H669.321Z" fill="url(#paint12_radial_8_4260)"/>
<path fill-rule="evenodd" clip-rule="evenodd" d="M801.965 127.233H689.161C684.621 127.233 680.941 130.912 680.941 135.451V228.396C680.941 232.935 684.621 236.614 689.161 236.614H801.965C806.504 236.614 810.184 232.935 810.184 228.396V135.451C810.184 130.912 806.504 127.233 801.965 127.233ZM689.161 126.95C684.465 126.95 680.658 130.756 680.658 135.451V228.396C680.658 233.091 684.465 236.897 689.161 236.897H801.965C806.661 236.897 810.467 233.091 810.467 228.396V181.923V135.451C810.467 130.756 806.661 126.95 801.965 126.95H689.161Z" fill="url(#paint13_radial_8_4260)"/>
<path fill-rule="evenodd" clip-rule="evenodd" d="M1001.5 127.233H835.976C831.436 127.233 827.757 130.912 827.757 135.451V228.396C827.757 232.935 831.436 236.614 835.976 236.614H1001.5C1006.04 236.614 1009.72 232.935 1009.72 228.396V135.451C1009.72 130.912 1006.04 127.233 1001.5 127.233ZM835.976 126.95C831.28 126.95 827.473 130.756 827.473 135.451V228.396C827.473 233.091 831.28 236.897 835.976 236.897H1001.5C1006.19 236.897 1010 233.091 1010 228.396V135.451C1010 130.756 1006.19 126.95 1001.5 126.95H835.976Z" fill="url(#paint14_radial_8_4260)"/>
<defs>
<radialGradient id="paint0_radial_8_4260" cx="0" cy="0" r="1" gradientUnits="userSpaceOnUse" gradientTransform="translate(390.854 241.714) rotate(84.5448) scale(277.543 635.857)">
<stop stop-color="#38C9E9"/>
<stop offset="1" stop-color="#38C9E9" stop-opacity="0"/>
</radialGradient>
<radialGradient id="paint1_radial_8_4260" cx="0" cy="0" r="1" gradientUnits="userSpaceOnUse" gradientTransform="translate(390.854 241.714) rotate(84.5448) scale(277.543 635.857)">
<stop stop-color="#38C9E9"/>
<stop offset="1" stop-color="#38C9E9" stop-opacity="0"/>
</radialGradient>
<radialGradient id="paint2_radial_8_4260" cx="0" cy="0" r="1" gradientUnits="userSpaceOnUse" gradientTransform="translate(390.854 241.714) rotate(84.5448) scale(277.543 635.857)">
<stop stop-color="#38C9E9"/>
<stop offset="1" stop-color="#38C9E9" stop-opacity="0"/>
</radialGradient>
<radialGradient id="paint3_radial_8_4260" cx="0" cy="0" r="1" gradientUnits="userSpaceOnUse" gradientTransform="translate(390.854 241.714) rotate(84.5448) scale(277.543 635.857)">
<stop stop-color="#38C9E9"/>
<stop offset="1" stop-color="#38C9E9" stop-opacity="0"/>
</radialGradient>
<radialGradient id="paint4_radial_8_4260" cx="0" cy="0" r="1" gradientUnits="userSpaceOnUse" gradientTransform="translate(390.854 241.714) rotate(84.5448) scale(277.543 635.857)">
<stop stop-color="#38C9E9"/>
<stop offset="1" stop-color="#38C9E9" stop-opacity="0"/>
</radialGradient>
<radialGradient id="paint5_radial_8_4260" cx="0" cy="0" r="1" gradientUnits="userSpaceOnUse" gradientTransform="translate(390.854 241.714) rotate(84.5448) scale(277.543 635.857)">
<stop stop-color="#38C9E9"/>
<stop offset="1" stop-color="#38C9E9" stop-opacity="0"/>
</radialGradient>
<radialGradient id="paint6_radial_8_4260" cx="0" cy="0" r="1" gradientUnits="userSpaceOnUse" gradientTransform="translate(390.854 241.714) rotate(84.5448) scale(277.543 635.857)">
<stop stop-color="#38C9E9"/>
<stop offset="1" stop-color="#38C9E9" stop-opacity="0"/>
</radialGradient>
<radialGradient id="paint7_radial_8_4260" cx="0" cy="0" r="1" gradientUnits="userSpaceOnUse" gradientTransform="translate(390.854 241.714) rotate(84.5448) scale(277.543 635.857)">
<stop stop-color="#38C9E9"/>
<stop offset="1" stop-color="#38C9E9" stop-opacity="0"/>
</radialGradient>
<radialGradient id="paint8_radial_8_4260" cx="0" cy="0" r="1" gradientUnits="userSpaceOnUse" gradientTransform="translate(390.854 241.714) rotate(84.5448) scale(277.543 635.857)">
<stop stop-color="#38C9E9"/>
<stop offset="1" stop-color="#38C9E9" stop-opacity="0"/>
</radialGradient>
<radialGradient id="paint9_radial_8_4260" cx="0" cy="0" r="1" gradientUnits="userSpaceOnUse" gradientTransform="translate(390.854 241.714) rotate(84.5448) scale(277.543 635.857)">
<stop stop-color="#38C9E9"/>
<stop offset="1" stop-color="#38C9E9" stop-opacity="0"/>
</radialGradient>
<radialGradient id="paint10_radial_8_4260" cx="0" cy="0" r="1" gradientUnits="userSpaceOnUse" gradientTransform="translate(390.854 241.714) rotate(84.5448) scale(277.543 635.857)">
<stop stop-color="#38C9E9"/>
<stop offset="1" stop-color="#38C9E9" stop-opacity="0"/>
</radialGradient>
<radialGradient id="paint11_radial_8_4260" cx="0" cy="0" r="1" gradientUnits="userSpaceOnUse" gradientTransform="translate(390.854 241.714) rotate(84.5448) scale(277.543 635.857)">
<stop stop-color="#38C9E9"/>
<stop offset="1" stop-color="#38C9E9" stop-opacity="0"/>
</radialGradient>
<radialGradient id="paint12_radial_8_4260" cx="0" cy="0" r="1" gradientUnits="userSpaceOnUse" gradientTransform="translate(390.854 241.714) rotate(84.5448) scale(277.543 635.857)">
<stop stop-color="#38C9E9"/>
<stop offset="1" stop-color="#38C9E9" stop-opacity="0"/>
</radialGradient>
<radialGradient id="paint13_radial_8_4260" cx="0" cy="0" r="1" gradientUnits="userSpaceOnUse" gradientTransform="translate(390.854 241.714) rotate(84.5448) scale(277.543 635.857)">
<stop stop-color="#38C9E9"/>
<stop offset="1" stop-color="#38C9E9" stop-opacity="0"/>
</radialGradient>
<radialGradient id="paint14_radial_8_4260" cx="0" cy="0" r="1" gradientUnits="userSpaceOnUse" gradientTransform="translate(390.854 241.714) rotate(84.5448) scale(277.543 635.857)">
<stop stop-color="#38C9E9"/>
<stop offset="1" stop-color="#38C9E9" stop-opacity="0"/>
</radialGradient>
</defs>
</svg>
