<svg width="1920" height="807" viewBox="0 0 1920 807" fill="none" xmlns="http://www.w3.org/2000/svg">
<path fill-rule="evenodd" clip-rule="evenodd" d="M1553.25 117.5H1354.25C1346.24 117.5 1339.75 123.992 1339.75 132V296C1339.75 304.008 1346.24 310.5 1354.25 310.5H1553.25C1561.26 310.5 1567.75 304.008 1567.75 296V132C1567.75 123.992 1561.26 117.5 1553.25 117.5ZM1354.25 117C1345.97 117 1339.25 123.716 1339.25 132V296C1339.25 304.284 1345.97 311 1354.25 311H1553.25C1561.53 311 1568.25 304.284 1568.25 296V214V132C1568.25 123.716 1561.53 117 1553.25 117H1354.25Z" fill="url(#paint0_radial_8_2418)"/>
<path fill-rule="evenodd" clip-rule="evenodd" d="M1905.25 117.5H1613.25C1605.24 117.5 1598.75 123.992 1598.75 132V296C1598.75 304.008 1605.24 310.5 1613.25 310.5H1905.25C1913.26 310.5 1919.75 304.008 1919.75 296V132C1919.75 123.992 1913.26 117.5 1905.25 117.5ZM1613.25 117C1604.97 117 1598.25 123.716 1598.25 132V296C1598.25 304.284 1604.97 311 1613.25 311H1905.25C1913.53 311 1920.25 304.284 1920.25 296V132C1920.25 123.716 1913.53 117 1905.25 117H1613.25Z" fill="url(#paint1_radial_8_2418)"/>
<path fill-rule="evenodd" clip-rule="evenodd" d="M1905.25 -106.5H1354.25C1346.24 -106.5 1339.75 -100.008 1339.75 -92V72C1339.75 80.0081 1346.24 86.5 1354.25 86.5H1905.25C1913.26 86.5 1919.75 80.0081 1919.75 72V-92C1919.75 -100.008 1913.26 -106.5 1905.25 -106.5ZM1354.25 -107C1345.97 -107 1339.25 -100.284 1339.25 -92V72C1339.25 80.2843 1345.97 87 1354.25 87H1905.25C1913.53 87 1920.25 80.2843 1920.25 72V-92C1920.25 -100.284 1913.53 -107 1905.25 -107H1354.25Z" fill="url(#paint2_radial_8_2418)"/>
<path fill-rule="evenodd" clip-rule="evenodd" d="M1905.25 465.5H1354.25C1346.24 465.5 1339.75 471.992 1339.75 480V644C1339.75 652.008 1346.24 658.5 1354.25 658.5H1905.25C1913.26 658.5 1919.75 652.008 1919.75 644V480C1919.75 471.992 1913.26 465.5 1905.25 465.5ZM1354.25 465C1345.97 465 1339.25 471.716 1339.25 480V644C1339.25 652.284 1345.97 659 1354.25 659H1905.25C1913.53 659 1920.25 652.284 1920.25 644V480C1920.25 471.716 1913.53 465 1905.25 465H1354.25Z" fill="url(#paint3_radial_8_2418)"/>
<path fill-rule="evenodd" clip-rule="evenodd" d="M1169.25 613.5H618.25C610.242 613.5 603.75 619.992 603.75 628V792C603.75 800.008 610.242 806.5 618.25 806.5H1169.25C1177.26 806.5 1183.75 800.008 1183.75 792V628C1183.75 619.992 1177.26 613.5 1169.25 613.5ZM618.25 613C609.966 613 603.25 619.716 603.25 628V792C603.25 800.284 609.966 807 618.25 807H1169.25C1177.53 807 1184.25 800.284 1184.25 792V628C1184.25 619.716 1177.53 613 1169.25 613H618.25Z" fill="url(#paint4_radial_8_2418)"/>
<path fill-rule="evenodd" clip-rule="evenodd" d="M433.25 613.5H242.25C234.242 613.5 227.75 619.992 227.75 628V792C227.75 800.008 234.242 806.5 242.25 806.5H433.25C441.258 806.5 447.75 800.008 447.75 792V628C447.75 619.992 441.258 613.5 433.25 613.5ZM242.25 613C233.966 613 227.25 619.716 227.25 628V792C227.25 800.284 233.966 807 242.25 807H433.25C441.534 807 448.25 800.284 448.25 792V628C448.25 619.716 441.534 613 433.25 613H242.25Z" fill="url(#paint5_radial_8_2418)"/>
<path fill-rule="evenodd" clip-rule="evenodd" d="M153.25 201.5H-37.75C-45.7581 201.5 -52.25 207.992 -52.25 216V491C-52.25 499.008 -45.7581 505.5 -37.75 505.5H153.25C161.258 505.5 167.75 499.008 167.75 491V216C167.75 207.992 161.258 201.5 153.25 201.5ZM-37.75 201C-46.0343 201 -52.75 207.716 -52.75 216V491C-52.75 499.284 -46.0343 506 -37.75 506H153.25C161.534 506 168.25 499.284 168.25 491V216C168.25 207.716 161.534 201 153.25 201H-37.75Z" fill="url(#paint6_radial_8_2418)"/>
<path fill-rule="evenodd" clip-rule="evenodd" d="M182.25 613.5H-8.75C-16.7581 613.5 -23.25 619.992 -23.25 628V792C-23.25 800.008 -16.7581 806.5 -8.75 806.5H182.25C190.258 806.5 196.75 800.008 196.75 792V628C196.75 619.992 190.258 613.5 182.25 613.5ZM-8.75 613C-17.0343 613 -23.75 619.716 -23.75 628V792C-23.75 800.284 -17.0343 807 -8.75 807H182.25C190.534 807 197.25 800.284 197.25 792V628C197.25 619.716 190.534 613 182.25 613H-8.75Z" fill="url(#paint7_radial_8_2418)"/>
<path fill-rule="evenodd" clip-rule="evenodd" d="M564 592.515C564 581.602 572.852 572.757 583.765 572.765L1204.26 573.235C1215.17 573.243 1224 582.083 1224 592.985V693H1224.5V592.985C1224.5 581.807 1215.44 572.743 1204.27 572.735L583.765 572.265C572.576 572.257 563.5 581.325 563.5 592.515V691.5H564V592.515Z" fill="url(#paint8_radial_8_2418)"/>
<path fill-rule="evenodd" clip-rule="evenodd" d="M-171.5 592.515C-171.5 581.602 -162.648 572.757 -151.735 572.765L468.765 573.235C479.667 573.243 488.5 582.083 488.5 592.985V693H489V592.985C489 581.807 479.943 572.743 468.765 572.735L-151.735 572.265C-162.924 572.257 -172 581.325 -172 592.515V691.5H-171.5V592.515Z" fill="url(#paint9_radial_8_2418)"/>
<path fill-rule="evenodd" clip-rule="evenodd" d="M1319.25 425.25C1308.34 425.25 1299.5 434.092 1299.5 445V665.5H1299V445C1299 433.816 1308.07 424.75 1319.25 424.75H1919.75V425.25H1319.25Z" fill="url(#paint10_radial_8_2418)"/>
<path fill-rule="evenodd" clip-rule="evenodd" d="M238.5 485.449C238.5 496.376 247.373 505.227 258.3 505.199L1201.43 502.8C1212.27 502.773 1221.06 494.017 1221.13 483.18L1223.87 64.1291C1223.94 53.1713 1215.08 44.25 1204.12 44.25H-5.75V43.75H1204.12C1215.35 43.75 1224.44 52.8971 1224.37 64.1324L1223 273.658L1221.63 483.183C1221.56 494.295 1212.54 503.272 1201.43 503.3L258.302 505.699C247.098 505.728 238 496.653 238 485.449V155C238 144.092 229.158 135.25 218.25 135.25H-12.25V134.75H218.25C229.434 134.75 238.5 143.816 238.5 155V485.449Z" fill="url(#paint11_radial_8_2418)"/>
<path fill-rule="evenodd" clip-rule="evenodd" d="M1319.25 350.75C1308.34 350.75 1299.5 341.908 1299.5 331V-91H1299V331C1299 342.184 1308.07 351.25 1319.25 351.25H1918.25V350.75H1319.25Z" fill="url(#paint12_radial_8_2418)"/>
<path fill-rule="evenodd" clip-rule="evenodd" d="M1553.25 117.5H1354.25C1346.24 117.5 1339.75 123.992 1339.75 132V296C1339.75 304.008 1346.24 310.5 1354.25 310.5H1553.25C1561.26 310.5 1567.75 304.008 1567.75 296V132C1567.75 123.992 1561.26 117.5 1553.25 117.5ZM1354.25 117C1345.97 117 1339.25 123.716 1339.25 132V296C1339.25 304.284 1345.97 311 1354.25 311H1553.25C1561.53 311 1568.25 304.284 1568.25 296V214V132C1568.25 123.716 1561.53 117 1553.25 117H1354.25Z" fill="url(#paint13_radial_8_2418)"/>
<path fill-rule="evenodd" clip-rule="evenodd" d="M1905.25 117.5H1613.25C1605.24 117.5 1598.75 123.992 1598.75 132V296C1598.75 304.008 1605.24 310.5 1613.25 310.5H1905.25C1913.26 310.5 1919.75 304.008 1919.75 296V132C1919.75 123.992 1913.26 117.5 1905.25 117.5ZM1613.25 117C1604.97 117 1598.25 123.716 1598.25 132V296C1598.25 304.284 1604.97 311 1613.25 311H1905.25C1913.53 311 1920.25 304.284 1920.25 296V132C1920.25 123.716 1913.53 117 1905.25 117H1613.25Z" fill="url(#paint14_radial_8_2418)"/>
<defs>
<radialGradient id="paint0_radial_8_2418" cx="0" cy="0" r="1" gradientUnits="userSpaceOnUse" gradientTransform="translate(828 319.5) rotate(84.5459) scale(489.717 1121.73)">
<stop stop-color="#38C9E9"/>
<stop offset="1" stop-color="#38C9E9" stop-opacity="0"/>
</radialGradient>
<radialGradient id="paint1_radial_8_2418" cx="0" cy="0" r="1" gradientUnits="userSpaceOnUse" gradientTransform="translate(828 319.5) rotate(84.5459) scale(489.717 1121.73)">
<stop stop-color="#38C9E9"/>
<stop offset="1" stop-color="#38C9E9" stop-opacity="0"/>
</radialGradient>
<radialGradient id="paint2_radial_8_2418" cx="0" cy="0" r="1" gradientUnits="userSpaceOnUse" gradientTransform="translate(828 319.5) rotate(84.5459) scale(489.717 1121.73)">
<stop stop-color="#38C9E9"/>
<stop offset="1" stop-color="#38C9E9" stop-opacity="0"/>
</radialGradient>
<radialGradient id="paint3_radial_8_2418" cx="0" cy="0" r="1" gradientUnits="userSpaceOnUse" gradientTransform="translate(828 319.5) rotate(84.5459) scale(489.717 1121.73)">
<stop stop-color="#38C9E9"/>
<stop offset="1" stop-color="#38C9E9" stop-opacity="0"/>
</radialGradient>
<radialGradient id="paint4_radial_8_2418" cx="0" cy="0" r="1" gradientUnits="userSpaceOnUse" gradientTransform="translate(828 319.5) rotate(84.5459) scale(489.717 1121.73)">
<stop stop-color="#38C9E9"/>
<stop offset="1" stop-color="#38C9E9" stop-opacity="0"/>
</radialGradient>
<radialGradient id="paint5_radial_8_2418" cx="0" cy="0" r="1" gradientUnits="userSpaceOnUse" gradientTransform="translate(828 319.5) rotate(84.5459) scale(489.717 1121.73)">
<stop stop-color="#38C9E9"/>
<stop offset="1" stop-color="#38C9E9" stop-opacity="0"/>
</radialGradient>
<radialGradient id="paint6_radial_8_2418" cx="0" cy="0" r="1" gradientUnits="userSpaceOnUse" gradientTransform="translate(828 319.5) rotate(84.5459) scale(489.717 1121.73)">
<stop stop-color="#38C9E9"/>
<stop offset="1" stop-color="#38C9E9" stop-opacity="0"/>
</radialGradient>
<radialGradient id="paint7_radial_8_2418" cx="0" cy="0" r="1" gradientUnits="userSpaceOnUse" gradientTransform="translate(828 319.5) rotate(84.5459) scale(489.717 1121.73)">
<stop stop-color="#38C9E9"/>
<stop offset="1" stop-color="#38C9E9" stop-opacity="0"/>
</radialGradient>
<radialGradient id="paint8_radial_8_2418" cx="0" cy="0" r="1" gradientUnits="userSpaceOnUse" gradientTransform="translate(828 319.5) rotate(84.5459) scale(489.717 1121.73)">
<stop stop-color="#38C9E9"/>
<stop offset="1" stop-color="#38C9E9" stop-opacity="0"/>
</radialGradient>
<radialGradient id="paint9_radial_8_2418" cx="0" cy="0" r="1" gradientUnits="userSpaceOnUse" gradientTransform="translate(828 319.5) rotate(84.5459) scale(489.717 1121.73)">
<stop stop-color="#38C9E9"/>
<stop offset="1" stop-color="#38C9E9" stop-opacity="0"/>
</radialGradient>
<radialGradient id="paint10_radial_8_2418" cx="0" cy="0" r="1" gradientUnits="userSpaceOnUse" gradientTransform="translate(828 319.5) rotate(84.5459) scale(489.717 1121.73)">
<stop stop-color="#38C9E9"/>
<stop offset="1" stop-color="#38C9E9" stop-opacity="0"/>
</radialGradient>
<radialGradient id="paint11_radial_8_2418" cx="0" cy="0" r="1" gradientUnits="userSpaceOnUse" gradientTransform="translate(828 319.5) rotate(84.5459) scale(489.717 1121.73)">
<stop stop-color="#38C9E9"/>
<stop offset="1" stop-color="#38C9E9" stop-opacity="0"/>
</radialGradient>
<radialGradient id="paint12_radial_8_2418" cx="0" cy="0" r="1" gradientUnits="userSpaceOnUse" gradientTransform="translate(828 319.5) rotate(84.5459) scale(489.717 1121.73)">
<stop stop-color="#38C9E9"/>
<stop offset="1" stop-color="#38C9E9" stop-opacity="0"/>
</radialGradient>
<radialGradient id="paint13_radial_8_2418" cx="0" cy="0" r="1" gradientUnits="userSpaceOnUse" gradientTransform="translate(828 319.5) rotate(84.5459) scale(489.717 1121.73)">
<stop stop-color="#38C9E9"/>
<stop offset="1" stop-color="#38C9E9" stop-opacity="0"/>
</radialGradient>
<radialGradient id="paint14_radial_8_2418" cx="0" cy="0" r="1" gradientUnits="userSpaceOnUse" gradientTransform="translate(828 319.5) rotate(84.5459) scale(489.717 1121.73)">
<stop stop-color="#38C9E9"/>
<stop offset="1" stop-color="#38C9E9" stop-opacity="0"/>
</radialGradient>
</defs>
</svg>
