<svg width="70" height="70" viewBox="0 0 70 70" fill="none" xmlns="http://www.w3.org/2000/svg">
<g clip-path="url(#clip0_8_3110)">
<path d="M30.5 23.625C30.5 22.4514 31.4519 21.5 32.625 21.5H48.375C49.5481 21.5 50.5 22.4514 50.5 23.625V46.375C50.5 47.5481 49.5481 48.5 48.375 48.5H37.4757C37.4913 48.3811 37.5 48.2579 37.5 48.125V35.1831C38.5339 34.6742 39.25 33.6084 39.25 32.375V30.625C39.25 28.8996 37.8504 27.5 36.125 27.5H30.5V23.625ZM45.6522 40.3453C46.1864 40.8863 47.0618 40.8867 47.5965 40.3465C48.1367 39.8118 48.1363 38.9364 47.5953 38.4022C47.5947 38.4017 47.5942 38.4012 47.5937 38.4007L44.0993 34.9063C44.0988 34.9058 44.0982 34.9052 44.0977 34.9046C43.5631 34.3633 42.6869 34.3633 42.1523 34.9046C42.1518 34.9052 42.1512 34.9058 42.1507 34.9063L38.6563 38.4007C38.6558 38.4012 38.6553 38.4017 38.6547 38.4022C38.1137 38.9364 38.1133 39.8118 38.6535 40.3465C39.1882 40.8867 40.0636 40.8863 40.5978 40.3453C40.5983 40.3447 40.5988 40.3442 40.5993 40.3437L41.75 39.193V44.625C41.75 45.3824 42.3676 46 43.125 46C43.8824 46 44.5 45.3824 44.5 44.625V39.193L45.6507 40.3437C45.6512 40.3442 45.6517 40.3447 45.6522 40.3453ZM16.5 30.625C16.5 30.4192 16.6687 30.25 16.875 30.25H36.125C36.3301 30.25 36.5 30.4199 36.5 30.625V32.375C36.5 32.5801 36.3301 32.75 36.125 32.75H16.875C16.6687 32.75 16.5 32.5808 16.5 32.375V30.625ZM34.75 47.25C34.75 47.9418 34.1918 48.5 33.5 48.5H19.5C18.8095 48.5 18.25 47.9415 18.25 47.25V35.5H34.75V47.25ZM23.875 38C23.1176 38 22.5 38.6176 22.5 39.375C22.5 40.1324 23.1176 40.75 23.875 40.75H29.125C29.8824 40.75 30.5 40.1324 30.5 39.375C30.5 38.6176 29.8824 38 29.125 38H23.875Z" stroke="#28AECB"/>
</g>
<circle cx="35" cy="35" r="34.5" stroke="#28AECB"/>
<defs>
<clipPath id="clip0_8_3110">
<rect width="35" height="28" fill="white" transform="translate(16 21)"/>
</clipPath>
</defs>
</svg>
