<svg width="70" height="70" viewBox="0 0 70 70" fill="none" xmlns="http://www.w3.org/2000/svg">
<g clip-path="url(#clip0_8_3073)">
<path d="M49.4107 46.1161L49.4107 46.1161C49.8501 47.8732 48.6277 49.4994 47.0925 49.4994H21.908C20.3722 49.4994 19.1498 47.8731 19.5892 46.1161L19.1041 45.9948L19.5892 46.1161L24.0121 28.4286L24.0121 28.4284C24.1926 27.7055 24.7781 27.25 25.3961 27.25H29.0441H29.753L29.5151 26.5822C29.3131 26.0153 29.1881 25.4266 29.1881 24.8125C29.1881 21.8784 31.5665 19.5 34.5006 19.5C37.4346 19.5 39.8131 21.8784 39.8131 24.8125C39.8131 25.4263 39.6875 26.0151 39.4859 26.5826L39.2488 27.25H39.957H43.605C44.2229 27.25 44.8079 27.7048 44.989 28.4285C44.989 28.4286 44.989 28.4286 44.989 28.4286L49.4107 46.1161ZM32.0624 24.8119C32.0624 26.1561 33.1558 27.2494 34.4999 27.2494C35.8441 27.2494 36.9375 26.1561 36.9375 24.8119C36.9375 23.4677 35.8441 22.3744 34.4999 22.3744C33.1558 22.3744 32.0624 23.4677 32.0624 24.8119Z" stroke="#28AECB"/>
</g>
<circle cx="35" cy="35" r="34.5" stroke="#28AECB"/>
<defs>
<clipPath id="clip0_8_3073">
<rect width="31" height="31" fill="white" transform="translate(19 19)"/>
</clipPath>
</defs>
</svg>
