<svg width="70" height="70" viewBox="0 0 70 70" fill="none" xmlns="http://www.w3.org/2000/svg">
<path d="M18 22.75V47.25C18 47.7141 18.183 48.1592 18.5087 48.4874C18.8344 48.8156 19.2762 49 19.7368 49H29.2895L26.6842 39.375L32.7632 37.625L31.8947 31.5L38.8421 28L37.1053 25.375L39.7105 21H19.7368C19.2762 21 18.8344 21.1844 18.5087 21.5126C18.183 21.8408 18 22.2859 18 22.75V22.75ZM51 47.25V22.75C51 22.2859 50.817 21.8408 50.4913 21.5126C50.1656 21.1844 49.7238 21 49.2632 21H46.6579L43.1842 26.25L45.7895 30.625L37.9737 34.125L38.8421 41.125L32.7632 42.875L34.5 49H49.2632C49.7238 49 50.1656 48.8156 50.4913 48.4874C50.817 48.1592 51 47.7141 51 47.25Z" stroke="#28AECB" stroke-linecap="round" stroke-linejoin="round"/>
<circle cx="35" cy="35" r="34.5" stroke="#28AECB"/>
</svg>
