<svg width="70" height="70" viewBox="0 0 70 70" fill="none" xmlns="http://www.w3.org/2000/svg">
<circle cx="35" cy="35" r="34.5" stroke="#28AECB"/>
<rect x="27.5" y="27.5" width="23" height="23" rx="1.5" stroke="#28AECB"/>
<path d="M20.3536 28.6464C20.1583 28.4512 19.8417 28.4512 19.6464 28.6464L16.4645 31.8284C16.2692 32.0237 16.2692 32.3403 16.4645 32.5355C16.6597 32.7308 16.9763 32.7308 17.1716 32.5355L20 29.7071L22.8284 32.5355C23.0237 32.7308 23.3403 32.7308 23.5355 32.5355C23.7308 32.3403 23.7308 32.0237 23.5355 31.8284L20.3536 28.6464ZM19.6464 49.3536C19.8417 49.5488 20.1583 49.5488 20.3536 49.3536L23.5355 46.1716C23.7308 45.9763 23.7308 45.6597 23.5355 45.4645C23.3403 45.2692 23.0237 45.2692 22.8284 45.4645L20 48.2929L17.1716 45.4645C16.9763 45.2692 16.6597 45.2692 16.4645 45.4645C16.2692 45.6597 16.2692 45.9763 16.4645 46.1716L19.6464 49.3536ZM19.5 29V49H20.5V29H19.5Z" fill="#28AECB"/>
<path d="M28.6464 19.6464C28.4512 19.8417 28.4512 20.1583 28.6464 20.3536L31.8284 23.5355C32.0237 23.7308 32.3403 23.7308 32.5355 23.5355C32.7308 23.3403 32.7308 23.0237 32.5355 22.8284L29.7071 20L32.5355 17.1716C32.7308 16.9763 32.7308 16.6597 32.5355 16.4645C32.3403 16.2692 32.0237 16.2692 31.8284 16.4645L28.6464 19.6464ZM49.3536 20.3536C49.5488 20.1583 49.5488 19.8417 49.3536 19.6464L46.1716 16.4645C45.9763 16.2692 45.6597 16.2692 45.4645 16.4645C45.2692 16.6597 45.2692 16.9763 45.4645 17.1716L48.2929 20L45.4645 22.8284C45.2692 23.0237 45.2692 23.3403 45.4645 23.5355C45.6597 23.7308 45.9763 23.7308 46.1716 23.5355L49.3536 20.3536ZM29 20.5L39 20.5L39 19.5L29 19.5L29 20.5ZM39 20.5L49 20.5L49 19.5L39 19.5L39 20.5Z" fill="#28AECB"/>
</svg>
