<svg width="70" height="70" viewBox="0 0 70 70" fill="none" xmlns="http://www.w3.org/2000/svg">
<circle cx="35" cy="35" r="34.5" stroke="#28AECB"/>
<mask id="path-3-inside-1_8_3412" fill="white">
<path d="M43.2675 50.49C42.4745 50.8262 41.5804 50.8335 40.782 50.5105C39.9836 50.1875 39.3462 49.5605 39.01 48.7675C38.6738 47.9745 38.6665 47.0804 38.9895 46.282C39.3125 45.4836 39.9395 44.8462 40.7325 44.51C41.1252 44.3435 41.5467 44.2561 41.9732 44.2525C42.3997 44.249 42.8226 44.3295 43.218 44.4895C43.6133 44.6494 43.9733 44.8857 44.2773 45.1848C44.5814 45.4838 44.8235 45.8398 44.99 46.2325C45.1565 46.6252 45.2439 47.0467 45.2475 47.4732C45.251 47.8997 45.1705 48.3226 45.0105 48.718C44.8506 49.1133 44.6143 49.4733 44.3152 49.7773C44.0162 50.0814 43.6602 50.3236 43.2675 50.49ZM28.3825 24.75C30.1862 24.75 31.6325 23.3038 31.6325 21.5C31.6325 20.638 31.2901 19.8114 30.6806 19.2019C30.0711 18.5924 29.2445 18.25 28.3825 18.25C26.5625 18.25 25.1325 19.7125 25.1325 21.5C25.1325 23.3038 26.5625 24.75 28.3825 24.75ZM51.8312 41.5525L46.2516 43.9583C45.9272 44.0982 45.8449 44.5246 46.0491 44.8129C46.2154 45.0478 46.364 45.3059 46.485 45.5825C46.6196 45.8997 46.7087 46.2283 46.7724 46.5514C46.8368 46.8777 47.1798 47.077 47.4856 46.9461L52.6408 44.7386C52.894 44.6302 53.0118 44.3374 52.9043 44.0838L51.8312 41.5525ZM32.9645 29.0748C32.7125 29.1816 32.5932 29.4711 32.6968 29.7244L33.2795 31.1496C33.4446 31.5534 33.0604 31.9281 32.6961 31.6882C32.6882 31.6829 32.6803 31.6777 32.6725 31.6725C31.6975 31.0388 30.9825 30.2425 30.5113 29.3L29.3087 26.7487C29 26.18 28.6262 25.7575 28.1062 25.465C27.635 25.1888 27.1313 25.0425 26.6112 25.0425C26.1093 25.0425 25.6376 25.1637 25.1815 25.3767C25.1488 25.392 25.118 25.4113 25.0899 25.4338C22.9236 27.1703 22.3273 30.2901 22.2906 30.4922C22.2893 30.4993 22.288 30.506 22.2865 30.5131L21.7362 33.0537C21.59 33.8987 21.5088 34.7437 21.5088 35.605V43.5001C21.5088 43.6072 21.4744 43.7115 21.4107 43.7975L17.9199 48.5153C17.7566 48.7359 17.8017 49.0469 18.0209 49.212L19.6594 50.4463C19.8814 50.6136 20.1972 50.5676 20.3624 50.344L24.4745 44.7771C24.5327 44.6983 24.5665 44.6041 24.5716 44.5062L24.7656 40.798C24.7903 40.3261 25.3954 40.1486 25.671 40.5325L27.4762 43.0468C27.5372 43.1318 27.57 43.2338 27.57 43.3384V50.25C27.57 50.5261 27.7939 50.75 28.07 50.75H30.0763C30.3524 50.75 30.5763 50.5261 30.5763 50.25V41.0617C30.5763 40.9581 30.5441 40.8571 30.4842 40.7726L27.6621 36.7912C27.6022 36.7066 27.57 36.6056 27.57 36.502V35.605C27.57 34.89 27.57 34.1913 27.7487 33.5088L28.0233 32.5673C28.1412 32.1631 28.6843 32.0711 28.9584 32.3907C29.4341 32.9454 29.9717 33.4481 30.5763 33.8988C31.2771 34.4283 33.1872 35.346 35.0473 35.8362C35.1991 35.8762 35.3253 35.9822 35.3874 36.1263L38.4583 43.2484C38.5982 43.5728 39.0245 43.6549 39.3135 43.4517C39.5505 43.285 39.8131 43.1362 40.0987 43.015C40.4067 42.8803 40.7317 42.7911 41.0536 42.7274C41.3792 42.6628 41.5785 42.3212 41.4489 42.0156L35.6953 28.46C35.5874 28.2059 35.294 28.0873 35.0399 28.1951L32.9645 29.0748ZM40.96 34.695L43.9487 41.7092C44.0571 41.9636 44.3513 42.0817 44.6054 41.9729L52.8354 38.45C53.0887 38.3415 53.2065 38.0485 53.0988 37.7948L50.125 30.795"/>
</mask>
<path d="M40.7325 44.51L41.1228 45.4307L40.7325 44.51ZM28.3825 18.25V17.25V18.25ZM46.485 45.5825L47.4056 45.1919L47.4012 45.1817L46.485 45.5825ZM32.6725 31.6725L33.2272 30.8404L33.2175 30.8341L32.6725 31.6725ZM30.5113 29.3L29.6067 29.7264L29.6116 29.7368L29.6168 29.7472L30.5113 29.3ZM29.3087 26.7487L30.2133 26.3224L30.2012 26.2967L30.1876 26.2717L29.3087 26.7487ZM28.1062 25.465L27.6005 26.3277L27.6082 26.3322L27.616 26.3366L28.1062 25.465ZM21.7362 33.0537L20.7589 32.8421L20.7545 32.8626L20.7509 32.8832L21.7362 33.0537ZM27.7487 33.5088L26.7887 33.2288L26.7849 33.242L26.7814 33.2554L27.7487 33.5088ZM30.5763 33.8988L31.1791 33.1009L31.1739 33.097L30.5763 33.8988ZM40.0987 43.015L40.4893 43.9356L40.4996 43.9312L40.0987 43.015ZM52.8354 38.45L52.4418 37.5307L52.8354 38.45ZM53.0988 37.7948L54.0192 37.4038L53.0988 37.7948ZM35.6953 28.46L34.7748 28.8508L35.6953 28.46ZM41.0536 42.7274L40.8592 41.7464L41.0536 42.7274ZM41.4489 42.0156L42.3694 41.6249L41.4489 42.0156ZM38.4583 43.2484L37.54 43.6444L38.4583 43.2484ZM39.3135 43.4517L38.7383 42.6337L39.3135 43.4517ZM35.0473 35.8362L35.3022 34.8693L35.0473 35.8362ZM35.3874 36.1263L34.4691 36.5223L35.3874 36.1263ZM30.4842 40.7726L29.6683 41.3509L30.4842 40.7726ZM27.4762 43.0468L28.2885 42.4636L27.4762 43.0468ZM25.671 40.5325L26.4834 39.9493L25.671 40.5325ZM24.4745 44.7771L23.6701 44.183L24.4745 44.7771ZM24.5716 44.5062L23.573 44.4539L24.5716 44.5062ZM19.6594 50.4463L19.0577 51.245L19.6594 50.4463ZM20.3624 50.344L21.1667 50.9382L20.3624 50.344ZM25.1815 25.3767L24.7582 24.4707L25.1815 25.3767ZM17.9199 48.5153L18.7237 49.1101L17.9199 48.5153ZM18.0209 49.212L17.4192 50.0107L18.0209 49.212ZM33.2795 31.1496L34.2051 30.7712L33.2795 31.1496ZM52.6408 44.7386L53.0344 45.6579L52.6408 44.7386ZM52.9043 44.0838L51.9836 44.4741L52.9043 44.0838ZM43.9487 41.7092L44.8686 41.3173L43.9487 41.7092ZM44.6054 41.9729L44.2119 41.0536L44.6054 41.9729ZM22.2906 30.4922L23.2745 30.6707L22.2906 30.4922ZM22.2865 30.5131L21.3091 30.3014L22.2865 30.5131ZM27.6621 36.7912L28.4779 36.2129L27.6621 36.7912ZM46.7724 46.5514L45.7914 46.7451L46.7724 46.5514ZM47.4856 46.9461L47.0919 46.0268L47.4856 46.9461ZM21.4107 43.7975L20.6068 43.2027L21.4107 43.7975ZM28.0233 32.5673L28.9833 32.8473L28.0233 32.5673ZM28.9584 32.3907L29.7174 31.7397L28.9584 32.3907ZM32.6968 29.7244L31.7712 30.1028L32.6968 29.7244ZM32.9645 29.0748L32.5742 28.1542L32.9645 29.0748ZM46.2516 43.9583L45.8556 43.04L46.2516 43.9583ZM46.0491 44.8129L46.8651 44.2349L46.0491 44.8129ZM42.8772 49.5693C42.3284 49.802 41.7096 49.8071 41.1571 49.5835L40.407 51.4375C41.4513 51.86 42.6206 51.8504 43.6578 51.4107L42.8772 49.5693ZM41.1571 49.5835C40.6045 49.3599 40.1633 48.926 39.9307 48.3772L38.0893 49.1578C38.529 50.195 39.3627 51.015 40.407 51.4375L41.1571 49.5835ZM39.9307 48.3772C39.698 47.8284 39.6929 47.2096 39.9165 46.6571L38.0625 45.907C37.64 46.9513 37.6496 48.1206 38.0893 49.1578L39.9307 48.3772ZM39.9165 46.6571C40.1401 46.1045 40.574 45.6633 41.1228 45.4307L40.3422 43.5893C39.305 44.029 38.485 44.8627 38.0625 45.907L39.9165 46.6571ZM41.1228 45.4307C41.3945 45.3155 41.6863 45.2549 41.9815 45.2525L41.965 43.2526C41.4072 43.2572 40.8558 43.3716 40.3422 43.5893L41.1228 45.4307ZM41.9815 45.2525C42.2766 45.2501 42.5693 45.3058 42.8429 45.4165L43.593 43.5625C43.076 43.3533 42.5227 43.248 41.965 43.2526L41.9815 45.2525ZM42.8429 45.4165C43.1166 45.5272 43.3657 45.6907 43.5761 45.8977L44.9786 44.4718C44.5809 44.0807 44.1101 43.7717 43.593 43.5625L42.8429 45.4165ZM43.5761 45.8977C43.7865 46.1047 43.9541 46.351 44.0693 46.6228L45.9107 45.8422C45.693 45.3286 45.3763 44.863 44.9786 44.4718L43.5761 45.8977ZM44.0693 46.6228C44.1845 46.8945 44.2451 47.1863 44.2475 47.4815L46.2474 47.465C46.2428 46.9072 46.1284 46.3558 45.9107 45.8422L44.0693 46.6228ZM44.2475 47.4815C44.2499 47.7766 44.1942 48.0693 44.0835 48.3429L45.9375 49.093C46.1467 48.576 46.252 48.0227 46.2474 47.465L44.2475 47.4815ZM44.0835 48.3429C43.9728 48.6166 43.8093 48.8657 43.6023 49.0761L45.0282 50.4786C45.4193 50.0809 45.7283 49.6101 45.9375 49.093L44.0835 48.3429ZM43.6023 49.0761C43.3953 49.2865 43.149 49.4541 42.8772 49.5693L43.6578 51.4107C44.1714 51.193 44.637 50.8763 45.0282 50.4786L43.6023 49.0761ZM28.3825 25.75C30.7385 25.75 32.6325 23.856 32.6325 21.5H30.6325C30.6325 22.7515 29.634 23.75 28.3825 23.75V25.75ZM32.6325 21.5C32.6325 20.3728 32.1847 19.2918 31.3877 18.4948L29.9735 19.909C30.3954 20.331 30.6325 20.9033 30.6325 21.5H32.6325ZM31.3877 18.4948C30.5907 17.6978 29.5097 17.25 28.3825 17.25V19.25C28.9792 19.25 29.5515 19.4871 29.9735 19.909L31.3877 18.4948ZM28.3825 17.25C26.0037 17.25 24.1325 19.1668 24.1325 21.5H26.1325C26.1325 20.2582 27.1213 19.25 28.3825 19.25V17.25ZM24.1325 21.5C24.1325 23.8528 26.007 25.75 28.3825 25.75V23.75C27.118 23.75 26.1325 22.7547 26.1325 21.5H24.1325ZM51.4353 40.6342L45.8556 43.04L46.6475 44.8766L52.2272 42.4708L51.4353 40.6342ZM45.233 45.3909C45.3622 45.5733 45.4766 45.7724 45.5688 45.9833L47.4012 45.1817C47.2514 44.8395 47.0686 44.5222 46.8651 44.2349L45.233 45.3909ZM45.5644 45.973C45.6645 46.2091 45.7366 46.4674 45.7914 46.7451L47.7535 46.3578C47.6808 45.9892 47.5746 45.5904 47.4056 45.1919L45.5644 45.973ZM47.8792 47.8653L53.0344 45.6579L52.2472 43.8193L47.0919 46.0268L47.8792 47.8653ZM53.825 43.6935L52.7519 41.1622L50.9106 41.9428L51.9836 44.4741L53.825 43.6935ZM31.7712 30.1028L32.3538 31.528L34.2051 30.7712L33.6224 29.346L31.7712 30.1028ZM33.2462 30.8531C33.2399 30.8489 33.2335 30.8447 33.2272 30.8405L32.1178 32.5046C32.1272 32.5108 32.1366 32.517 32.146 32.5232L33.2462 30.8531ZM33.2175 30.8341C32.3823 30.2912 31.7925 29.6263 31.4057 28.8528L29.6168 29.7472C30.1725 30.8587 31.0127 31.7863 32.1275 32.5109L33.2175 30.8341ZM31.4158 28.8736L30.2133 26.3224L28.4042 27.1751L29.6067 29.7264L31.4158 28.8736ZM30.1876 26.2717C29.8114 25.5787 29.3172 24.9988 28.5965 24.5934L27.616 26.3366C27.9353 26.5162 28.1886 26.7813 28.4299 27.2258L30.1876 26.2717ZM28.612 24.6023C28.0021 24.2448 27.3254 24.0425 26.6112 24.0425V26.0425C26.9371 26.0425 27.2679 26.1327 27.6005 26.3277L28.612 24.6023ZM26.6112 24.0425C25.9413 24.0425 25.3256 24.2056 24.7582 24.4707L25.6048 26.2827C25.9495 26.1217 26.2773 26.0425 26.6112 26.0425V24.0425ZM24.4644 24.6536C23.1976 25.669 22.425 27.0544 21.9681 28.1549C21.5068 29.2659 21.3324 30.1716 21.3067 30.3136L23.2745 30.6707C23.2854 30.6106 23.4276 29.8554 23.8152 28.9219C24.2071 27.9778 24.8158 26.9352 25.7153 26.2141L24.4644 24.6536ZM21.3091 30.3014L20.7589 32.8421L22.7136 33.2654L23.2638 30.7247L21.3091 30.3014ZM20.7509 32.8832C20.5961 33.7778 20.5088 34.6801 20.5088 35.605H22.5087C22.5087 34.8074 22.5839 34.0197 22.7216 33.2243L20.7509 32.8832ZM20.5088 35.605V43.5001H22.5087V35.605H20.5088ZM20.6068 43.2027L17.116 47.9205L18.7237 49.1101L22.2145 44.3923L20.6068 43.2027ZM17.4192 50.0107L19.0577 51.245L20.2611 49.6476L18.6226 48.4133L17.4192 50.0107ZM21.1667 50.9382L25.2788 45.3713L23.6701 44.183L19.558 49.7499L21.1667 50.9382ZM25.5702 44.5584L25.7642 40.8502L23.7669 40.7458L23.573 44.4539L25.5702 44.5584ZM24.8587 41.1157L26.6638 43.63L28.2885 42.4636L26.4834 39.9493L24.8587 41.1157ZM26.57 43.3384V50.25H28.57V43.3384H26.57ZM28.07 51.75H30.0763V49.75H28.07V51.75ZM31.5763 50.25V41.0617H29.5763V50.25H31.5763ZM31.3 40.1943L28.4779 36.2129L26.8462 37.3694L29.6683 41.3509L31.3 40.1943ZM28.57 36.502V35.605H26.57V36.502H28.57ZM28.57 35.605C28.57 34.8677 28.5754 34.2993 28.7161 33.7621L26.7814 33.2554C26.5646 34.0832 26.57 34.9123 26.57 35.605H28.57ZM28.7087 33.7888L28.9833 32.8473L27.0633 32.2873L26.7887 33.2288L28.7087 33.7888ZM28.1993 33.0416C28.7236 33.653 29.3155 34.2062 29.9786 34.7005L31.1739 33.097C30.628 32.69 30.1446 32.2378 29.7174 31.7397L28.1993 33.0416ZM29.9734 34.6966C30.8097 35.3285 32.8514 36.2916 34.7925 36.8032L35.3022 34.8693C33.523 34.4004 31.7445 33.5281 31.1791 33.1009L29.9734 34.6966ZM34.4691 36.5223L37.54 43.6444L39.3766 42.8525L36.3057 35.7304L34.4691 36.5223ZM39.8886 44.2698C40.0708 44.1417 40.2718 44.0279 40.4893 43.9356L39.7082 42.0944C39.3545 42.2445 39.0303 42.4284 38.7383 42.6337L39.8886 44.2698ZM40.4996 43.9312C40.7212 43.8342 40.9718 43.763 41.248 43.7083L40.8592 41.7464C40.4916 41.8193 40.0921 41.9264 39.6979 42.0988L40.4996 43.9312ZM42.3694 41.6249L36.6158 28.0693L34.7748 28.8508L40.5283 42.4063L42.3694 41.6249ZM34.6496 27.2744L32.5742 28.1542L33.3548 29.9955L35.4302 29.1157L34.6496 27.2744ZM40.04 35.087L43.0287 42.1012L44.8686 41.3173L41.88 34.303L40.04 35.087ZM44.999 42.8922L53.2289 39.3693L52.4418 37.5307L44.2119 41.0536L44.999 42.8922ZM54.0192 37.4038L51.0454 30.404L49.2046 31.186L52.1784 38.1858L54.0192 37.4038ZM53.2289 39.3693C53.989 39.0439 54.3425 38.1648 54.0192 37.4038L52.1784 38.1858C52.0706 37.9322 52.1884 37.6391 52.4418 37.5307L53.2289 39.3693ZM36.6158 28.0693C36.2922 27.307 35.4121 26.9511 34.6496 27.2744L35.4302 29.1157C35.176 29.2235 34.8826 29.1049 34.7748 28.8508L36.6158 28.0693ZM41.248 43.7083C42.1394 43.5316 42.769 42.5664 42.3694 41.6249L40.5283 42.4063C40.3881 42.0759 40.619 41.794 40.8592 41.7464L41.248 43.7083ZM37.54 43.6444C37.9772 44.6583 39.1803 44.7677 39.8886 44.2698L38.7383 42.6337C38.8336 42.5667 38.9445 42.5489 39.0473 42.5718C39.1582 42.5965 39.3033 42.6826 39.3766 42.8525L37.54 43.6444ZM34.7925 36.8032C34.6566 36.7674 34.5325 36.6692 34.4691 36.5223L36.3057 35.7304C36.1181 35.2952 35.7416 34.9851 35.3022 34.8693L34.7925 36.8032ZM31.5763 41.0617C31.5763 40.751 31.4797 40.4479 31.3 40.1943L29.6683 41.3509C29.6084 41.2664 29.5763 41.1653 29.5763 41.0617H31.5763ZM26.57 50.25C26.57 51.0784 27.2416 51.75 28.07 51.75V49.75C28.3461 49.75 28.57 49.9739 28.57 50.25H26.57ZM26.6638 43.63C26.6028 43.545 26.57 43.443 26.57 43.3384H28.57C28.57 43.0245 28.4715 42.7186 28.2885 42.4636L26.6638 43.63ZM25.7642 40.8502C25.7395 41.3222 25.1343 41.4996 24.8587 41.1157L26.4834 39.9493C25.6565 38.7976 23.841 39.3299 23.7669 40.7458L25.7642 40.8502ZM25.2788 45.3713C25.4535 45.1347 25.5549 44.8521 25.5702 44.5584L23.573 44.4539C23.5781 44.356 23.6119 44.2618 23.6701 44.183L25.2788 45.3713ZM19.0577 51.245C19.7238 51.7468 20.6712 51.609 21.1667 50.9382L19.558 49.7499C19.7232 49.5263 20.039 49.4803 20.2611 49.6476L19.0577 51.245ZM24.7582 24.4707C24.6517 24.5205 24.5532 24.5824 24.4644 24.6536L25.7153 26.2141C25.6828 26.2402 25.646 26.2635 25.6048 26.2827L24.7582 24.4707ZM17.116 47.9205C16.6262 48.5823 16.7616 49.5153 17.4192 50.0107L18.6226 48.4133C18.8419 48.5785 18.887 48.8894 18.7237 49.1101L17.116 47.9205ZM32.3538 31.528C32.2839 31.3569 32.3129 31.1096 32.4999 30.9331C32.5913 30.8468 32.7206 30.78 32.8736 30.7661C33.0325 30.7517 33.1638 30.7987 33.2462 30.8531L32.146 32.5232C32.7206 32.9018 33.419 32.8158 33.8728 32.3875C34.3016 31.9826 34.4402 31.3461 34.2051 30.7712L32.3538 31.528ZM53.0344 45.6579C53.794 45.3326 54.1475 44.4543 53.825 43.6935L51.9836 44.4741C51.8761 44.2205 51.9939 43.9278 52.2472 43.8193L53.0344 45.6579ZM43.0287 42.1012C43.3538 42.8643 44.2365 43.2186 44.999 42.8922L44.2119 41.0536C44.4661 40.9448 44.7603 41.0629 44.8686 41.3173L43.0287 42.1012ZM21.3067 30.3136C21.3069 30.3124 21.3077 30.3078 21.3091 30.3014L23.2638 30.7247C23.2682 30.7042 23.2717 30.6861 23.2745 30.6707L21.3067 30.3136ZM28.4779 36.2129C28.5378 36.2974 28.57 36.3984 28.57 36.502H26.57C26.57 36.8128 26.6665 37.1159 26.8462 37.3694L28.4779 36.2129ZM45.7914 46.7451C45.9679 47.6395 46.9375 48.2685 47.8792 47.8653L47.0919 46.0268C47.4221 45.8854 47.7058 46.1159 47.7535 46.3578L45.7914 46.7451ZM20.5088 43.5001C20.5088 43.393 20.5431 43.2888 20.6068 43.2027L22.2145 44.3923C22.4056 44.1341 22.5087 43.8214 22.5087 43.5001H20.5088ZM28.9833 32.8473C28.922 33.0575 28.7465 33.1668 28.6112 33.1914C28.4827 33.2148 28.3166 33.1785 28.1993 33.0416L29.7174 31.7397C28.9864 30.8873 27.429 31.0336 27.0633 32.2873L28.9833 32.8473ZM33.6224 29.346C33.726 29.5993 33.6067 29.8887 33.3548 29.9955L32.5742 28.1542C31.8184 28.4745 31.4605 29.343 31.7712 30.1028L33.6224 29.346ZM30.0763 51.75C30.9047 51.75 31.5763 51.0784 31.5763 50.25H29.5763C29.5763 49.9739 29.8001 49.75 30.0763 49.75V51.75ZM45.8556 43.04C44.8429 43.4767 44.7301 44.6808 45.233 45.3909L46.8651 44.2349C46.9333 44.3312 46.9513 44.4435 46.9283 44.5469C46.9035 44.6584 46.8172 44.8034 46.6475 44.8766L45.8556 43.04Z" fill="#28AECB" mask="url(#path-3-inside-1_8_3412)"/>
</svg>
