<svg width="190" height="32" viewBox="0 0 190 32" fill="none" xmlns="http://www.w3.org/2000/svg">
<path d="M13.7564 4.08251C14.1306 2.85426 15.8694 2.85426 16.2436 4.08252L18.0871 10.1345C18.2538 10.6818 18.7586 11.0557 19.3307 11.0557H25.4661C26.7051 11.0557 27.2418 12.6243 26.2625 13.3833L21.1575 17.3395C20.731 17.6701 20.553 18.2297 20.7102 18.7459L22.6256 25.0339C22.995 26.2465 21.5877 27.2168 20.5857 26.4403L15.7963 22.7286C15.3276 22.3653 14.6724 22.3653 14.2037 22.7286L9.41428 26.4403C8.41231 27.2168 7.00498 26.2465 7.37437 25.0339L9.28977 18.7459C9.44701 18.2297 9.26902 17.6701 8.84252 17.3395L3.73752 13.3833C2.75823 12.6243 3.29491 11.0557 4.53385 11.0557H10.6693C11.2414 11.0557 11.7462 10.6818 11.9129 10.1345L13.7564 4.08251Z" fill="#28AECB"/>
<path d="M53.7564 4.08251C54.1306 2.85426 55.8694 2.85426 56.2436 4.08252L58.0871 10.1345C58.2538 10.6818 58.7586 11.0557 59.3307 11.0557H65.4661C66.7051 11.0557 67.2418 12.6243 66.2625 13.3833L61.1575 17.3395C60.731 17.6701 60.553 18.2297 60.7102 18.7459L62.6256 25.0339C62.995 26.2465 61.5877 27.2168 60.5857 26.4403L55.7963 22.7286C55.3276 22.3653 54.6724 22.3653 54.2037 22.7286L49.4143 26.4403C48.4123 27.2168 47.005 26.2465 47.3744 25.0339L49.2898 18.7459C49.447 18.2297 49.269 17.6701 48.8425 17.3395L43.7375 13.3833C42.7582 12.6243 43.2949 11.0557 44.5339 11.0557H50.6693C51.2414 11.0557 51.7462 10.6818 51.9129 10.1345L53.7564 4.08251Z" fill="#28AECB"/>
<path d="M93.7564 4.08251C94.1306 2.85426 95.8694 2.85426 96.2436 4.08252L98.0871 10.1345C98.2538 10.6818 98.7586 11.0557 99.3307 11.0557H105.466C106.705 11.0557 107.242 12.6243 106.262 13.3833L101.157 17.3395C100.731 17.6701 100.553 18.2297 100.71 18.7459L102.626 25.0339C102.995 26.2465 101.588 27.2168 100.586 26.4403L95.7963 22.7286C95.3276 22.3653 94.6724 22.3653 94.2037 22.7286L89.4143 26.4403C88.4123 27.2168 87.005 26.2465 87.3744 25.0339L89.2898 18.7459C89.447 18.2297 89.269 17.6701 88.8425 17.3395L83.7375 13.3833C82.7582 12.6243 83.2949 11.0557 84.5339 11.0557H90.6693C91.2414 11.0557 91.7462 10.6818 91.9129 10.1345L93.7564 4.08251Z" fill="#28AECB"/>
<path d="M133.756 4.08251C134.131 2.85426 135.869 2.85426 136.244 4.08252L138.087 10.1345C138.254 10.6818 138.759 11.0557 139.331 11.0557H145.466C146.705 11.0557 147.242 12.6243 146.262 13.3833L141.157 17.3395C140.731 17.6701 140.553 18.2297 140.71 18.7459L142.626 25.0339C142.995 26.2465 141.588 27.2168 140.586 26.4403L135.796 22.7286C135.328 22.3653 134.672 22.3653 134.204 22.7286L129.414 26.4403C128.412 27.2168 127.005 26.2465 127.374 25.0339L129.29 18.7459C129.447 18.2297 129.269 17.6701 128.843 17.3395L123.738 13.3833C122.758 12.6243 123.295 11.0557 124.534 11.0557H130.669C131.241 11.0557 131.746 10.6818 131.913 10.1345L133.756 4.08251Z" fill="#28AECB"/>
<path d="M173.756 4.08251C174.131 2.85426 175.869 2.85426 176.244 4.08252L178.087 10.1345C178.254 10.6818 178.759 11.0557 179.331 11.0557H185.466C186.705 11.0557 187.242 12.6243 186.262 13.3833L181.157 17.3395C180.731 17.6701 180.553 18.2297 180.71 18.7459L182.626 25.0339C182.995 26.2465 181.588 27.2168 180.586 26.4403L175.796 22.7286C175.328 22.3653 174.672 22.3653 174.204 22.7286L169.414 26.4403C168.412 27.2168 167.005 26.2465 167.374 25.0339L169.29 18.7459C169.447 18.2297 169.269 17.6701 168.843 17.3395L163.738 13.3833C162.758 12.6243 163.295 11.0557 164.534 11.0557H170.669C171.241 11.0557 171.746 10.6818 171.913 10.1345L173.756 4.08251Z" fill="#28AECB"/>
</svg>
