<svg width="24" height="24" viewBox="0 0 24 24" fill="none" xmlns="http://www.w3.org/2000/svg">
<path d="M10.7564 1.08251C11.1306 -0.145738 12.8694 -0.145736 13.2436 1.08252L15.0871 7.13454C15.2538 7.68177 15.7586 8.05573 16.3307 8.05573H22.4661C23.7051 8.05573 24.2418 9.62435 23.2625 10.3833L18.1575 14.3395C17.731 14.6701 17.553 15.2297 17.7102 15.7459L19.6256 22.0339C19.995 23.2465 18.5877 24.2168 17.5857 23.4403L12.7963 19.7286C12.3276 19.3653 11.6724 19.3653 11.2037 19.7286L6.41428 23.4403C5.41231 24.2168 4.00498 23.2465 4.37437 22.0339L6.28977 15.7459C6.447 15.2297 6.26902 14.6701 5.84252 14.3395L0.737523 10.3833C-0.241768 9.62435 0.294909 8.05573 1.53385 8.05573H7.66931C8.24137 8.05573 8.7462 7.68177 8.9129 7.13454L10.7564 1.08251Z" fill="#28AECB"/>
</svg>
