<svg width="70" height="70" viewBox="0 0 70 70" fill="none" xmlns="http://www.w3.org/2000/svg">
<circle cx="35" cy="35" r="34.5" stroke="#28AECB"/>
<path d="M41.1667 42.25V49.5H30.5V45V44.5H30H28.3333C27.5502 44.5 26.8927 44.2272 26.3335 43.6681C25.7731 43.1077 25.5 42.4495 25.5 41.6667V38.3333V37.8333H25H24.3333C24.0701 37.8333 23.8741 37.7789 23.725 37.6925C23.5777 37.607 23.4473 37.4735 23.3395 37.2679L23.3392 37.2672C23.1261 36.8621 23.1291 36.4845 23.3548 36.0743L23.3703 36.0461L23.382 36.0162L25.6737 30.1828L25.7008 30.1138L25.7067 30.0399C25.9179 27.4003 27.0736 25.1572 29.2042 23.293C31.3347 21.4288 33.8147 20.5 36.6667 20.5C39.7563 20.5 42.3791 21.5862 44.5631 23.7702C46.7471 25.9542 47.8333 28.577 47.8333 31.6667C47.8333 33.9353 47.2414 35.9491 46.0634 37.7235C44.8748 39.5122 43.3373 40.869 41.4456 41.8015L41.1667 41.939V42.25ZM22.8967 37.5C22.6044 36.9444 22.6111 36.3889 22.9167 35.8333L22.8967 37.5Z" stroke="#28AECB"/>
<path d="M34.56 33.352C34.56 32.8293 34.6667 32.3547 34.88 31.928C35.0933 31.4907 35.3493 31.1227 35.648 30.824C35.9467 30.5253 36.2453 30.2373 36.544 29.96C36.8427 29.6827 37.0987 29.3787 37.312 29.048C37.5253 28.7067 37.632 28.344 37.632 27.96C37.632 27.3413 37.4187 26.8773 36.992 26.568C36.576 26.248 36.0373 26.088 35.376 26.088C34.064 26.088 33.2533 26.6267 32.944 27.704L32 27.176C32.2453 26.4613 32.672 25.9227 33.28 25.56C33.8987 25.1867 34.5973 25 35.376 25C36.3147 25 37.1093 25.2613 37.76 25.784C38.4213 26.296 38.752 27.0213 38.752 27.96C38.752 28.4187 38.6453 28.8453 38.432 29.24C38.2187 29.6347 37.9627 29.9813 37.664 30.28C37.3653 30.568 37.0667 30.856 36.768 31.144C36.4693 31.432 36.2133 31.768 36 32.152C35.7867 32.5253 35.68 32.9253 35.68 33.352H34.56ZM35.744 36.296C35.5733 36.4667 35.3653 36.552 35.12 36.552C34.8747 36.552 34.6667 36.4667 34.496 36.296C34.3253 36.1253 34.24 35.9173 34.24 35.672C34.24 35.4267 34.3253 35.2187 34.496 35.048C34.6667 34.8773 34.8747 34.792 35.12 34.792C35.3653 34.792 35.5733 34.8773 35.744 35.048C35.9147 35.2187 36 35.4267 36 35.672C36 35.9173 35.9147 36.1253 35.744 36.296Z" fill="#28AECB"/>
</svg>
