<svg width="70" height="70" viewBox="0 0 70 70" fill="none" xmlns="http://www.w3.org/2000/svg">
<path d="M47.3784 21H20.6216C20.1915 21 19.7791 21.1708 19.475 21.475C19.1708 21.7791 19 22.1915 19 22.6216V49.3784C19 49.8085 19.1708 50.2209 19.475 50.525C19.7791 50.8292 20.1915 51 20.6216 51H47.3784C47.8085 51 48.2209 50.8292 48.525 50.525C48.8292 50.2209 49 49.8085 49 49.3784V22.6216C49 22.1915 48.8292 21.7791 48.525 21.475C48.2209 21.1708 47.8085 21 47.3784 21V21Z" stroke="#28AECB" stroke-linecap="round" stroke-linejoin="round"/>
<path d="M42.9189 38.8378C44.4862 38.8378 45.7567 37.5672 45.7567 35.9999C45.7567 34.4327 44.4862 33.1621 42.9189 33.1621C41.3516 33.1621 40.0811 34.4327 40.0811 35.9999C40.0811 37.5672 41.3516 38.8378 42.9189 38.8378Z" stroke="#28AECB" stroke-linecap="round" stroke-linejoin="round"/>
<path d="M22.2433 36.0007H25.4865L28.7298 27.8926L33.5946 44.1088L36.8379 36.0007H40.0811" stroke="#28AECB" stroke-linecap="round" stroke-linejoin="round"/>
<circle cx="35" cy="35" r="34.5" stroke="#28AECB"/>
</svg>
