<svg width="70" height="70" viewBox="0 0 70 70" fill="none" xmlns="http://www.w3.org/2000/svg">
<path d="M20.5833 34.3754V28.4421C20.5833 28 20.7588 27.5761 21.0714 27.2635C21.384 26.951 21.8079 26.7754 22.2499 26.7754H49.5833C50.0253 26.7754 50.4492 26.951 50.7618 27.2635C51.0743 27.5761 51.2499 28 51.2499 28.4421V47.6087C51.2499 48.0508 51.0743 48.4747 50.7618 48.7872C50.4492 49.0998 50.0253 49.2754 49.5833 49.2754H22.2499C21.8079 49.2754 21.384 49.0998 21.0714 48.7872C20.7588 48.4747 20.5833 48.0508 20.5833 47.6087V41.6671" stroke="#28AECB" stroke-linecap="round" stroke-linejoin="round"/>
<path d="M19.5833 34.375H29.1667C29.6087 34.375 30.0326 34.5506 30.3452 34.8632C30.6577 35.1757 30.8333 35.5996 30.8333 36.0417V40C30.8333 40.442 30.6577 40.866 30.3452 41.1785C30.0326 41.4911 29.6087 41.6667 29.1667 41.6667H19.5833C19.3623 41.6667 19.1504 41.5789 18.9941 41.4226C18.8378 41.2663 18.75 41.0543 18.75 40.8333V35.2083C18.75 34.9873 18.8378 34.7754 18.9941 34.6191C19.1504 34.4628 19.3623 34.375 19.5833 34.375Z" stroke="#28AECB" stroke-linecap="round" stroke-linejoin="round"/>
<path d="M46.7667 26.7746L25.9917 20.7246L24.2334 26.7746" stroke="#28AECB" stroke-linecap="round" stroke-linejoin="round"/>
<circle cx="35" cy="35" r="34.5" stroke="#28AECB"/>
</svg>
