<svg width="70" height="70" viewBox="0 0 70 70" fill="none" xmlns="http://www.w3.org/2000/svg">
<path d="M25.9999 33.6996H26.4999V33.1996V29.5996C26.4999 27.3453 27.3954 25.1833 28.9895 23.5892C30.5836 21.9951 32.7456 21.0996 34.9999 21.0996C37.2542 21.0996 39.4163 21.9951 41.0103 23.5892C42.6044 25.1833 43.4999 27.3453 43.4999 29.5996V33.1996V33.6996H43.9999C44.8221 33.6996 45.6106 34.0262 46.1919 34.6076C46.7733 35.1889 47.0999 35.9774 47.0999 36.7996V45.7996C47.0999 46.6218 46.7733 47.4103 46.1919 47.9916C45.6106 48.573 44.8221 48.8996 43.9999 48.8996H25.9999C25.1777 48.8996 24.3892 48.573 23.8079 47.9916C23.2265 47.4103 22.8999 46.6218 22.8999 45.7996V36.7996C22.8999 35.9774 23.2265 35.1889 23.8079 34.6076C24.3892 34.0262 25.1777 33.6996 25.9999 33.6996ZM40.3999 33.6996H40.8999V33.1996V29.5996C40.8999 28.0348 40.2783 26.5341 39.1718 25.4277C38.0654 24.3212 36.5647 23.6996 34.9999 23.6996C33.4351 23.6996 31.9344 24.3212 30.828 25.4277C29.7215 26.5341 29.0999 28.0348 29.0999 29.5996V33.1996V33.6996H29.5999H40.3999Z" stroke="#28AECB"/>
<circle cx="35" cy="35" r="34.5" stroke="#28AECB"/>
</svg>
