<svg width="70" height="70" viewBox="0 0 70 70" fill="none" xmlns="http://www.w3.org/2000/svg">
<path d="M22.2813 31.032L22.2813 31.0318C22.2851 27.7922 23.5737 24.6864 25.8644 22.3957C28.155 20.1051 31.2606 18.8165 34.5 18.8125C37.7394 18.8165 40.845 20.1051 43.1356 22.3957C45.4263 24.6864 46.7149 27.7922 46.7188 31.0318V31.032C46.7226 33.6769 45.8586 36.25 44.2594 38.3567L44.2094 38.4226L44.2086 38.4251L44.2043 38.4307L44.0796 38.5934C44.0331 38.6539 43.9853 38.716 43.9462 38.7664L43.8961 38.8308L43.8795 38.8518L43.8745 38.8581C43.8735 38.8593 43.873 38.8599 43.8729 38.86L34.5 49.9144L25.1284 38.8618L25.1262 38.8592L25.1261 38.859C25.1251 38.8579 25.1189 38.8503 25.1052 38.833C25.0917 38.8161 25.0746 38.7942 25.0549 38.7688C25.0154 38.7181 24.9676 38.6559 24.9209 38.595C24.8744 38.5343 24.8296 38.4755 24.7963 38.4319L24.7565 38.3796L24.7455 38.3651L24.7426 38.3613L24.7419 38.3604L24.7418 38.3602C23.1417 36.2525 22.2774 33.6782 22.2813 31.032ZM38.3941 37.2343L39.3165 37.8213L39.1572 36.7396L38.502 32.2912L41.7756 29.2872L42.5729 28.5555L41.4989 28.4226L37.0327 27.8698L34.9434 23.8626L34.4866 22.9866L34.0512 23.8734L32.0895 27.8687L27.5026 28.4224L26.424 28.5526L27.2245 29.2872L30.498 32.2912L29.8428 36.7396L29.6835 37.8213L30.606 37.2343L34.5 34.7562L38.3941 37.2343Z" stroke="#28AECB"/>
<circle cx="35" cy="35" r="34.5" stroke="#28AECB"/>
</svg>
