<svg width="70" height="70" viewBox="0 0 70 70" fill="none" xmlns="http://www.w3.org/2000/svg">
<circle cx="35" cy="35" r="34.5" stroke="#28AECB"/>
<path d="M33.6866 16.4158C34.257 15.3819 35.743 15.3819 36.3134 16.4158L36.822 17.3376C37.5577 18.6713 39.3049 19.0426 40.5195 18.1236L41.3591 17.4883C42.3006 16.7757 43.6582 17.3802 43.7587 18.5567L43.8484 19.6057C43.9781 21.1233 45.4232 22.1732 46.9066 21.8276L47.9319 21.5887C49.0819 21.3208 50.0763 22.4251 49.6896 23.5408L49.3448 24.5355C48.8461 25.9747 49.7392 27.5216 51.2349 27.8092L52.2688 28.008C53.4283 28.231 53.8876 29.6443 53.0805 30.5063L52.3609 31.2748C51.3199 32.3867 51.5066 34.1631 52.7561 35.0342L53.6197 35.6364C54.5883 36.3117 54.433 37.7896 53.3451 38.2488L52.3752 38.6582C50.9719 39.2505 50.42 40.9493 51.207 42.2533L51.7511 43.1547C52.3613 44.1656 51.6183 45.4525 50.4377 45.4295L49.3851 45.4091C47.8622 45.3794 46.667 46.7068 46.8557 48.2182L46.9861 49.263C47.1323 50.4347 45.9301 51.3081 44.861 50.807L43.9077 50.3601C42.5285 49.7136 40.8968 50.4401 40.4544 51.8976L40.1486 52.9051C39.8056 54.035 38.3521 54.3439 37.5792 53.4512L36.8901 52.6552C35.8931 51.5037 34.1069 51.5037 33.1099 52.6552L32.4208 53.4512C31.6479 54.3439 30.1944 54.035 29.8514 52.9051L29.5456 51.8976C29.1032 50.4401 27.4714 49.7136 26.0923 50.3601L25.139 50.807C24.0699 51.3081 22.8677 50.4347 23.0139 49.263L23.1443 48.2182C23.333 46.7068 22.1378 45.3794 20.6149 45.4091L19.5623 45.4295C18.3817 45.4525 17.6387 44.1656 18.2489 43.1547L18.793 42.2533C19.58 40.9493 19.0281 39.2505 17.6248 38.6582L16.6549 38.2488C15.567 37.7896 15.4117 36.3117 16.3803 35.6364L17.2439 35.0342C18.4934 34.1631 18.6801 32.3867 17.6391 31.2748L16.9195 30.5063C16.1124 29.6443 16.5716 28.231 17.7312 28.008L18.7651 27.8092C20.2608 27.5216 21.1539 25.9747 20.6552 24.5355L20.3104 23.5408C19.9237 22.4251 20.9181 21.3208 22.0681 21.5887L23.0934 21.8276C24.5768 22.1732 26.0219 21.1233 26.1516 19.6057L26.2413 18.5567C26.3418 17.3802 27.6994 16.7757 28.641 17.4883L29.4805 18.1236C30.6951 19.0426 32.4423 18.6713 33.178 17.3376L33.6866 16.4158Z" stroke="#28AECB"/>
<path d="M35 26.618L36.6574 31.7188C36.7912 32.1309 37.1752 32.4098 37.6084 32.4098H42.9717L38.6327 35.5623C38.2822 35.8169 38.1356 36.2683 38.2694 36.6803L39.9268 41.7812L35.5878 38.6287C35.2373 38.374 34.7627 38.374 34.4122 38.6287L30.0732 41.7812L31.7306 36.6803C31.8644 36.2683 31.7178 35.8169 31.3673 35.5623L31.0734 35.9668L31.3673 35.5623L27.0283 32.4098H32.3916C32.8248 32.4098 33.2088 32.1309 33.3426 31.7188L35 26.618Z" stroke="#28AECB"/>
</svg>
