<svg width="70" height="70" viewBox="0 0 70 70" fill="none" xmlns="http://www.w3.org/2000/svg">
<path d="M30.4168 40.4368L35.0418 41.9785C35.0418 41.9785 46.6043 39.666 48.146 39.666C49.6877 39.666 49.6877 41.2077 48.146 42.7493C46.6043 44.291 41.2085 48.916 36.5835 48.916C31.9585 48.916 28.8752 46.6035 25.7918 46.6035H18.0835" stroke="#28AECB" stroke-linecap="round" stroke-linejoin="round"/>
<path d="M18.0835 37.3535C19.6252 35.8118 22.7085 33.4993 25.7918 33.4993C28.8752 33.4993 36.1981 36.5827 37.3543 38.1243C38.5106 39.666 35.0418 41.9785 35.0418 41.9785M27.3335 28.8743V22.7077C27.3335 22.2988 27.4959 21.9067 27.785 21.6176C28.0742 21.3284 28.4663 21.166 28.8752 21.166H47.3752C47.784 21.166 48.1762 21.3284 48.4653 21.6176C48.7544 21.9067 48.9168 22.2988 48.9168 22.7077V35.041" stroke="#28AECB" stroke-linecap="round" stroke-linejoin="round"/>
<path d="M34.271 21.166H41.9793V28.1035H34.271V21.166Z" stroke="#28AECB" stroke-linecap="round" stroke-linejoin="round"/>
<circle cx="35" cy="35" r="34.5" stroke="#28AECB"/>
</svg>
