<svg width="70" height="70" viewBox="0 0 70 70" fill="none" xmlns="http://www.w3.org/2000/svg">
<circle cx="35" cy="35" r="34.5" stroke="#28AECB"/>
<g clip-path="url(#clip0_8_2465)">
<path d="M41.2143 19.5481L41.2511 19.5695C41.349 19.6262 41.4247 19.7144 41.466 19.8198C41.5072 19.9251 41.5115 20.0413 41.4781 20.1495L41.478 20.1498L37.876 31.8538L37.6769 32.5009H38.3539H44.9999H45.0001C45.0978 32.5008 45.1933 32.5294 45.2749 32.583C45.3565 32.6367 45.4206 32.713 45.4593 32.8027C45.4981 32.8923 45.5097 32.9914 45.4927 33.0875C45.4758 33.1837 45.4311 33.2728 45.3641 33.3439L45.3638 33.3442L29.3638 50.3442L29.3637 50.3444C29.2863 50.4267 29.1833 50.4803 29.0714 50.4966C28.9596 50.5129 28.8456 50.4908 28.7479 50.434C28.6503 50.3771 28.5748 50.2889 28.5337 50.1836C28.4926 50.0784 28.4883 49.9623 28.5217 49.8544L28.5218 49.8539L32.1238 38.1479L32.3229 37.5009H31.6459H24.9999H24.9997C24.9021 37.5009 24.8065 37.4724 24.7249 37.4187C24.6433 37.3651 24.5792 37.2887 24.5405 37.1991C24.5018 37.1094 24.4902 37.0104 24.5071 36.9142C24.524 36.8181 24.5687 36.7289 24.6357 36.6579L24.636 36.6576L40.636 19.6576L40.6361 19.6574C40.7134 19.5752 40.8163 19.5216 40.9279 19.5053C41.0258 19.4909 41.1254 19.506 41.2143 19.5481Z" stroke="#28AECB"/>
</g>
<defs>
<clipPath id="clip0_8_2465">
<rect width="32" height="32" fill="white" transform="translate(19 19)"/>
</clipPath>
</defs>
</svg>
