<svg width="75" height="75" viewBox="0 0 75 75" fill="none" xmlns="http://www.w3.org/2000/svg">
<g clip-path="url(#clip0_8_2553)">
<mask id="path-1-inside-1_8_2553" fill="white">
<path d="M50.7498 41C50.7498 42.8945 49.7894 43.8229 47.9998 43.8557V43.857H26.0002V43.8557C24.2106 43.8229 23.2502 42.8945 23.2502 40.9998C23.2502 39.1057 24.2106 38.177 26.0002 38.1445V38.1427H47.9998V38.1445C49.7894 38.177 50.7498 39.1057 50.7498 40.9998M47.9998 45.2873V45.2857H26.0002V45.2875C24.2106 45.32 23.2502 46.2488 23.2502 48.1434C23.2502 50.038 24.2106 50.9659 26.0002 50.9988V51H47.9998V50.9982C49.7894 50.9659 50.7498 50.0375 50.7498 48.1429C50.7498 46.2482 49.7894 45.32 47.9998 45.2875M54.8748 29.5746V29.573C53.0856 29.6059 52.1248 30.5343 52.1248 32.4289V48.1429C52.1248 50.0375 53.0856 50.9654 54.8748 50.9982V50.9954C57.559 50.8973 59 48.112 59 42.4286V35.2857C59 31.497 57.559 29.6404 54.875 29.5745M19.125 29.5729V29.5746C16.4412 29.6402 15 31.4968 15 35.2857V42.4286C15 48.112 16.441 50.897 19.125 50.9952V50.9982C20.9146 50.9657 21.875 50.0373 21.875 48.1429V32.4286C21.875 30.5341 20.9146 29.6057 19.125 29.5729ZM54.875 28.1429C54.875 23.4066 52.4734 21.0857 48 21.0038V21H26V21.0038C21.527 21.0859 19.125 23.4066 19.125 28.143V28.1454C21.8092 28.1945 23.2502 29.587 23.2502 32.4288C23.2502 35.2704 24.6912 36.6627 27.3752 36.712V36.7143H46.6252V36.7121C49.3088 36.663 50.7498 35.2705 50.7498 32.4289C50.7498 29.5871 52.1908 28.1946 54.8748 28.1455V28.1429H54.875Z"/>
</mask>
<path d="M47.9998 43.8557L47.9815 42.8559L46.9998 42.8739V43.8557H47.9998ZM47.9998 43.857V44.857H48.9998V43.857H47.9998ZM26.0002 43.857H25.0002V44.857H26.0002V43.857ZM26.0002 43.8557H27.0002V42.8739L26.0185 42.8559L26.0002 43.8557ZM26.0002 38.1445L26.0183 39.1443L27.0002 39.1265V38.1445H26.0002ZM26.0002 38.1427V37.1427H25.0002V38.1427H26.0002ZM47.9998 38.1427H48.9998V37.1427H47.9998V38.1427ZM47.9998 38.1445H46.9998V39.1265L47.9817 39.1443L47.9998 38.1445ZM47.9998 45.2857H48.9998V44.2857H47.9998V45.2857ZM26.0002 45.2857V44.2857H25.0002V45.2857H26.0002ZM26.0002 45.2875L26.0183 46.2873L27.0002 46.2695V45.2875H26.0002ZM26.0002 50.9988H27.0002V50.0169L26.0185 49.9989L26.0002 50.9988ZM26.0002 51H25.0002V52H26.0002V51ZM47.9998 51V52H48.9998V51H47.9998ZM47.9998 50.9982L47.9818 49.9984L46.9998 50.0161V50.9982H47.9998ZM54.8748 29.573H55.8748V28.5545L54.8565 28.5732L54.8748 29.573ZM54.8748 50.9982L54.8565 51.998L55.8748 52.0167V50.9982H54.8748ZM54.8748 50.9954L54.8383 49.996L53.8748 50.0312V50.9954H54.8748ZM19.125 29.5729L19.1434 28.573L18.125 28.5543V29.5729H19.125ZM19.125 29.5746L19.1494 30.5743L20.125 30.5505V29.5746H19.125ZM19.125 50.9952H20.125V50.0311L19.1616 49.9958L19.125 50.9952ZM19.125 50.9982H18.125V52.0165L19.1432 51.9981L19.125 50.9982ZM54.875 28.1429V29.1429H55.875V28.1429H54.875ZM48 21.0038H47V21.9856L47.9817 22.0036L48 21.0038ZM48 21H49V20H48V21ZM26 21V20H25V21H26ZM26 21.0038L26.0184 22.0036L27 21.9856V21.0038H26ZM19.125 28.1454H18.125V29.1272L19.1067 29.1452L19.125 28.1454ZM27.3752 36.712H28.3752V35.7302L27.3935 35.7121L27.3752 36.712ZM27.3752 36.7143H26.3752V37.7143H27.3752V36.7143ZM46.6252 36.7143V37.7143H47.6252V36.7143H46.6252ZM46.6252 36.7121L46.6069 35.7123L45.6252 35.7303V36.7121H46.6252ZM54.8748 28.1455L54.8931 29.1454L55.8748 29.1274V28.1455H54.8748ZM54.8748 28.1429V27.1429H53.8748V28.1429H54.8748ZM49.7498 41C49.7498 41.7881 49.5513 42.2021 49.3319 42.4258C49.1127 42.6494 48.7163 42.8424 47.9815 42.8559L48.0182 44.8555C49.0729 44.8362 50.0515 44.5485 50.7599 43.8261C51.4682 43.1038 51.7498 42.1064 51.7498 41H49.7498ZM46.9998 43.8557V43.857H48.9998V43.8557H46.9998ZM47.9998 42.857H26.0002V44.857H47.9998V42.857ZM27.0002 43.857V43.8557H25.0002V43.857H27.0002ZM26.0185 42.8559C25.2837 42.8424 24.8873 42.6494 24.6681 42.4258C24.4487 42.2021 24.2502 41.788 24.2502 40.9998H22.2502C22.2502 42.1063 22.5318 43.1037 23.24 43.826C23.9484 44.5485 24.9271 44.8362 25.9818 44.8555L26.0185 42.8559ZM24.2502 40.9998C24.2502 40.212 24.4487 39.7979 24.6681 39.5742C24.8873 39.3506 25.2836 39.1576 26.0183 39.1443L25.982 37.1446C24.9272 37.1638 23.9485 37.4514 23.2401 38.1739C22.5319 38.8962 22.2502 39.8936 22.2502 40.9998H24.2502ZM27.0002 38.1445V38.1427H25.0002V38.1445H27.0002ZM26.0002 39.1427H47.9998V37.1427H26.0002V39.1427ZM46.9998 38.1427V38.1445H48.9998V38.1427H46.9998ZM47.9817 39.1443C48.7164 39.1576 49.1127 39.3506 49.3319 39.5742C49.5513 39.7979 49.7498 40.212 49.7498 40.9998H51.7498C51.7498 39.8936 51.4681 38.8962 50.7599 38.1739C50.0515 37.4514 49.0728 37.1638 48.018 37.1446L47.9817 39.1443ZM48.9998 45.2873V45.2857H46.9998V45.2873H48.9998ZM47.9998 44.2857H26.0002V46.2857H47.9998V44.2857ZM25.0002 45.2857V45.2875H27.0002V45.2857H25.0002ZM25.982 44.2877C24.9272 44.3068 23.9484 44.5945 23.24 45.3171C22.5318 46.0394 22.2502 47.037 22.2502 48.1434H24.2502C24.2502 47.3552 24.4487 46.941 24.6682 46.7172C24.8873 46.4936 25.2836 46.3007 26.0183 46.2873L25.982 44.2877ZM22.2502 48.1434C22.2502 49.2499 22.5318 50.2472 23.2401 50.9694C23.9486 51.6918 24.9273 51.9792 25.9818 51.9986L26.0185 49.9989C25.2835 49.9854 24.8872 49.7925 24.668 49.569C24.4487 49.3454 24.2502 48.9316 24.2502 48.1434H22.2502ZM25.0002 50.9988V51H27.0002V50.9988H25.0002ZM26.0002 52H47.9998V50H26.0002V52ZM48.9998 51V50.9982H46.9998V51H48.9998ZM48.0179 51.9981C49.0726 51.979 50.0514 51.6915 50.7599 50.9691C51.4682 50.2468 51.7498 49.2493 51.7498 48.1429H49.7498C49.7498 48.9311 49.5513 49.3451 49.3319 49.5688C49.1128 49.7922 48.7166 49.9851 47.9818 49.9984L48.0179 51.9981ZM51.7498 48.1429C51.7498 47.0364 51.4682 46.039 50.7599 45.3167C50.0514 44.5943 49.0727 44.3068 48.018 44.2877L47.9817 46.2873C48.7165 46.3007 49.1128 46.4936 49.3319 46.717C49.5513 46.9407 49.7498 47.3547 49.7498 48.1429H51.7498ZM55.8748 29.5746V29.573H53.8748V29.5746H55.8748ZM54.8565 28.5732C53.8019 28.5926 52.8233 28.8802 52.1149 29.6027C51.4066 30.325 51.1248 31.3224 51.1248 32.4289H53.1248C53.1248 31.6408 53.3234 31.2267 53.5429 31.003C53.7622 30.7793 54.1585 30.5864 54.8932 30.5729L54.8565 28.5732ZM51.1248 32.4289V48.1429H53.1248V32.4289H51.1248ZM51.1248 48.1429C51.1248 49.2494 51.4066 50.2468 52.115 50.9689C52.8234 51.6912 53.802 51.9787 54.8565 51.998L54.8932 49.9984C54.1584 49.9849 53.762 49.792 53.5428 49.5685C53.3234 49.3448 53.1248 48.931 53.1248 48.1429H51.1248ZM55.8748 50.9982V50.9954H53.8748V50.9982H55.8748ZM54.9113 51.9947C56.6837 51.93 58.0132 50.9368 58.8419 49.2467C59.6375 47.624 60 45.3255 60 42.4286H58C58 45.2151 57.642 47.1509 57.0461 48.3662C56.4832 49.5142 55.7501 49.9627 54.8383 49.996L54.9113 51.9947ZM60 42.4286V35.2857H58V42.4286H60ZM60 35.2857C60 33.2902 59.6249 31.6316 58.7496 30.4415C57.8379 29.2019 56.4913 28.6138 54.8995 28.5748L54.8505 30.5742C55.9427 30.601 56.6586 30.9742 57.1384 31.6265C57.6546 32.3284 58 33.4925 58 35.2857H60ZM18.125 29.5729V29.5746H20.125V29.5729H18.125ZM19.1006 28.5749C17.5089 28.6138 16.1623 29.2018 15.2505 30.4414C14.3752 31.6315 14 33.2901 14 35.2857H16C16 33.4924 16.3454 32.3282 16.8616 31.6264C17.3414 30.9741 18.0573 30.601 19.1494 30.5743L19.1006 28.5749ZM14 35.2857V42.4286H16V35.2857H14ZM14 42.4286C14 45.3255 14.3625 47.624 15.1581 49.2466C15.9868 50.9366 17.3162 51.9297 19.0884 51.9945L19.1616 49.9958C18.2498 49.9625 17.5167 49.514 16.9539 48.3661C16.358 47.1508 16 45.2151 16 42.4286H14ZM18.125 50.9952V50.9982H20.125V50.9952H18.125ZM19.1432 51.9981C20.1979 51.9789 21.1766 51.6914 21.8851 50.9689C22.5933 50.2467 22.875 49.2492 22.875 48.1429H20.875C20.875 48.9309 20.6764 49.3449 20.4571 49.5686C20.2379 49.7921 19.8417 49.985 19.1068 49.9984L19.1432 51.9981ZM22.875 48.1429V32.4286H20.875V48.1429H22.875ZM22.875 32.4286C22.875 31.3222 22.5933 30.3248 21.8851 29.6025C21.1767 28.88 20.1981 28.5924 19.1434 28.573L19.1066 30.5727C19.8415 30.5862 20.2378 30.7792 20.4571 31.0027C20.6764 31.2265 20.875 31.6405 20.875 32.4286H22.875ZM55.875 28.1429C55.875 25.6155 55.233 23.5596 53.829 22.1278C52.4249 20.6959 50.415 20.0478 48.0183 20.0039L47.9817 22.0036C50.0584 22.0416 51.486 22.595 52.401 23.5281C53.3162 24.4613 53.875 25.9339 53.875 28.1429H55.875ZM49 21.0038V21H47V21.0038H49ZM48 20H26V22H48V20ZM25 21V21.0038H27V21H25ZM25.9816 20.0039C23.5852 20.0479 21.5753 20.696 20.1711 22.1279C18.7671 23.5596 18.125 25.6156 18.125 28.143H20.125C20.125 25.9341 20.6839 24.4615 21.5991 23.5282C22.5141 22.5951 23.9418 22.0417 26.0184 22.0036L25.9816 20.0039ZM18.125 28.143V28.1454H20.125V28.143H18.125ZM19.1067 29.1452C20.2889 29.1668 21.029 29.4799 21.4802 29.94C21.9315 30.4002 22.2502 31.1671 22.2502 32.4288H24.2502C24.2502 30.8486 23.8483 29.4984 22.9081 28.5396C21.9678 27.5807 20.6453 27.173 19.1433 27.1455L19.1067 29.1452ZM22.2502 32.4288C22.2502 34.0088 22.652 35.359 23.5922 36.3177C24.5325 37.2765 25.8549 37.6842 27.3568 37.7118L27.3935 35.7121C26.2114 35.6904 25.4713 35.3773 25.0201 34.9173C24.5688 34.4571 24.2502 33.6903 24.2502 32.4288H22.2502ZM26.3752 36.712V36.7143H28.3752V36.712H26.3752ZM27.3752 37.7143H46.6252V35.7143H27.3752V37.7143ZM47.6252 36.7143V36.7121H45.6252V36.7143H47.6252ZM46.6435 37.712C48.1453 37.6845 49.4676 37.2768 50.4079 36.3179C51.348 35.3592 51.7498 34.009 51.7498 32.4289H49.7498C49.7498 33.6905 49.4312 34.4574 48.9799 34.9176C48.5288 35.3776 47.7887 35.6907 46.6069 35.7123L46.6435 37.712ZM51.7498 32.4289C51.7498 31.1672 52.0685 30.4004 52.5198 29.9401C52.971 29.4801 53.7111 29.167 54.8931 29.1454L54.8565 27.1457C53.3546 27.1732 52.0322 27.5809 51.0918 28.5398C50.1517 29.4986 49.7498 30.8488 49.7498 32.4289H51.7498ZM55.8748 28.1455V28.1429H53.8748V28.1455H55.8748ZM54.8748 29.1429H54.875V27.1429H54.8748V29.1429Z" fill="#28AECB" mask="url(#path-1-inside-1_8_2553)"/>
</g>
<circle cx="37.5" cy="37.5" r="37" stroke="#28AECB"/>
<defs>
<clipPath id="clip0_8_2553">
<rect width="44" height="30" fill="white" transform="translate(15 21)"/>
</clipPath>
</defs>
</svg>
