<svg width="75" height="75" viewBox="0 0 75 75" fill="none" xmlns="http://www.w3.org/2000/svg">
<path d="M21.5 33.1079L21.5 33.1077C21.505 28.9737 23.1894 25.008 26.1877 22.081C29.1863 19.1538 33.2543 17.505 37.5 17.5C41.7457 17.505 45.8137 19.1538 48.8123 22.081C51.8106 25.008 53.495 28.9737 53.5 33.1077V33.1079C53.5049 36.4835 52.3755 39.7689 50.2828 42.4601L50.2313 42.5262L50.2301 42.5298L50.2109 42.5543L50.049 42.7604C49.9255 42.9175 49.8064 43.0678 49.7788 43.1006C49.7784 43.1011 49.778 43.1016 49.7776 43.102L37.5 57.2375L25.225 43.1054L25.2228 43.1028C25.2228 43.1029 25.2202 43.0999 25.214 43.0925L25.192 43.0656C25.1741 43.0436 25.1516 43.0156 25.1259 42.9832C25.0744 42.9186 25.0121 42.8395 24.9515 42.7623C24.891 42.6853 24.8328 42.6108 24.7896 42.5555L24.7379 42.4892L24.7236 42.4708L24.7199 42.466L24.7189 42.4648L24.7187 42.4645L24.7187 42.4644L24.7186 42.4644C22.6249 39.772 21.4949 36.4851 21.5 33.1079ZM44 33.1078V33.1071C44 31.8471 43.6172 30.6164 42.9014 29.5707C42.1858 28.5251 41.1699 27.712 39.9835 27.2323C38.7973 26.7527 37.4927 26.6273 36.2342 26.8717C34.9756 27.1161 33.8179 27.7196 32.9081 28.6077C31.9982 29.496 31.3771 30.6292 31.1254 31.8646C30.8736 33.1002 31.0029 34.3808 31.4965 35.5439C31.9899 36.7068 32.8247 37.6989 33.8934 38.396C34.962 39.093 36.2171 39.4643 37.5 39.4643H37.5006C39.2199 39.4622 40.8704 38.7947 42.0897 37.6044C43.3094 36.4138 43.9978 34.7969 44 33.1078Z" stroke="#28AECB"/>
<circle cx="37.5" cy="37.5" r="37" stroke="#28AECB"/>
</svg>
