<svg width="75" height="75" viewBox="0 0 75 75" fill="none" xmlns="http://www.w3.org/2000/svg">
<circle cx="37.5" cy="37.5" r="37" stroke="#28AECB"/>
<path d="M41.1914 40.1321V50.4265C41.1912 50.633 41.232 50.8376 41.3116 51.0285C41.3912 51.2194 41.508 51.3929 41.6553 51.539C41.8025 51.6852 41.9774 51.8011 42.1699 51.8802C42.3624 51.9593 42.5687 52 42.7771 52H49.9455C50.154 52.0002 50.3605 51.9596 50.5531 51.8806C50.7458 51.8016 50.9208 51.6857 51.0683 51.5396C51.2157 51.3934 51.3326 51.2199 51.4123 51.0289C51.492 50.8379 51.5329 50.6332 51.5327 50.4265V37.5925H53.6125C54.1011 37.5923 54.5779 37.4435 54.9785 37.1663C55.3792 36.8891 55.6844 36.4968 55.8531 36.0422C56.0218 35.5876 56.0458 35.0927 55.9219 34.6242C55.798 34.1556 55.5322 33.736 55.1602 33.422L38.8957 19.6912C38.3671 19.245 37.6955 19 37.0013 19C36.3071 19 35.6355 19.245 35.107 19.6912L18.8424 33.422C18.4696 33.7357 18.203 34.1553 18.0785 34.6241C17.9541 35.0929 17.978 35.5882 18.1468 36.0432C18.3156 36.4981 18.6213 36.8907 19.0225 37.1678C19.4238 37.4449 19.9011 37.5931 20.3901 37.5925H22.4699V50.428C22.4703 50.845 22.6377 51.2449 22.9353 51.5397C23.233 51.8344 23.6365 52 24.0572 52H31.224C31.6446 52 32.0479 51.8344 32.3453 51.5396C32.6427 51.2448 32.8097 50.8449 32.8097 50.428V40.1336L41.1914 40.1321Z" stroke="#28AECB" stroke-linecap="round" stroke-linejoin="round"/>
</svg>
