<svg width="75" height="75" viewBox="0 0 75 75" fill="none" xmlns="http://www.w3.org/2000/svg">
<path d="M55.8822 30.3684L55.8829 30.3664C56.8326 29.1409 57.3457 27.6439 57.3434 26.1052C57.3412 24.2215 56.5763 22.4155 55.2165 21.0835C53.8567 19.7515 52.0132 19.0022 50.0902 19M55.8822 30.3684L55.8773 30.3645L55.488 30.0609L55.488 30.0609L55.4879 30.0609L55.4878 30.0611L55.4874 30.0616L55.4858 30.0637L55.4795 30.0717L55.4568 30.1008L55.4361 30.1272M55.8822 30.3684C55.8822 30.3684 55.6838 30.6229 55.6548 30.6571M55.8822 30.3684L55.4089 30.2074L55.4095 30.2055L55.4361 30.1272M55.4361 30.1272L55.4364 30.1263L55.4877 30.0602C56.3699 28.9217 56.8455 27.5326 56.8434 26.106L56.8434 26.1058C56.8413 24.3579 56.1316 22.6799 54.8666 21.4407C53.6014 20.2013 51.8838 19.5022 50.0902 19.5M55.4361 30.1272L55.3859 30.1914L55.3104 30.2873L55.2827 30.3222C55.2795 30.3262 55.2771 30.3291 55.2756 30.331C55.2746 30.3322 55.2739 30.333 55.2735 30.3336M50.0902 19.5C50.0904 19.5 50.0906 19.5 50.0908 19.5L50.0902 19M50.0902 19.5C50.09 19.5 50.0898 19.5 50.0896 19.5L50.0902 19M50.0902 19.5C48.2965 19.5022 46.579 20.2013 45.3137 21.4407C44.0487 22.6799 43.339 24.3579 43.3369 26.1058L43.3369 26.106C43.3348 27.5333 43.8106 28.923 44.6933 30.062M50.0902 19C48.1672 19.0022 46.3236 19.7515 44.9639 21.0835C43.6041 22.4155 42.8392 24.2215 42.8369 26.1052C42.8346 27.6446 43.3479 29.1423 44.2981 30.3684M44.6933 30.062L44.2981 30.3684M44.6933 30.062C44.6933 30.062 44.6933 30.0621 44.6933 30.0621L44.6933 30.062L44.6933 30.062ZM44.2981 30.3684L44.6933 30.0621M44.2981 30.3684C44.2981 30.3684 44.4959 30.6235 44.5283 30.6603L49.7595 36.7041L50.0902 36.3221M44.6933 30.0621L55.2735 30.3336M44.6933 30.0621L44.6934 30.0622L44.6938 30.0627L44.6954 30.0648L44.7016 30.0728L44.7242 30.1019L44.7949 30.1925C44.8214 30.2263 44.8483 30.2606 44.8703 30.2884C44.8873 30.3097 44.8973 30.3221 44.9017 30.3275C44.904 30.3304 44.9047 30.3313 44.9041 30.3305L44.9063 30.3331L44.9063 30.3331L50.0902 36.3221M44.6933 30.0621L50.0902 36.3221M50.0902 36.3221L50.4208 36.7041L55.6548 30.6571M55.6548 30.6571L55.2733 30.3338L55.2735 30.3336M55.6548 30.6571L55.2767 30.3299L55.2735 30.3336M53.2277 26.1059V26.1052C53.2277 25.493 53.0424 24.8954 52.6963 24.388C52.3503 23.8808 51.8596 23.487 51.2875 23.2549C50.7155 23.0228 50.0866 22.9622 49.48 23.0804C48.8733 23.1986 48.3147 23.4906 47.8753 23.9211C47.4357 24.3517 47.1352 24.9015 47.0133 25.5017C46.8914 26.1019 46.9541 26.724 47.1929 27.2887C47.4316 27.8533 47.8352 28.3343 48.351 28.6719C48.8667 29.0094 49.4719 29.189 50.0902 29.189H50.0908C50.9192 29.1879 51.7153 28.8652 52.3041 28.2884C52.8933 27.7113 53.2267 26.9266 53.2277 26.1059Z" stroke="#28AECB"/>
<path d="M50.0899 36.4399V36.4399C50.0899 38.68 47.7971 40.1884 45.7399 39.3017L43.7912 38.4618C40.8412 37.1902 37.545 39.321 37.4932 42.5329L37.4721 43.8414C37.4246 46.7832 35.0263 49.1432 32.0841 49.1432H31.1426" stroke="#28AECB" stroke-linecap="round"/>
<path d="M30.0453 51.0383L30.046 51.0364C30.9957 49.8108 31.5088 48.3138 31.5065 46.7752C31.5043 44.8914 30.7393 43.0855 29.3796 41.7535C28.0198 40.4214 26.1763 39.6721 24.2533 39.6699M30.0453 51.0383L30.0404 51.0345L29.6511 50.7308L29.651 50.7308L29.651 50.7308L29.6509 50.731L29.6505 50.7315L29.6489 50.7336L29.6426 50.7417L29.6199 50.7707L29.5992 50.7971M30.0453 51.0383C30.0453 51.0383 29.8468 51.2928 29.8178 51.327M30.0453 51.0383L29.5719 50.8773L29.5726 50.8754L29.5992 50.7971M29.5992 50.7971L29.5995 50.7962L29.6508 50.7301C30.533 49.5916 31.0086 48.2025 31.0065 46.7759L31.0065 46.7758C31.0044 45.0278 30.2947 43.3498 29.0297 42.1106C27.7645 40.8712 26.0469 40.1721 24.2533 40.1699M29.5992 50.7971L29.549 50.8613L29.4735 50.9572L29.4458 50.9921C29.4426 50.9961 29.4402 50.999 29.4387 51.001C29.4377 51.0021 29.437 51.003 29.4366 51.0035M24.2533 40.1699C24.2535 40.1699 24.2537 40.1699 24.2538 40.1699L24.2533 39.6699M24.2533 40.1699C24.2531 40.1699 24.2529 40.1699 24.2527 40.1699L24.2533 39.6699M24.2533 40.1699C22.4596 40.1721 20.7421 40.8712 19.4768 42.1106C18.2118 43.3498 17.5021 45.0278 17.5 46.7758L17.5 46.7759C17.4979 48.2032 17.9737 49.593 18.8564 50.7319M24.2533 39.6699C22.3303 39.6721 20.4867 40.4214 19.1269 41.7535C17.7672 43.0855 17.0023 44.8914 17 46.7752C16.9977 48.3146 17.511 49.8122 18.4612 51.0383M18.8564 50.7319L18.4612 51.0383M18.8564 50.7319C18.8564 50.732 18.8564 50.732 18.8564 50.732L18.8564 50.732L18.8564 50.7319ZM18.4612 51.0383L18.8564 50.732M18.4612 51.0383C18.4612 51.0383 18.659 51.2934 18.6913 51.3303L23.9226 57.374L24.2533 56.992M18.8564 50.732L29.4366 51.0035M18.8564 50.732L18.8565 50.7321L18.8569 50.7326L18.8585 50.7347L18.8647 50.7427L18.8873 50.7718L18.958 50.8624C18.9845 50.8963 19.0114 50.9306 19.0334 50.9583C19.0504 50.9797 19.0604 50.992 19.0647 50.9974C19.0671 51.0003 19.0678 51.0012 19.0672 51.0005L19.0694 51.003L19.0694 51.003L24.2533 56.992M18.8564 50.732L24.2533 56.992M24.2533 56.992L24.5839 57.374L29.8178 51.327M29.8178 51.327L29.4364 51.0038L29.4366 51.0035M29.8178 51.327L29.4398 50.9998L29.4366 51.0035M27.3908 46.7758V46.7752C27.3908 46.1629 27.2054 45.5653 26.8594 45.058C26.5134 44.5507 26.0227 44.1569 25.4506 43.9248C24.8786 43.6927 24.2497 43.6321 23.6431 43.7503C23.0364 43.8685 22.4778 44.1605 22.0383 44.591C21.5988 45.0216 21.2983 45.5714 21.1764 46.1716C21.0545 46.7718 21.1172 47.3939 21.356 47.9586C21.5947 48.5233 21.9983 49.0042 22.5141 49.3418C23.0298 49.6793 23.635 49.8589 24.2533 49.8589H24.2539C25.0822 49.8579 25.8784 49.5352 26.4672 48.9584C27.0564 48.3812 27.3898 47.5965 27.3908 46.7758Z" stroke="#28AECB"/>
<circle cx="37.5" cy="37.5" r="37" stroke="#28AECB"/>
</svg>
