<svg width="75" height="75" viewBox="0 0 75 75" fill="none" xmlns="http://www.w3.org/2000/svg">
<circle cx="37.5" cy="37.5" r="37" stroke="#28AECB"/>
<path d="M35.9005 21.9125C36.39 21.6407 36.9406 21.498 37.5004 21.498C38.0603 21.498 38.6109 21.6407 39.1004 21.9125L51.4831 28.7901C51.7398 28.9329 51.9537 29.1417 52.1026 29.3949C52.2515 29.6481 52.33 29.9365 52.33 30.2302V43.7993C52.3299 44.3869 52.1726 44.9638 51.8745 45.4703C51.5763 45.9767 51.1482 46.3942 50.6345 46.6795L39.1004 53.0891C38.6109 53.361 38.0603 53.5036 37.5004 53.5036C36.9406 53.5036 36.39 53.361 35.9005 53.0891L24.3664 46.6795C23.8529 46.3943 23.425 45.9771 23.1268 45.471C22.8287 44.9649 22.6713 44.3883 22.6709 43.8009V30.2302C22.6709 29.9365 22.7494 29.6481 22.8983 29.3949C23.0472 29.1417 23.2611 28.9329 23.5178 28.7901L35.9021 21.9125H35.9005Z" stroke="#28AECB" stroke-linecap="round" stroke-linejoin="round"/>
<path d="M22.6709 29.2617L37.5004 37.5004M37.5004 37.5004L52.33 29.2617M37.5004 37.5004V53.9776" stroke="#28AECB" stroke-linejoin="round"/>
<path d="M30.0858 33.3802L44.9154 25.1416M27.6143 38.04L32.5574 40.795" stroke="#28AECB" stroke-linecap="round" stroke-linejoin="round"/>
</svg>
