<svg width="75" height="75" viewBox="0 0 75 75" fill="none" xmlns="http://www.w3.org/2000/svg">
<circle cx="37.5" cy="37.5" r="37" stroke="#28AECB"/>
<path d="M35.5108 51.3073L33.5222 43.3528L29.5449 37.3869V25.4551" stroke="#28AECB" stroke-linecap="round" stroke-linejoin="round"/>
<path d="M23.5795 37.3869L21.5908 31.421L29.5454 25.4551L35.5113 29.4324L41.4772 30.4267" stroke="#28AECB" stroke-linecap="round" stroke-linejoin="round"/>
<path d="M29.5453 22.6706C30.6436 22.6706 31.5339 21.7803 31.5339 20.682C31.5339 19.5837 30.6436 18.6934 29.5453 18.6934C28.447 18.6934 27.5566 19.5837 27.5566 20.682C27.5566 21.7803 28.447 22.6706 29.5453 22.6706Z" stroke="#28AECB" stroke-linecap="round" stroke-linejoin="round"/>
<path d="M27.5564 43.3527L23.5791 51.3073M45.4541 51.3073V34.4039C45.4541 33.6127 45.7684 32.854 46.3278 32.2946C46.8872 31.7352 47.6459 31.4209 48.4371 31.4209C49.2282 31.4209 49.9869 31.7352 50.5463 32.2946C51.1057 32.854 51.42 33.6127 51.42 34.4039V35.3982" stroke="#28AECB" stroke-linecap="round" stroke-linejoin="round"/>
</svg>
