<svg width="75" height="75" viewBox="0 0 75 75" fill="none" xmlns="http://www.w3.org/2000/svg">
<path d="M18.3801 29.0389V28.5389H17.8801H17.3095C16.3006 28.5389 15.4473 27.5964 15.4473 26.6898C15.4473 25.7831 16.3008 24.8398 17.3095 24.8398H57.705C58.7145 24.8398 59.5673 25.7829 59.5673 26.6898C59.5673 27.5965 58.7148 28.5389 57.705 28.5389H57.1918H56.6918V29.0389V33.2389H18.3801V29.0389ZM24.2796 51.0989H23.7796V51.5989V55.0863C23.7796 55.3564 23.7186 55.5476 23.6422 55.6563C23.5813 55.743 23.4981 55.8008 23.3358 55.8008H18.6133C18.5217 55.8008 18.4915 55.782 18.4889 55.7804L18.4888 55.7803L18.4887 55.7803C18.487 55.7793 18.4746 55.7721 18.4567 55.7335C18.4063 55.6248 18.3801 55.4249 18.3801 55.0863V49.6211V45.5198H56.6909V55.0863C56.6909 55.4052 56.6531 55.6039 56.5969 55.7101C56.5744 55.7527 56.5556 55.7672 56.5434 55.7745C56.5302 55.7823 56.4917 55.8008 56.4013 55.8008H51.6778C51.5217 55.8008 51.4606 55.7491 51.4135 55.6751C51.3457 55.5688 51.2923 55.3744 51.2923 55.0863V51.5989V51.0989H50.7923H24.2796ZM35.8266 30.1942C35.8266 31.1269 36.5653 31.9086 37.5073 31.9086C38.4504 31.9086 39.1879 31.1266 39.1879 30.1942C39.1879 29.2617 38.4504 28.4797 37.5073 28.4797C36.5653 28.4797 35.8266 29.2614 35.8266 30.1942ZM56.6918 42.638H18.3801V36.1198H56.6918V42.638ZM39.1879 39.2999C39.1879 38.367 38.4499 37.5864 37.5073 37.5864L36.3266 39.2999H35.8266C35.8266 39.3002 35.8266 39.3004 35.8266 39.3006C35.827 40.2343 36.5658 41.0144 37.5073 41.0144C38.4502 41.0144 39.1879 40.2336 39.1879 39.2999ZM39.1879 48.4067C39.1879 47.4749 38.4502 46.6931 37.5073 46.6931L36.3266 48.4067H35.8266C35.8266 48.4069 35.8266 48.4071 35.8266 48.4074C35.827 49.3427 36.5665 50.1202 37.5073 50.1202C38.4494 50.1202 39.1879 49.342 39.1879 48.4067Z" stroke="#28AECB"/>
<circle cx="37.5" cy="37.5" r="37" stroke="#28AECB"/>
</svg>
