<svg width="75" height="75" viewBox="0 0 75 75" fill="none" xmlns="http://www.w3.org/2000/svg">
<path d="M26.5381 42.6911V28.4436C26.5381 25.3834 29.9996 21.9219 36.9227 21.9219C43.8458 21.9219 47.3073 25.3834 47.3073 28.4436V42.6911" stroke="#28AECB" stroke-linecap="round" stroke-linejoin="round"/>
<path d="M24.0762 49.6145C23.5239 49.6145 23.0762 49.1668 23.0762 48.6145V43.6914C23.0762 43.1391 23.5239 42.6914 24.0762 42.6914H49.7685C50.3208 42.6914 50.7685 43.1391 50.7685 43.6914V48.6145C50.7685 49.1668 50.3208 49.6145 49.7685 49.6145H24.0762Z" stroke="#28AECB" stroke-linecap="round" stroke-linejoin="round"/>
<path d="M32.3066 14.999H41.5374" stroke="#28AECB" stroke-linecap="round" stroke-linejoin="round"/>
<path d="M18.4609 28.8447V40.6909C18.4609 41.7954 19.3564 42.6909 20.4609 42.6909H53.384C54.4886 42.6909 55.384 41.7954 55.384 40.6909V28.8447" stroke="#28AECB" stroke-linecap="round" stroke-linejoin="round"/>
<path d="M28.8457 59.999H44.9995" stroke="#28AECB" stroke-linecap="round" stroke-linejoin="round"/>
<path d="M36.9229 49.6143V59.9989" stroke="#28AECB" stroke-linecap="round" stroke-linejoin="round"/>
<path d="M36.9229 14.999V21.9221" stroke="#28AECB" stroke-linecap="round" stroke-linejoin="round"/>
<circle cx="37.5" cy="37.5" r="37" stroke="#28AECB"/>
</svg>
