<svg width="75" height="75" viewBox="0 0 75 75" fill="none" xmlns="http://www.w3.org/2000/svg">
<g clip-path="url(#clip0_8_2583)">
<path d="M33.1 23.375C33.1 21.7766 34.3647 20.5 35.9 20.5H55.7C57.2353 20.5 58.5 21.7766 58.5 23.375V52.625C58.5 54.2228 57.2352 55.5 55.7 55.5H41.8463C41.8804 55.3017 41.9 55.0994 41.9 54.875V38.1424C43.2002 37.5243 44.1 36.1783 44.1 34.625V32.375C44.1 30.2462 42.4086 28.5 40.3 28.5H33.1V23.375ZM52.3643 44.7678C52.9865 45.4127 54.0117 45.4131 54.6344 44.769C55.2579 44.1384 55.2575 43.1098 54.6332 42.4797C54.6326 42.4791 54.6321 42.4786 54.6316 42.4781L50.2372 37.9838C50.2366 37.9832 50.2361 37.9827 50.2355 37.9821C49.6129 37.3369 48.5869 37.337 47.9643 37.9822C47.9638 37.9827 47.9633 37.9833 47.9628 37.9838L43.5684 42.4781C43.5679 42.4786 43.5674 42.4791 43.5668 42.4797C42.9425 43.1098 42.9421 44.1385 43.5656 44.7691C44.1883 45.413 45.2134 45.4126 45.8355 44.7679C45.8361 44.7674 45.8366 44.7668 45.8372 44.7662L47.5 43.0656V50.375C47.5 51.2592 48.2083 52 49.1 52C49.9917 52 50.7 51.2592 50.7 50.375V43.0656L52.3628 44.7662C52.3633 44.7667 52.3638 44.7673 52.3643 44.7678ZM15.5 32.375C15.5 32.021 15.7799 31.75 16.1 31.75H40.3C40.6183 31.75 40.9 32.0217 40.9 32.375V34.625C40.9 34.9783 40.6183 35.25 40.3 35.25H16.1C15.7799 35.25 15.5 34.979 15.5 34.625V32.375ZM38.7 53.75C38.7 54.729 37.9302 55.5 37 55.5H19.4C18.4716 55.5 17.7 54.7287 17.7 53.75V38.5H38.7V53.75ZM24.9 42C24.0083 42 23.3 42.7408 23.3 43.625C23.3 44.5092 24.0083 45.25 24.9 45.25H31.5C32.3917 45.25 33.1 44.5092 33.1 43.625C33.1 42.7408 32.3917 42 31.5 42H24.9Z" stroke="#28AECB"/>
</g>
<circle cx="37.5" cy="37.5" r="37" stroke="#28AECB"/>
<defs>
<clipPath id="clip0_8_2583">
<rect width="44" height="36" fill="white" transform="translate(15 20)"/>
</clipPath>
</defs>
</svg>
