<svg width="75" height="75" viewBox="0 0 75 75" fill="none" xmlns="http://www.w3.org/2000/svg">
<circle cx="37.5" cy="37.5" r="37" stroke="#28AECB"/>
<path d="M29.5455 46.0227L32.841 42.7273H36.1365L38.3774 40.4864C40.668 41.2844 43.1616 41.2812 45.4502 40.4774C47.7388 39.6736 49.6868 38.1167 50.9752 36.0615C52.2637 34.0064 52.8164 31.5748 52.5429 29.1646C52.2694 26.7544 51.1858 24.5085 49.4695 22.7943C47.7533 21.0802 45.506 19.9995 43.0954 19.7289C40.6849 19.4584 38.254 20.0142 36.2004 21.3052C34.1469 22.5963 32.5925 24.5462 31.7915 26.8358C30.9905 29.1253 30.9905 31.619 31.7914 33.9086L19.6592 46.0227V52.6136H26.2501L29.5455 49.3182V46.0227Z" stroke="#28AECB" stroke-linecap="round" stroke-linejoin="round"/>
<path d="M44.3753 29.5455C45.2853 29.5455 46.023 28.8077 46.023 27.8977C46.023 26.9877 45.2853 26.25 44.3753 26.25C43.4653 26.25 42.7275 26.9877 42.7275 27.8977C42.7275 28.8077 43.4653 29.5455 44.3753 29.5455Z" stroke="#28AECB" stroke-linecap="round" stroke-linejoin="round"/>
</svg>
