<svg width="75" height="75" viewBox="0 0 75 75" fill="none" xmlns="http://www.w3.org/2000/svg">
<circle cx="37.5" cy="37.5" r="37" stroke="#28AECB"/>
<path d="M22.5737 19.6631H19.6632C19.2221 19.6631 18.799 19.8383 18.4871 20.1502C18.1752 20.4621 18 20.8851 18 21.3262V50.4315C18 50.8726 18.1752 51.2956 18.4871 51.6075C18.799 51.9194 19.2221 52.0947 19.6632 52.0947H42.1158C42.5569 52.0947 42.9799 51.9194 43.2918 51.6075C43.6037 51.2956 43.7789 50.8726 43.7789 50.4315V21.3262C43.7789 20.8851 43.6037 20.4621 43.2918 20.1502C42.9799 19.8383 42.5569 19.6631 42.1158 19.6631H30.8895" stroke="#28AECB" stroke-linecap="round" stroke-linejoin="round"/>
<path d="M20.9102 19.6632L22.086 18.4873C22.3978 18.1754 22.8208 18.0001 23.2619 18H30.0575C30.2781 18 30.4896 18.0876 30.6455 18.2436C30.8015 18.3995 30.8891 18.611 30.8891 18.8316V39.6211L26.7312 35.4632L22.5733 39.6211V19.6632M22.5733 47.5211H39.2049M30.8891 24.2368H39.2049M30.8891 30.0579H39.2049M30.8891 35.8789H39.2049M22.5733 41.7H39.2049" stroke="#28AECB" stroke-linecap="round" stroke-linejoin="round"/>
<circle cx="43.779" cy="46.2742" r="11.7263" fill="#16314E" stroke="#28AECB"/>
<mask id="mask0_8_2561" style="mask-type:alpha" maskUnits="userSpaceOnUse" x="32" y="35" width="24" height="23">
<circle cx="43.779" cy="46.2742" r="10.7263" fill="#16314E" stroke="#28AECB"/>
</mask>
<g mask="url(#mask0_8_2561)">
<path d="M43.7799 47.251C41.5792 47.251 39.7894 45.4635 39.7894 43.2705C39.7894 41.0775 41.5792 39.29 43.7799 39.29C45.9806 39.29 47.7704 41.0775 47.7704 43.2705C47.7704 45.4635 45.9806 47.251 43.7799 47.251ZM52.2609 61.9193L51.4833 62.9506L35.2988 60.603V56.7119C35.2988 53.1468 38.2073 50.2423 41.7841 50.2423H43.7799H45.7757C49.3515 50.2423 52.2609 53.1469 52.2609 56.7119V61.9193Z" stroke="#28AECB"/>
</g>
</svg>
