<svg width="64" height="64" viewBox="0 0 64 64" fill="none" xmlns="http://www.w3.org/2000/svg">
<rect width="64" height="64" fill="#0F1D32"/>
<path d="M46.3162 25.0051C48.6642 24.102 51.0054 23.1928 53.3534 22.2897C54.2041 21.9607 54.2177 20.908 53.3806 20.5611C49.372 18.9044 42.7976 16.8528 34.5287 17.0083C21.904 17.2416 12.9885 22.4631 9.42226 24.8735C9.02073 25.1427 8.89142 25.6152 9.09559 26.0219C10.5316 28.7912 11.9676 31.5544 13.4036 34.3237C13.6418 34.7842 14.2407 34.9996 14.7784 34.8141C17.2012 33.9828 20.3999 33.1334 24.2384 32.7088C26.7565 32.4337 29.0568 32.3978 31.0577 32.4815C31.6158 32.5054 31.6975 33.2052 31.153 33.3308C30.0777 33.5761 28.9207 33.899 27.7093 34.3357C25.3681 35.173 23.4897 36.1778 22.0673 37.069C21.6454 37.3322 21.4957 37.8227 21.7134 38.2353C23.1222 40.9687 24.5378 43.7021 25.9466 46.4415C26.3345 47.1951 27.5596 47.1831 27.9271 46.4235C28.805 44.6112 29.6762 42.7989 30.5541 40.9867C30.663 40.7594 30.8672 40.58 31.119 40.4843C32.7251 39.8802 34.726 39.2701 37.0808 38.8574C40.3748 38.2772 43.2672 38.2772 45.4859 38.4327C45.9555 38.4686 46.3979 38.2294 46.5748 37.8466C47.3643 36.136 48.1538 34.4314 48.9432 32.7208C49.1406 32.2961 48.9637 31.8116 48.5213 31.5664C46.0032 30.1549 42.3553 28.4801 37.6525 27.4275C34.3653 26.6918 31.3095 26.4286 28.6621 26.4166C27.6208 26.4107 27.4575 25.1008 28.4715 24.8974C30.2683 24.5266 32.2828 24.2455 34.481 24.1259C39.0953 23.8806 42.9474 24.4548 45.6288 25.0589C45.8466 25.1068 46.0984 25.0948 46.3162 25.0051Z" fill="#28AECB"/>
</svg>
