<svg width="70" height="70" viewBox="0 0 70 70" fill="none" xmlns="http://www.w3.org/2000/svg">
<circle cx="35" cy="35" r="34.5" stroke="#28AECB"/>
<path d="M30.7053 25.3354C31.1014 25.1154 31.547 25 32 25C32.453 25 32.8986 25.1154 33.2947 25.3354L43.3147 30.9007C43.5224 31.0162 43.6955 31.1852 43.816 31.3901C43.9365 31.595 44 31.8283 44 32.066V43.046C43.9999 43.5216 43.8726 43.9884 43.6314 44.3982C43.3902 44.808 43.0437 45.1458 42.628 45.3767L33.2947 50.5634C32.8986 50.7833 32.453 50.8987 32 50.8987C31.547 50.8987 31.1014 50.7833 30.7053 50.5634L21.372 45.3767C20.9565 45.1459 20.6102 44.8083 20.369 44.3988C20.1277 43.9892 20.0004 43.5227 20 43.0474V32.066C20 31.8283 20.0635 31.595 20.184 31.3901C20.3045 31.1852 20.4776 31.0162 20.6853 30.9007L30.7067 25.3354H30.7053Z" stroke="#28AECB" stroke-linecap="round" stroke-linejoin="round"/>
<path d="M20 31.2812L32 37.9479M32 37.9479L44 31.2812M32 37.9479V51.2812" stroke="#28AECB" stroke-linejoin="round"/>
<path d="M26.0006 34.6159L38.0006 27.9492M24.0006 38.3866L28.0006 40.6159" stroke="#28AECB" stroke-linecap="round" stroke-linejoin="round"/>
<path d="M46.56 24.352C46.56 23.8293 46.6667 23.3547 46.88 22.928C47.0933 22.4907 47.3493 22.1227 47.648 21.824C47.9467 21.5253 48.2453 21.2373 48.544 20.96C48.8427 20.6827 49.0987 20.3787 49.312 20.048C49.5253 19.7067 49.632 19.344 49.632 18.96C49.632 18.3413 49.4187 17.8773 48.992 17.568C48.576 17.248 48.0373 17.088 47.376 17.088C46.064 17.088 45.2533 17.6267 44.944 18.704L44 18.176C44.2453 17.4613 44.672 16.9227 45.28 16.56C45.8987 16.1867 46.5973 16 47.376 16C48.3147 16 49.1093 16.2613 49.76 16.784C50.4213 17.296 50.752 18.0213 50.752 18.96C50.752 19.4187 50.6453 19.8453 50.432 20.24C50.2187 20.6347 49.9627 20.9813 49.664 21.28C49.3653 21.568 49.0667 21.856 48.768 22.144C48.4693 22.432 48.2133 22.768 48 23.152C47.7867 23.5253 47.68 23.9253 47.68 24.352H46.56ZM47.744 27.296C47.5733 27.4667 47.3653 27.552 47.12 27.552C46.8747 27.552 46.6667 27.4667 46.496 27.296C46.3253 27.1253 46.24 26.9173 46.24 26.672C46.24 26.4267 46.3253 26.2187 46.496 26.048C46.6667 25.8773 46.8747 25.792 47.12 25.792C47.3653 25.792 47.5733 25.8773 47.744 26.048C47.9147 26.2187 48 26.4267 48 26.672C48 26.9173 47.9147 27.1253 47.744 27.296Z" fill="#28AECB"/>
</svg>
