<svg width="70" height="70" viewBox="0 0 70 70" fill="none" xmlns="http://www.w3.org/2000/svg">
<circle cx="35" cy="35" r="34.5" stroke="#28AECB"/>
<path d="M28.3333 46.6667C29.2174 46.6667 30.0652 46.3155 30.6904 45.6904C31.3155 45.0652 31.6667 44.2174 31.6667 43.3333C31.6667 42.4493 31.3155 41.6014 30.6904 40.9763C30.0652 40.3512 29.2174 40 28.3333 40C27.4493 40 26.6014 40.3512 25.9763 40.9763C25.3512 41.6014 25 42.4493 25 43.3333C25 44.2174 25.3512 45.0652 25.9763 45.6904C26.6014 46.3155 27.4493 46.6667 28.3333 46.6667V46.6667ZM45 46.6667C45.8841 46.6667 46.7319 46.3155 47.357 45.6904C47.9821 45.0652 48.3333 44.2174 48.3333 43.3333C48.3333 42.4493 47.9821 41.6014 47.357 40.9763C46.7319 40.3512 45.8841 40 45 40C44.1159 40 43.2681 40.3512 42.643 40.9763C42.0179 41.6014 41.6667 42.4493 41.6667 43.3333C41.6667 44.2174 42.0179 45.0652 42.643 45.6904C43.2681 46.3155 44.1159 46.6667 45 46.6667V46.6667Z" stroke="#28AECB" stroke-miterlimit="1.5" stroke-linecap="round" stroke-linejoin="round"/>
<path d="M31.7503 43.3333H40.0003V26C40.0003 25.7348 39.895 25.4804 39.7074 25.2929C39.5199 25.1054 39.2655 25 39.0003 25H16.667M24.417 43.3333H21.0003C20.869 43.3333 20.739 43.3075 20.6176 43.2572C20.4963 43.207 20.3861 43.1333 20.2932 43.0404C20.2004 42.9476 20.1267 42.8373 20.0764 42.716C20.0262 42.5947 20.0003 42.4647 20.0003 42.3333V34.1667" stroke="#28AECB" stroke-linecap="round"/>
<path d="M18.334 30H25.0007" stroke="#28AECB" stroke-linecap="round" stroke-linejoin="round"/>
<path d="M40 30H49.35C49.5433 30 49.7324 30.0561 49.8945 30.1614C50.0566 30.2667 50.1847 30.4167 50.2633 30.5933L53.2467 37.3067C53.3035 37.4341 53.333 37.5721 53.3333 37.7117V42.3333C53.3333 42.4647 53.3075 42.5947 53.2572 42.716C53.207 42.8373 53.1333 42.9476 53.0404 43.0404C52.9476 43.1333 52.8373 43.207 52.716 43.2572C52.5947 43.3075 52.4647 43.3333 52.3333 43.3333H49.1667M40 43.3333H41.6667" stroke="#28AECB" stroke-linecap="round"/>
</svg>
