<svg width="101" height="94" viewBox="0 0 101 94" fill="none" xmlns="http://www.w3.org/2000/svg">
<circle cx="56.5" cy="56.5" r="56" stroke="white"/>
<path d="M64.1214 62.6788V83.5648C64.121 83.9839 64.2032 84.399 64.3633 84.7863C64.5234 85.1736 64.7583 85.5256 65.0545 85.8221C65.3507 86.1186 65.7025 86.3538 66.0896 86.5143C66.4768 86.6748 66.8918 86.7574 67.3109 86.7574H81.7293C82.1487 86.7578 82.564 86.6755 82.9515 86.5152C83.339 86.3549 83.6911 86.1197 83.9877 85.8232C84.2842 85.5267 84.5194 85.1746 84.6797 84.787C84.8399 84.3995 84.9222 83.9842 84.9218 83.5648V57.5261H89.1052C90.0879 57.5257 91.0468 57.2239 91.8527 56.6615C92.6586 56.099 93.2726 55.303 93.6119 54.3807C93.9512 53.4584 93.9995 52.4543 93.7503 51.5037C93.5011 50.5531 92.9664 49.7018 92.2182 49.0646L59.5038 21.2063C58.4407 20.3011 57.0899 19.804 55.6936 19.804C54.2972 19.804 52.9465 20.3011 51.8833 21.2063L19.169 49.0646C18.4191 49.701 17.8828 50.5524 17.6326 51.5035C17.3823 52.4547 17.4303 53.4597 17.7698 54.3827C18.1094 55.3057 18.7243 56.1022 19.5313 56.6644C20.3383 57.2266 21.2985 57.5274 22.282 57.5261H26.4653V83.5679C26.4661 84.4141 26.8028 85.2253 27.4015 85.8234C28.0001 86.4214 28.8117 86.7574 29.6579 86.7574H44.0732C44.9191 86.7574 45.7304 86.4213 46.3285 85.8232C46.9267 85.2251 47.2627 84.4138 47.2627 83.5679V62.6818L64.1214 62.6788Z" stroke="white" stroke-linecap="round" stroke-linejoin="round"/>
</svg>
