<svg width="100" height="94" viewBox="0 0 100 94" fill="none" xmlns="http://www.w3.org/2000/svg">
<path d="M39.9849 64.3226V42.8564C39.9849 38.2457 45.2002 33.0303 55.631 33.0303C66.0618 33.0303 71.2772 38.2457 71.2772 42.8564V64.3226" stroke="#28AECB" stroke-linecap="round" stroke-linejoin="round"/>
<path d="M35.769 74.753C35.2168 74.753 34.769 74.3053 34.769 73.753V65.3223C34.769 64.77 35.2168 64.3223 35.769 64.3223H75.4921C76.0444 64.3223 76.4921 64.77 76.4921 65.3223V73.753C76.4921 74.3053 76.0444 74.753 75.4921 74.753H35.769Z" stroke="#28AECB" stroke-linecap="round" stroke-linejoin="round"/>
<path d="M48.6768 22.5996H62.5844" stroke="#28AECB" stroke-linecap="round" stroke-linejoin="round"/>
<path d="M27.8154 43.4609V62.3225C27.8154 63.427 28.7109 64.3225 29.8154 64.3225H81.4462C82.5508 64.3225 83.4462 63.427 83.4462 62.3225V43.4609" stroke="#28AECB" stroke-linecap="round" stroke-linejoin="round"/>
<path d="M43.4614 90.3994H67.7999" stroke="#28AECB" stroke-linecap="round" stroke-linejoin="round"/>
<path d="M55.6309 74.7539V90.4001" stroke="#28AECB" stroke-linecap="round" stroke-linejoin="round"/>
<path d="M55.6309 22.5996V33.0304" stroke="#28AECB" stroke-linecap="round" stroke-linejoin="round"/>
<circle cx="56.5" cy="56.5" r="56" stroke="#28AECB"/>
</svg>
