<svg width="101" height="94" viewBox="0 0 101 94" fill="none" xmlns="http://www.w3.org/2000/svg">
<circle cx="56.5" cy="56.5" r="56" stroke="#28AECB"/>
<path d="M54.0893 33.0151C54.8268 32.6055 55.6564 32.3906 56.4999 32.3906C57.3434 32.3906 58.1731 32.6055 58.9105 33.0151L77.5671 43.3773C77.9538 43.5924 78.2761 43.907 78.5005 44.2885C78.7248 44.67 78.8431 45.1045 78.8431 45.5471V65.9911C78.8429 66.8765 78.6059 67.7458 78.1568 68.5088C77.7076 69.2718 77.0626 69.9008 76.2885 70.3307L58.9105 79.9879C58.1731 80.3974 57.3434 80.6123 56.4999 80.6123C55.6564 80.6123 54.8268 80.3974 54.0893 79.9879L36.7113 70.3307C35.9376 69.901 35.2928 69.2724 34.8437 68.5098C34.3946 67.7473 34.1574 66.8786 34.1567 65.9936V45.5471C34.1567 45.1045 34.275 44.67 34.4994 44.2885C34.7237 43.907 35.046 43.5924 35.4328 43.3773L54.0918 33.0151H54.0893Z" stroke="#28AECB" stroke-linecap="round" stroke-linejoin="round"/>
<path d="M34.1567 44.0869L56.4999 56.4998M56.4999 56.4998L78.8431 44.0869M56.4999 56.4998V81.3255" stroke="#28AECB" stroke-linejoin="round"/>
<path d="M45.3284 50.2937L67.6715 37.8809M41.6045 57.3145L49.0522 61.4653" stroke="#28AECB" stroke-linecap="round" stroke-linejoin="round"/>
</svg>
