<svg width="101" height="94" viewBox="0 0 101 94" fill="none" xmlns="http://www.w3.org/2000/svg">
<circle cx="56.5" cy="56.5" r="56" stroke="white"/>
<path d="M64.1214 62.6785V83.5646C64.121 83.9837 64.2032 84.3988 64.3633 84.7861C64.5235 85.1734 64.7583 85.5254 65.0545 85.8219C65.3507 86.1184 65.7025 86.3536 66.0897 86.5141C66.4768 86.6745 66.8918 86.7571 67.3109 86.7571H81.7293C82.1487 86.7575 82.564 86.6752 82.9516 86.5149C83.3391 86.3546 83.6912 86.1195 83.9877 85.823C84.2842 85.5264 84.5194 85.1743 84.6797 84.7868C84.84 84.3993 84.9223 83.984 84.9219 83.5646V57.5258H89.1052C90.0879 57.5254 91.0469 57.2236 91.8527 56.6612C92.6586 56.0988 93.2726 55.3028 93.6119 54.3805C93.9512 53.4582 93.9995 52.454 93.7503 51.5034C93.5011 50.5529 92.9664 49.7016 92.2183 49.0644L59.5039 21.2061C58.4407 20.3008 57.09 19.8037 55.6936 19.8037C54.2973 19.8037 52.9465 20.3008 51.8834 21.2061L19.169 49.0644C18.4191 49.7008 17.8828 50.5521 17.6326 51.5033C17.3824 52.4544 17.4303 53.4595 17.7699 54.3825C18.1095 55.3055 18.7243 56.102 19.5313 56.6642C20.3383 57.2263 21.2985 57.5271 22.282 57.5258H26.4654V83.5676C26.4662 84.4138 26.8029 85.2251 27.4015 85.8231C28.0001 86.4212 28.8117 86.7571 29.6579 86.7571H44.0733C44.9192 86.7571 45.7304 86.4211 46.3286 85.823C46.9267 85.2248 47.2627 84.4135 47.2627 83.5676V62.6816L64.1214 62.6785Z" stroke="white" stroke-linecap="round" stroke-linejoin="round"/>
</svg>
