<svg width="101" height="94" viewBox="0 0 101 94" fill="none" xmlns="http://www.w3.org/2000/svg">
<circle cx="56.5" cy="56.5" r="56" stroke="#28AECB"/>
<path d="M44.5151 69.3407L49.4802 64.3755H54.4454L57.8217 60.9992C61.2729 62.2016 65.03 62.1968 68.4781 60.9857C71.9263 59.7746 74.8612 57.4289 76.8025 54.3325C78.7438 51.2361 79.5766 47.5724 79.1644 43.9411C78.7523 40.3097 77.1197 36.9259 74.5339 34.3433C71.948 31.7606 68.5621 30.1323 64.9303 29.7247C61.2984 29.3171 57.6358 30.1545 54.5418 32.0996C51.4478 34.0448 49.1058 36.9827 47.899 40.4323C46.6922 43.882 46.6922 47.6391 47.8988 51.0888L29.6196 69.3407V79.271H39.5499L44.5151 74.3058V69.3407Z" stroke="#28AECB" stroke-linecap="round" stroke-linejoin="round"/>
<path d="M66.8581 44.515C68.2292 44.515 69.3406 43.4035 69.3406 42.0324C69.3406 40.6613 68.2292 39.5498 66.8581 39.5498C65.487 39.5498 64.3755 40.6613 64.3755 42.0324C64.3755 43.4035 65.487 44.515 66.8581 44.515Z" stroke="#28AECB" stroke-linecap="round" stroke-linejoin="round"/>
</svg>
