<svg width="100" height="94" viewBox="0 0 100 94" fill="none" xmlns="http://www.w3.org/2000/svg">
<circle cx="56.5" cy="56.5" r="56" stroke="#28AECB"/>
<path d="M53.5038 77.3023L50.5076 65.3175L44.5151 56.3288V38.3516" stroke="#28AECB" stroke-linecap="round" stroke-linejoin="round"/>
<path d="M35.5265 56.3288L32.5303 47.3402L44.5151 38.3516L53.5038 44.344L62.4924 45.8421" stroke="#28AECB" stroke-linecap="round" stroke-linejoin="round"/>
<path d="M44.5153 34.1565C46.17 34.1565 47.5115 32.815 47.5115 31.1603C47.5115 29.5055 46.17 28.1641 44.5153 28.1641C42.8605 28.1641 41.519 29.5055 41.519 31.1603C41.519 32.815 42.8605 34.1565 44.5153 34.1565Z" stroke="#28AECB" stroke-linecap="round" stroke-linejoin="round"/>
<path d="M41.5188 65.3171L35.5264 77.302M68.4847 77.302V51.8342C68.4847 50.6422 68.9582 49.499 69.8011 48.6562C70.6439 47.8134 71.7871 47.3398 72.979 47.3398C74.171 47.3398 75.3141 47.8134 76.157 48.6562C76.9998 49.499 77.4733 50.6422 77.4733 51.8342V53.3323" stroke="#28AECB" stroke-linecap="round" stroke-linejoin="round"/>
</svg>
