<svg width="70" height="70" viewBox="0 0 70 70" fill="none" xmlns="http://www.w3.org/2000/svg">
<circle cx="35" cy="35" r="34.5" stroke="#28AECB"/>
<path d="M34.3383 20.7335L34.3388 20.7331C34.4198 20.663 34.5199 20.6042 34.6348 20.563C34.7497 20.5218 34.875 20.5 35.0028 20.5C35.1306 20.5 35.2559 20.5218 35.3708 20.563C35.4857 20.6041 35.5857 20.6629 35.6667 20.733C39.2236 23.8127 43.1853 25.3353 47.6 25.3353C47.8605 25.3353 48.0982 25.4252 48.2633 25.5677C48.426 25.7081 48.5 25.8815 48.5 26.0435V33.2956C48.5 37.0796 47.3855 40.2256 45.2045 42.7402C43.0171 45.2624 39.7236 47.1872 35.3043 48.4574L35.304 48.4575C35.1073 48.5142 34.8927 48.5142 34.696 48.4575L34.6958 48.4574C30.2778 47.1872 26.9843 45.2624 24.7965 42.7402C22.6152 40.2255 21.5 37.0795 21.5 33.2956V26.0435C21.5 25.8815 21.574 25.7081 21.7367 25.5677C21.9018 25.4252 22.1395 25.3353 22.4 25.3353C26.8122 25.3353 30.7735 23.8101 34.3383 20.7335Z" stroke="#28AECB"/>
<path d="M32 30V34.5V39" stroke="#28AECB" stroke-linecap="round"/>
<path d="M35 30V34.5V39" stroke="#28AECB" stroke-linecap="round"/>
<path d="M38 30V34.5V39" stroke="#28AECB" stroke-linecap="round"/>
<path d="M30 28L35 28L40 28" stroke="#28AECB" stroke-linecap="round"/>
<path d="M30 41L35 41L40 41" stroke="#28AECB" stroke-linecap="round"/>
</svg>
