<svg width="70" height="70" viewBox="0 0 70 70" fill="none" xmlns="http://www.w3.org/2000/svg">
<path d="M43.1628 36.378L43.163 36.3778C43.6679 35.9735 44.2659 35.7022 44.9026 35.5885C45.5392 35.4747 46.1942 35.5223 46.8078 35.7268L48.2121 36.1949L39.807 45.8023C39.807 45.8024 39.8069 45.8024 39.8069 45.8024C39.4431 46.218 38.9947 46.551 38.4917 46.7791C37.9887 47.0072 37.4427 47.1251 36.8904 47.125H36.8903H22.8334C22.1925 47.125 21.5778 46.8704 21.1246 46.4172C20.6714 45.964 20.4167 45.3493 20.4167 44.7083V35.9583C20.4167 35.7042 20.5177 35.4604 20.6974 35.2807C20.8772 35.101 21.1209 35 21.3751 35H32.9397H32.94C33.3376 34.9997 33.729 35.0979 34.0794 35.2856C34.4299 35.4734 34.7284 35.7449 34.9484 36.0761L34.9488 36.0767L36.2436 38.0189C36.2437 38.019 36.2437 38.0191 36.2438 38.0192C36.2666 38.0536 36.2798 38.0936 36.2817 38.1349C36.2837 38.1763 36.2744 38.2175 36.2549 38.254C36.2353 38.2905 36.2062 38.3211 36.1706 38.3424C36.1351 38.3637 36.0944 38.375 36.0529 38.375H30.1251H29.6251V38.875V40.3333V40.8333H30.1251H37.4167H37.5921L37.729 40.7238L43.1628 36.378ZM44.7257 27.429L44.7256 27.4289L44.7174 27.4378L38.8751 33.763L33.0328 27.4364L33.033 27.4363L33.024 27.4271C32.4554 26.8421 32.1009 26.0272 32.1009 25.1244C32.1009 24.2221 32.455 23.4096 33.0248 22.8209L33.0261 22.8195C33.3124 22.5213 33.656 22.284 34.0361 22.1217C34.4156 21.9597 34.8239 21.8758 35.2365 21.875L35.2433 21.8752C35.2513 21.8754 35.2657 21.876 35.2862 21.8774C35.3271 21.8801 35.3922 21.886 35.4778 21.8985C35.6491 21.9234 35.9023 21.9749 36.2106 22.0807C36.8252 22.2916 37.6648 22.7206 38.5161 23.5985L38.8751 23.9686L39.234 23.5985C40.0853 22.7206 40.925 22.2916 41.5395 22.0807C41.8478 21.9749 42.1011 21.9234 42.2724 21.8985C42.358 21.886 42.423 21.8801 42.464 21.8774C42.4845 21.876 42.4989 21.8754 42.5069 21.8752L42.5127 21.875L42.5119 21.875L42.5116 21.875C42.5123 21.875 42.513 21.875 42.5136 21.875C42.9263 21.8757 43.3346 21.9597 43.7141 22.1219C44.0943 22.2844 44.4376 22.522 44.7236 22.8205L44.7257 22.8227C45.295 23.4096 45.6492 24.2233 45.6492 25.1258C45.6492 26.0284 45.295 26.842 44.7257 27.429Z" stroke="#28AECB"/>
<circle cx="35" cy="35" r="34.5" stroke="#28AECB"/>
</svg>
