<svg width="70" height="70" viewBox="0 0 70 70" fill="none" xmlns="http://www.w3.org/2000/svg">
<circle cx="35" cy="35" r="34.5" stroke="#28AECB"/>
<path d="M22.1307 34.9916L22.1307 34.9916L22.126 34.9869C21.6708 34.5438 21.4167 33.9303 21.4167 33.2889V22.8327C21.4167 21.5047 22.5054 20.416 23.8334 20.416H34.2897C34.9317 20.416 35.5477 20.6708 35.9924 21.1154L48.8694 33.9925C49.8279 34.9509 49.8246 36.4719 48.884 37.4125L38.4278 47.8687C37.4855 48.8109 35.95 48.8109 35.0078 47.8687L22.1307 34.9916ZM24.7917 26.4785C24.7917 27.9651 25.9927 29.166 27.4792 29.166C28.9658 29.166 30.1667 27.9651 30.1667 26.4785C30.1667 24.992 28.9658 23.791 27.4792 23.791C25.9927 23.791 24.7917 24.992 24.7917 26.4785Z" stroke="#28AECB"/>
</svg>
