<svg width="70" height="70" viewBox="0 0 70 70" fill="none" xmlns="http://www.w3.org/2000/svg">
<circle cx="35" cy="35" r="34.5" stroke="#28AECB"/>
<path d="M36.6464 46.6464C36.4512 46.8417 36.4512 47.1583 36.6464 47.3536L39.8284 50.5355C40.0237 50.7308 40.3403 50.7308 40.5355 50.5355C40.7308 50.3403 40.7308 50.0237 40.5355 49.8284L37.7071 47L40.5355 44.1716C40.7308 43.9763 40.7308 43.6597 40.5355 43.4645C40.3403 43.2692 40.0237 43.2692 39.8284 43.4645L36.6464 46.6464ZM47.5 34.5C47.5 41.1894 42.7408 46.5 37 46.5V47.5C43.4094 47.5 48.5 41.6177 48.5 34.5H47.5ZM37 22.5C42.7408 22.5 47.5 27.8106 47.5 34.5H48.5C48.5 27.3823 43.4094 21.5 37 21.5V22.5Z" fill="#28AECB"/>
<path d="M33.3536 21.6464C33.5488 21.8417 33.5488 22.1583 33.3536 22.3536L30.1716 25.5355C29.9763 25.7308 29.6597 25.7308 29.4645 25.5355C29.2692 25.3403 29.2692 25.0237 29.4645 24.8284L32.2929 22L29.4645 19.1716C29.2692 18.9763 29.2692 18.6597 29.4645 18.4645C29.6597 18.2692 29.9763 18.2692 30.1716 18.4645L33.3536 21.6464ZM22.5 34.5C22.5 41.1894 27.2592 46.5 33 46.5V47.5C26.5906 47.5 21.5 41.6177 21.5 34.5H22.5ZM33 22.5C27.2592 22.5 22.5 27.8106 22.5 34.5H21.5C21.5 27.3823 26.5906 21.5 33 21.5V22.5Z" fill="#28AECB"/>
</svg>
