<svg width="70" height="70" viewBox="0 0 70 70" fill="none" xmlns="http://www.w3.org/2000/svg">
<circle cx="35" cy="35" r="34.5" stroke="#28AECB"/>
<path d="M21.5 23C21.5 22.7212 21.7224 22.5 21.9959 22.5H22.01H22.0242H22.0385H22.0529H22.0673H22.0819H22.0965H22.1112H22.126H22.1409H22.1558H22.1709H22.186H22.2012H22.2166H22.2319H22.2474H22.263H22.2786H22.2943H22.3101H22.326H22.342H22.358H22.3742H22.3904H22.4067H22.423H22.4395H22.456H22.4726H22.4893H22.5061H22.5229H22.5399H22.5569H22.574H22.5911H22.6084H22.6257H22.6431H22.6606H22.6781H22.6957H22.7134H22.7312H22.7491H22.767H22.785H22.8031H22.8212H22.8395H22.8578H22.8762H22.8946H22.9131H22.9317H22.9504H22.9691H22.988H23.0068H23.0258H23.0448H23.0639H23.0831H23.1024H23.1217H23.1411H23.1605H23.18H23.1996H23.2193H23.239H23.2588H23.2787H23.2986H23.3186H23.3387H23.3589H23.3791H23.3993H23.4197H23.4401H23.4606H23.4811H23.5017H23.5224H23.5431H23.5639H23.5848H23.6057H23.6267H23.6478H23.6689H23.6901H23.7114H23.7327H23.754H23.7755H23.797H23.8185H23.8402H23.8618H23.8836H23.9054H23.9273H23.9492H23.9712H23.9932H24.0153H24.0375H24.0597H24.082H24.1044H24.1268H24.1492H24.1717H24.1943H24.2169H24.2396H24.2624H24.2852H24.308H24.331H24.3539H24.3769H24.4H24.4232H24.4464H24.4696H24.4929H24.5162H24.5397H24.5631H24.5866H24.6102H24.6338H24.6575H24.6812H24.705H24.7288H24.7527H24.7766H24.8006H24.8246H24.8487H24.8728H24.897H24.9212H24.9455H24.9698H24.9942H25.0186H25.0431H25.0676H25.0922H25.1168H25.1415H25.1662H25.191H25.2158H25.2406H25.2655H25.2905H25.3154H25.3405H25.3656H25.3907H25.4158H25.4411H25.4663H25.4916H25.517H25.5423H25.5678H25.5932H25.6187H25.6443H25.6699H25.6955H25.7212H25.7469H25.7727H25.7985H25.8243H25.8502H25.8762H25.9021H25.9281H25.9542H25.9802H26.0064H26.0325H26.0587H26.0849H26.1112H26.1375H26.1639H26.1902H26.2167H26.2431H26.2696H26.2961H26.3227H26.3493H26.3759H26.4026H26.4293H26.456H26.4828H26.5096H26.5364H26.5633H26.5902H26.6171H26.6441H26.6711H26.6981H26.7252H26.7522H26.7794H26.8065H26.8337H26.8609H26.8882H26.9154H26.9427H26.9701H26.9974H27.0248H27.0523H27.0797H27.1072H27.1347H27.1622H27.1898H27.2174H27.245H27.2726H27.3003H27.328H27.3557H27.3834H27.4112H27.439H27.4668H27.4946H27.5225H27.5504H27.5783H27.6063H27.6342H27.6622H27.6902H27.7182H27.7463H27.7743H27.8024H27.8306H27.8587H27.8868H27.915H27.9432H27.9714H27.9997H28.0279H28.0562H28.0845H28.1128H28.1411H28.1695H28.1979H28.2263H28.2547H28.2831H28.3115H28.34H28.3684H28.3969H28.4254H28.4539H28.4825H28.511H28.5396H28.5682H28.5968H28.6254H28.654H28.6826H28.7113H28.7399H28.7686H28.7973H28.826H28.8547H28.8834H28.9122H28.9409H28.9697H28.9984H29.0272H29.056H29.0848H29.1136H29.1424H29.1713H29.2001H29.229H29.2578H29.2867H29.3155H29.3444H29.3733H29.4022H29.4311H29.46H29.4889H29.5178H29.5468H29.5757H29.6046H29.6336H29.6625H29.6915H29.7204H29.7494H29.7783H29.8073H29.8363H29.8653H29.8942H29.9232H29.9522H29.9812H30.0102H30.0392H30.0681H30.0971H30.1261H30.1551H30.1841H30.2131H30.2421H30.2711H30.3001H30.3291H30.358H30.387H30.416H30.445H30.474H30.503H30.5319H30.5609H30.5899H30.6188H30.6478H30.6767H30.7057H30.7347H30.7636H30.7925H30.8215H30.8504H30.8793H30.9082H30.9371H30.966H30.9949H31.0238H31.0527H31.0816H31.1104H31.1393H31.1682H31.197H31.2258H31.2546H31.2835H31.3123H31.3411H31.3698H31.3986H31.4274H31.4561H31.4849H31.5136H31.5423H31.571H31.5997H31.6284H31.657H31.6857H31.7143H31.743H31.7716H31.8002H31.8288H31.8573H31.8859H31.9144H31.943H31.9715H32H32.0284H32.0569H32.0853H32.1138H32.1422H32.1706H32.1989H32.2273H32.2556H32.284H32.3123H32.3405H32.3688H32.3971H32.4253H32.4535H32.4817H32.5098H32.538H32.5661H32.5942H32.6223H32.6503H32.6784H32.7064H32.7344H32.7623H32.7903H32.8182H32.8461H32.874H32.9018H32.9297H32.9575H32.9852H33.013H33.0407H33.0684H33.0961H33.1237H33.1514H33.179H33.2065H33.2341H33.2616H33.2891H33.3165H33.344H33.3714H33.3987H33.4261H33.4534H33.4807H33.5079H33.5352H33.5624H33.5895H33.6167H33.6438H33.6708H33.6979H33.7249H33.7519H33.7788H33.8057H33.8326H33.8595H33.8863H33.9131H33.9398H33.9665H33.9932H34.0198H34.0464H34.073H34.0996H34.1261H34.1525H34.179H34.2053H34.2317H34.258H34.2843H34.3106H34.3368H34.3629H34.3891H34.4152H34.4412H34.4672H34.4932H34.5191H34.545H34.5709H34.5967H34.6225H34.6482H34.6739H34.6996H34.7252H34.7508H34.7763H34.8018H34.8272H34.8526H34.878H34.9033H34.9286H34.9538H34.9792H35.0045H35.0299H35.0554H35.0808H35.1064H35.1319H35.1576H35.1832H35.2089H35.2346H35.2604H35.2862H35.3121H35.338H35.3639H35.3899H35.4159H35.442H35.4681H35.4942H35.5204H35.5466H35.5728H35.5991H35.6254H35.6518H35.6782H35.7046H35.7311H35.7576H35.7841H35.8107H35.8373H35.864H35.8906H35.9173H35.9441H35.9709H35.9977H36.0245H36.0514H36.0783H36.1053H36.1322H36.1593H36.1863H36.2134H36.2405H36.2676H36.2948H36.322H36.3492H36.3765H36.4037H36.4311H36.4584H36.4858H36.5132H36.5406H36.5681H36.5956H36.6231H36.6506H36.6782H36.7058H36.7334H36.761H36.7887H36.8164H36.8441H36.8719H36.8997H36.9275H36.9553H36.9832H37.011H37.0389H37.0669H37.0948H37.1228H37.1508H37.1788H37.2068H37.2349H37.2629H37.291H37.3192H37.3473H37.3755H37.4037H37.4319H37.4601H37.4883H37.5166H37.5449H37.5732H37.6015H37.6298H37.6582H37.6866H37.715H37.7434H37.7718H37.8002H37.8287H37.8572H37.8857H37.9142H37.9427H37.9713H37.9998H38.0284H38.057H38.0856H38.1142H38.1428H38.1714H38.2001H38.2288H38.2574H38.2861H38.3148H38.3436H38.3723H38.401H38.4298H38.4585H38.4873H38.5161H38.5449H38.5737H38.6025H38.6313H38.6602H38.689H38.7178H38.7467H38.7756H38.8044H38.8333H38.8622H38.8911H38.92H38.9489H38.9778H39.0068H39.0357H39.0646H39.0935H39.1225H39.1514H39.1804H39.2094H39.2383H39.2673H39.2962H39.3252H39.3542H39.3832H39.4121H39.4411H39.4701H39.4991H39.5281H39.5571H39.5861H39.6151H39.6441H39.673H39.702H39.731H39.76H39.789H39.818H39.847H39.876H39.9049H39.9339H39.9629H39.9919H40.0209H40.0498H40.0788H40.1078H40.1367H40.1657H40.1946H40.2236H40.2525H40.2815H40.3104H40.3393H40.3682H40.3971H40.426H40.4549H40.4838H40.5127H40.5416H40.5705H40.5993H40.6282H40.657H40.6859H40.7147H40.7435H40.7723H40.8011H40.8299H40.8587H40.8875H40.9162H40.945H40.9737H41.0024H41.0311H41.0598H41.0885H41.1172H41.1459H41.1745H41.2031H41.2318H41.2604H41.289H41.3175H41.3461H41.3747H41.4032H41.4317H41.4602H41.4887H41.5172H41.5456H41.5741H41.6025H41.6309H41.6593H41.6876H41.716H41.7443H41.7726H41.8009H41.8292H41.8575H41.8857H41.9139H41.9421H41.9703H41.9985H42.0266H42.0547H42.0828H42.1109H42.1389H42.1669H42.195H42.2229H42.2509H42.2788H42.3067H42.3346H42.3625H42.3903H42.4182H42.4459H42.4737H42.5015H42.5292H42.5569H42.5845H42.6122H42.6398H42.6674H42.6949H42.7225H42.75H42.7774H42.8049H42.8323H42.8597H42.8871H42.9144H42.9417H42.969H42.9962H43.0234H43.0506H43.0778H43.1049H43.132H43.159H43.1861H43.2131H43.24H43.267H43.2939H43.3207H43.3476H43.3744H43.4011H43.4279H43.4546H43.4812H43.5079H43.5345H43.561H43.5876H43.614H43.6405H43.6669H43.6933H43.7196H43.7459H43.7722H43.7984H43.8246H43.8508H43.8769H43.903H43.929H43.955H43.981H44.0069H44.0328H44.0586H44.0844H44.1102H44.1359H44.1616H44.1872H44.2128H44.2384H44.2639H44.2894H44.3148H44.3402H44.3655H44.3908H44.4161H44.4413H44.4665H44.4916H44.5167H44.5417H44.5667H44.5916H44.6165H44.6414H44.6662H44.6909H44.7156H44.7403H44.7649H44.7895H44.814H44.8385H44.8629H44.8873H44.9116H44.9359H44.9601H44.9843H45.0084H45.0325H45.0566H45.0805H45.1045H45.1283H45.1522H45.1759H45.1997H45.2233H45.247H45.2705H45.294H45.3175H45.3409H45.3642H45.3875H45.4108H45.434H45.4571H45.4802H45.5032H45.5262H45.5491H45.572H45.5948H45.6175H45.6402H45.6628H45.6854H45.7079H45.7304H45.7528H45.7751H45.7974H45.8196H45.8418H45.8639H45.886H45.9079H45.9299H45.9517H45.9735H45.9953H46.017H46.0386H46.0602H46.0817H46.1031H46.1245H46.1458H46.167H46.1882H46.2094H46.2304H46.2514H46.2723H46.2932H46.314H46.3347H46.3554H46.376H46.3966H46.417H46.4375H46.4578H46.4781H46.4983H46.5184H46.5385H46.5585H46.5784H46.5983H46.6181H46.6378H46.6575H46.6771H46.6966H46.7161H46.7355H46.7548H46.774H46.7932H46.8123H46.8313H46.8503H46.8692H46.888H46.9067H46.9254H46.944H46.9625H46.981H46.9994H47.0177H47.0359H47.0541H47.0721H47.0901H47.1081H47.1259H47.1437H47.1614H47.179H47.1966H47.2141H47.2315H47.2488H47.266H47.2832H47.3003H47.3173H47.3342H47.3511H47.3678H47.3845H47.4011H47.4177H47.4341H47.4505H47.4668H47.483H47.4991H47.5152H47.5311H47.547H47.5628H47.5785H47.5942H47.6097H47.6252H47.6406H47.6559H47.6711H47.6863H47.7013H47.7163H47.7312H47.746H47.7607H47.7753H47.7898H47.8043H47.8187H47.8329H47.8471H47.8612C48.1347 22.5 48.3571 22.7212 48.3571 23V46C48.3571 46.2761 48.1333 46.5 47.8571 46.5H34.9286H22C21.7239 46.5 21.5 46.2761 21.5 46V23Z" stroke="#28AECB"/>
<circle cx="38.8572" cy="34.1434" r="0.928571" stroke="#28AECB"/>
<circle cx="31" cy="34.1434" r="0.928571" stroke="#28AECB"/>
</svg>
