<svg width="70" height="70" viewBox="0 0 70 70" fill="none" xmlns="http://www.w3.org/2000/svg">
<g clip-path="url(#clip0_8_3360)">
<path d="M26.009 37.2155L26.085 37.2141H43.915L43.991 37.2155C44.1885 37.219 44.3946 37.3116 44.6125 37.5333C44.8338 37.7585 45.0393 38.0911 45.2149 38.4976C45.5669 39.3125 45.7499 40.3095 45.7499 41C45.7499 41.6988 45.5638 42.9596 45.2 44.0414C45.0181 44.5824 44.8026 45.0449 44.567 45.3637C44.3268 45.6888 44.1311 45.7807 43.9943 45.7846L26.0057 45.7856C25.869 45.7817 25.6733 45.6898 25.433 45.3646C25.1974 45.0457 24.9819 44.583 24.8 44.0419C24.4362 42.9599 24.2501 41.6988 24.2501 40.9999C24.2501 40.3093 24.4331 39.3124 24.7851 38.4975C24.9606 38.0911 25.1662 37.7585 25.3875 37.5333C25.6054 37.3116 25.8115 37.219 26.009 37.2155ZM49.5838 46.4974C48.9576 46.4781 48.554 46.3102 48.3039 46.0609C48.049 45.8068 47.8749 45.3897 47.8749 44.7143V32.1431C47.8749 31.4678 48.049 31.0505 48.3039 30.7963C48.5558 30.5451 48.9632 30.3766 49.5969 30.3592L49.6129 30.3596C50.5901 30.383 51.2767 30.7169 51.7364 31.3279C52.2133 31.9619 52.5 32.9654 52.5 34.4286V40.1429C52.5 42.3877 52.2065 43.9891 51.689 45.021C51.1889 46.0184 50.4956 46.4649 49.607 46.4966L49.5838 46.4974ZM21.696 46.061C21.4462 46.31 21.0434 46.4778 20.4183 46.4974L20.3929 46.4965C19.5043 46.4647 18.8111 46.0182 18.311 45.0209C17.7935 43.989 17.5 42.3877 17.5 40.1429V34.4286C17.5 32.9654 17.7867 31.9617 18.2636 31.3277C18.7232 30.7167 19.4098 30.3829 20.3869 30.3596L20.4058 30.3591C21.038 30.3769 21.4445 30.5454 21.696 30.7961C21.9509 31.0503 22.125 31.4675 22.125 32.1429V44.7143C22.125 45.3896 21.9509 45.8068 21.696 46.061ZM26.009 23.5029L26.1716 23.5H43.8281L43.991 23.5029C45.7439 23.5343 47.006 23.9928 47.832 24.8164C48.5829 25.5652 49.0389 26.6813 49.114 28.2445C48.1589 28.3362 47.3519 28.6486 46.7608 29.2379C46.067 29.9297 45.7499 30.9239 45.7499 32.1431C45.7499 33.1973 45.4775 33.8968 45.0329 34.3401C44.5864 34.7853 43.8869 35.0515 42.8662 35.0698L42.7748 35.0714H27.2331L27.1341 35.0697C26.1132 35.0513 25.4137 34.7851 24.9672 34.3399C24.5225 33.8966 24.2501 33.1972 24.2501 32.143C24.2501 30.9238 23.933 29.9296 23.2392 29.2378C22.6481 28.6484 21.8411 28.336 20.886 28.2443C20.9611 26.6812 21.4172 25.5653 22.1681 24.8165C22.9942 23.9929 24.2562 23.5344 26.009 23.5029Z" stroke="#28AECB"/>
</g>
<circle cx="35" cy="35" r="34.5" stroke="#28AECB"/>
<defs>
<clipPath id="clip0_8_3360">
<rect width="36" height="24" fill="white" transform="translate(17 23)"/>
</clipPath>
</defs>
</svg>
