<svg width="375" height="294" viewBox="0 0 375 294" fill="none" xmlns="http://www.w3.org/2000/svg">
<path fill-rule="evenodd" clip-rule="evenodd" d="M333.774 72.2133H269.668C267.088 72.2133 264.997 74.3015 264.997 76.8775V129.63C264.997 132.206 267.088 134.294 269.668 134.294H333.774C336.354 134.294 338.445 132.206 338.445 129.63V76.8775C338.445 74.3015 336.354 72.2133 333.774 72.2133ZM269.668 72.0525C266.999 72.0525 264.836 74.2127 264.836 76.8775V129.63C264.836 132.295 266.999 134.455 269.668 134.455H333.774C336.443 134.455 338.606 132.295 338.606 129.63V103.254V76.8775C338.606 74.2127 336.443 72.0525 333.774 72.0525H269.668Z" fill="url(#paint0_radial_8_6704)"/>
<path fill-rule="evenodd" clip-rule="evenodd" d="M447.168 72.2133H353.103C350.523 72.2133 348.432 74.3015 348.432 76.8775V129.63C348.432 132.206 350.523 134.294 353.103 134.294H447.168C449.748 134.294 451.839 132.206 451.839 129.63V76.8775C451.839 74.3015 449.748 72.2133 447.168 72.2133ZM353.103 72.0525C350.434 72.0525 348.271 74.2127 348.271 76.8775V129.63C348.271 132.295 350.434 134.455 353.103 134.455H447.168C449.837 134.455 452 132.295 452 129.63V76.8775C452 74.2127 449.837 72.0525 447.168 72.0525H353.103Z" fill="url(#paint1_radial_8_6704)"/>
<path fill-rule="evenodd" clip-rule="evenodd" d="M447.168 0.160832H269.668C267.088 0.160832 264.997 2.24902 264.997 4.82494V57.5777C264.997 60.1536 267.088 62.2418 269.668 62.2418H447.168C449.748 62.2418 451.839 60.1536 451.839 57.5777V4.82494C451.839 2.24903 449.748 0.160832 447.168 0.160832ZM269.668 0C266.999 0 264.836 2.1602 264.836 4.82494V57.5777C264.836 60.2424 266.999 62.4026 269.668 62.4026H447.168C449.837 62.4026 452 60.2424 452 57.5777V4.82494C452 2.1602 449.837 0 447.168 0H269.668Z" fill="url(#paint2_radial_8_6704)"/>
<path fill-rule="evenodd" clip-rule="evenodd" d="M447.168 184.152H269.668C267.088 184.152 264.997 186.24 264.997 188.816V241.569C264.997 244.145 267.088 246.233 269.668 246.233H447.168C449.748 246.233 451.839 244.145 451.839 241.569V188.816C451.839 186.24 449.748 184.152 447.168 184.152ZM269.668 183.991C266.999 183.991 264.836 186.151 264.836 188.816V241.569C264.836 244.234 266.999 246.394 269.668 246.394H447.168C449.837 246.394 452 244.234 452 241.569V188.816C452 186.151 449.837 183.991 447.168 183.991H269.668Z" fill="url(#paint3_radial_8_6704)"/>
<path fill-rule="evenodd" clip-rule="evenodd" d="M210.072 231.758H32.5721C29.9924 231.758 27.9011 233.846 27.9011 236.422V289.175C27.9011 291.751 29.9924 293.839 32.5721 293.839H210.072C212.652 293.839 214.743 291.751 214.743 289.175V236.422C214.743 233.846 212.652 231.758 210.072 231.758ZM32.5721 231.597C29.9034 231.597 27.74 233.758 27.74 236.422V289.175C27.74 291.84 29.9034 294 32.5721 294H210.072C212.741 294 214.904 291.84 214.904 289.175V236.422C214.904 233.758 212.741 231.597 210.072 231.597H32.5721Z" fill="url(#paint4_radial_8_6704)"/>
<path fill-rule="evenodd" clip-rule="evenodd" d="M-27.024 231.758H-88.553C-91.1328 231.758 -93.224 233.846 -93.224 236.422V289.175C-93.224 291.751 -91.1328 293.839 -88.553 293.839H-27.024C-24.4443 293.839 -22.353 291.751 -22.353 289.175V236.422C-22.353 233.846 -24.4443 231.758 -27.024 231.758ZM-88.553 231.597C-91.2217 231.597 -93.3851 233.758 -93.3851 236.422V289.175C-93.3851 291.84 -91.2217 294 -88.553 294H-27.024C-24.3553 294 -22.1919 291.84 -22.1919 289.175V236.422C-22.1919 233.758 -24.3553 231.597 -27.024 231.597H-88.553Z" fill="url(#paint5_radial_8_6704)"/>
<path fill-rule="evenodd" clip-rule="evenodd" d="M-117.224 99.233H-178.753C-181.332 99.233 -183.424 101.321 -183.424 103.897V192.354C-183.424 194.93 -181.332 197.019 -178.753 197.019H-117.224C-114.644 197.019 -112.553 194.93 -112.553 192.354V103.897C-112.553 101.321 -114.644 99.233 -117.224 99.233ZM-178.753 99.0722C-181.421 99.0722 -183.585 101.232 -183.585 103.897V192.354C-183.585 195.019 -181.421 197.179 -178.753 197.179H-117.224C-114.555 197.179 -112.391 195.019 -112.391 192.354V103.897C-112.391 101.232 -114.555 99.0722 -117.224 99.0722H-178.753Z" fill="url(#paint6_radial_8_6704)"/>
<path fill-rule="evenodd" clip-rule="evenodd" d="M-107.881 231.758H-169.41C-171.99 231.758 -174.081 233.846 -174.081 236.422V289.175C-174.081 291.751 -171.99 293.839 -169.41 293.839H-107.881C-105.302 293.839 -103.21 291.751 -103.21 289.175V236.422C-103.21 233.846 -105.302 231.758 -107.881 231.758ZM-169.41 231.597C-172.079 231.597 -174.243 233.758 -174.243 236.422V289.175C-174.243 291.84 -172.079 294 -169.41 294H-107.881C-105.213 294 -103.049 291.84 -103.049 289.175V236.422C-103.049 233.758 -105.213 231.597 -107.881 231.597H-169.41Z" fill="url(#paint7_radial_8_6704)"/>
<path fill-rule="evenodd" clip-rule="evenodd" d="M15.0959 225.008C15.0959 221.498 17.9474 218.653 21.4631 218.655L221.352 218.806C224.864 218.809 227.709 221.653 227.709 225.159V257.33H227.87V225.159C227.87 221.564 224.953 218.648 221.352 218.646L21.4632 218.494C17.8585 218.492 14.9349 221.409 14.9349 225.008V256.848H15.0959V225.008Z" fill="url(#paint8_radial_8_6704)"/>
<path fill-rule="evenodd" clip-rule="evenodd" d="M-221.839 225.008C-221.839 221.498 -218.987 218.653 -215.472 218.655L-15.5832 218.806C-12.0713 218.809 -9.22572 221.653 -9.22572 225.159V257.33H-9.06465V225.159C-9.06465 221.564 -11.9823 218.648 -15.5831 218.646L-215.472 218.494C-219.076 218.492 -222 221.409 -222 225.008V256.848H-221.839V225.008Z" fill="url(#paint9_radial_8_6704)"/>
<path fill-rule="evenodd" clip-rule="evenodd" d="M258.393 171.205C254.879 171.205 252.031 174.049 252.031 177.558V248.485H251.87V177.558C251.87 173.961 254.79 171.044 258.393 171.044H451.839V171.205H258.393Z" fill="url(#paint10_radial_8_6704)"/>
<path fill-rule="evenodd" clip-rule="evenodd" d="M-89.761 190.569C-89.761 194.084 -86.9026 196.931 -83.3825 196.922L220.438 196.15C223.93 196.141 226.762 193.325 226.784 189.839L227.667 55.0459C227.69 51.5212 224.835 48.6515 221.305 48.6515H-168.444V48.4907H221.305C224.924 48.4907 227.852 51.433 227.828 55.047L226.946 189.84C226.922 193.414 224.019 196.302 220.439 196.311L-83.3821 197.083C-86.9913 197.092 -89.9221 194.173 -89.9221 190.569V84.2757C-89.9221 80.7671 -92.7706 77.9229 -96.2844 77.9229H-170.538V77.762H-96.2844C-92.6816 77.762 -89.761 80.6783 -89.761 84.2757V190.569Z" fill="url(#paint11_radial_8_6704)"/>
<path fill-rule="evenodd" clip-rule="evenodd" d="M258.393 147.241C254.879 147.241 252.031 144.397 252.031 140.888V5.14661H251.87V140.888C251.87 144.486 254.79 147.402 258.393 147.402H451.356V147.241H258.393Z" fill="url(#paint12_radial_8_6704)"/>
<path fill-rule="evenodd" clip-rule="evenodd" d="M333.774 72.2133H269.668C267.088 72.2133 264.997 74.3015 264.997 76.8775V129.63C264.997 132.206 267.088 134.294 269.668 134.294H333.774C336.354 134.294 338.445 132.206 338.445 129.63V76.8775C338.445 74.3015 336.354 72.2133 333.774 72.2133ZM269.668 72.0525C266.999 72.0525 264.836 74.2127 264.836 76.8775V129.63C264.836 132.295 266.999 134.455 269.668 134.455H333.774C336.443 134.455 338.606 132.295 338.606 129.63V103.254V76.8775C338.606 74.2127 336.443 72.0525 333.774 72.0525H269.668Z" fill="url(#paint13_radial_8_6704)"/>
<path fill-rule="evenodd" clip-rule="evenodd" d="M447.168 72.2133H353.103C350.523 72.2133 348.432 74.3015 348.432 76.8775V129.63C348.432 132.206 350.523 134.294 353.103 134.294H447.168C449.748 134.294 451.839 132.206 451.839 129.63V76.8775C451.839 74.3015 449.748 72.2133 447.168 72.2133ZM353.103 72.0525C350.434 72.0525 348.271 74.2127 348.271 76.8775V129.63C348.271 132.295 350.434 134.455 353.103 134.455H447.168C449.837 134.455 452 132.295 452 129.63V76.8775C452 74.2127 449.837 72.0525 447.168 72.0525H353.103Z" fill="url(#paint14_radial_8_6704)"/>
<defs>
<radialGradient id="paint0_radial_8_6704" cx="0" cy="0" r="1" gradientUnits="userSpaceOnUse" gradientTransform="translate(142.342 108.4) rotate(98.3393) scale(187.583 430.284)">
<stop stop-color="#38C9E9"/>
<stop offset="1" stop-color="#38C9E9" stop-opacity="0"/>
</radialGradient>
<radialGradient id="paint1_radial_8_6704" cx="0" cy="0" r="1" gradientUnits="userSpaceOnUse" gradientTransform="translate(142.342 108.4) rotate(98.3393) scale(187.583 430.284)">
<stop stop-color="#38C9E9"/>
<stop offset="1" stop-color="#38C9E9" stop-opacity="0"/>
</radialGradient>
<radialGradient id="paint2_radial_8_6704" cx="0" cy="0" r="1" gradientUnits="userSpaceOnUse" gradientTransform="translate(142.342 108.4) rotate(98.3393) scale(187.583 430.284)">
<stop stop-color="#38C9E9"/>
<stop offset="1" stop-color="#38C9E9" stop-opacity="0"/>
</radialGradient>
<radialGradient id="paint3_radial_8_6704" cx="0" cy="0" r="1" gradientUnits="userSpaceOnUse" gradientTransform="translate(142.342 108.4) rotate(98.3393) scale(187.583 430.284)">
<stop stop-color="#38C9E9"/>
<stop offset="1" stop-color="#38C9E9" stop-opacity="0"/>
</radialGradient>
<radialGradient id="paint4_radial_8_6704" cx="0" cy="0" r="1" gradientUnits="userSpaceOnUse" gradientTransform="translate(142.342 108.4) rotate(98.3393) scale(187.583 430.284)">
<stop stop-color="#38C9E9"/>
<stop offset="1" stop-color="#38C9E9" stop-opacity="0"/>
</radialGradient>
<radialGradient id="paint5_radial_8_6704" cx="0" cy="0" r="1" gradientUnits="userSpaceOnUse" gradientTransform="translate(142.342 108.4) rotate(98.3393) scale(187.583 430.284)">
<stop stop-color="#38C9E9"/>
<stop offset="1" stop-color="#38C9E9" stop-opacity="0"/>
</radialGradient>
<radialGradient id="paint6_radial_8_6704" cx="0" cy="0" r="1" gradientUnits="userSpaceOnUse" gradientTransform="translate(142.342 108.4) rotate(98.3393) scale(187.583 430.284)">
<stop stop-color="#38C9E9"/>
<stop offset="1" stop-color="#38C9E9" stop-opacity="0"/>
</radialGradient>
<radialGradient id="paint7_radial_8_6704" cx="0" cy="0" r="1" gradientUnits="userSpaceOnUse" gradientTransform="translate(142.342 108.4) rotate(98.3393) scale(187.583 430.284)">
<stop stop-color="#38C9E9"/>
<stop offset="1" stop-color="#38C9E9" stop-opacity="0"/>
</radialGradient>
<radialGradient id="paint8_radial_8_6704" cx="0" cy="0" r="1" gradientUnits="userSpaceOnUse" gradientTransform="translate(142.342 108.4) rotate(98.3393) scale(187.583 430.284)">
<stop stop-color="#38C9E9"/>
<stop offset="1" stop-color="#38C9E9" stop-opacity="0"/>
</radialGradient>
<radialGradient id="paint9_radial_8_6704" cx="0" cy="0" r="1" gradientUnits="userSpaceOnUse" gradientTransform="translate(142.342 108.4) rotate(98.3393) scale(187.583 430.284)">
<stop stop-color="#38C9E9"/>
<stop offset="1" stop-color="#38C9E9" stop-opacity="0"/>
</radialGradient>
<radialGradient id="paint10_radial_8_6704" cx="0" cy="0" r="1" gradientUnits="userSpaceOnUse" gradientTransform="translate(142.342 108.4) rotate(98.3393) scale(187.583 430.284)">
<stop stop-color="#38C9E9"/>
<stop offset="1" stop-color="#38C9E9" stop-opacity="0"/>
</radialGradient>
<radialGradient id="paint11_radial_8_6704" cx="0" cy="0" r="1" gradientUnits="userSpaceOnUse" gradientTransform="translate(142.342 108.4) rotate(98.3393) scale(187.583 430.284)">
<stop stop-color="#38C9E9"/>
<stop offset="1" stop-color="#38C9E9" stop-opacity="0"/>
</radialGradient>
<radialGradient id="paint12_radial_8_6704" cx="0" cy="0" r="1" gradientUnits="userSpaceOnUse" gradientTransform="translate(142.342 108.4) rotate(98.3393) scale(187.583 430.284)">
<stop stop-color="#38C9E9"/>
<stop offset="1" stop-color="#38C9E9" stop-opacity="0"/>
</radialGradient>
<radialGradient id="paint13_radial_8_6704" cx="0" cy="0" r="1" gradientUnits="userSpaceOnUse" gradientTransform="translate(142.342 108.4) rotate(98.3393) scale(187.583 430.284)">
<stop stop-color="#38C9E9"/>
<stop offset="1" stop-color="#38C9E9" stop-opacity="0"/>
</radialGradient>
<radialGradient id="paint14_radial_8_6704" cx="0" cy="0" r="1" gradientUnits="userSpaceOnUse" gradientTransform="translate(142.342 108.4) rotate(98.3393) scale(187.583 430.284)">
<stop stop-color="#38C9E9"/>
<stop offset="1" stop-color="#38C9E9" stop-opacity="0"/>
</radialGradient>
</defs>
</svg>
