<svg width="1805" height="914" viewBox="0 0 1805 914" fill="none" xmlns="http://www.w3.org/2000/svg">
<path fill-rule="evenodd" clip-rule="evenodd" d="M1437.25 224.5H1238.25C1230.24 224.5 1223.75 230.992 1223.75 239V403C1223.75 411.008 1230.24 417.5 1238.25 417.5H1437.25C1445.26 417.5 1451.75 411.008 1451.75 403V239C1451.75 230.992 1445.26 224.5 1437.25 224.5ZM1238.25 224C1229.97 224 1223.25 230.716 1223.25 239V403C1223.25 411.284 1229.97 418 1238.25 418H1437.25C1445.53 418 1452.25 411.284 1452.25 403V321V239C1452.25 230.716 1445.53 224 1437.25 224H1238.25Z" fill="url(#paint0_radial_8_2653)"/>
<path fill-rule="evenodd" clip-rule="evenodd" d="M1789.25 224.5H1497.25C1489.24 224.5 1482.75 230.992 1482.75 239V403C1482.75 411.008 1489.24 417.5 1497.25 417.5H1789.25C1797.26 417.5 1803.75 411.008 1803.75 403V239C1803.75 230.992 1797.26 224.5 1789.25 224.5ZM1497.25 224C1488.97 224 1482.25 230.716 1482.25 239V403C1482.25 411.284 1488.97 418 1497.25 418H1789.25C1797.53 418 1804.25 411.284 1804.25 403V239C1804.25 230.716 1797.53 224 1789.25 224H1497.25Z" fill="url(#paint1_radial_8_2653)"/>
<path fill-rule="evenodd" clip-rule="evenodd" d="M1789.25 0.5H1238.25C1230.24 0.5 1223.75 6.99187 1223.75 15V179C1223.75 187.008 1230.24 193.5 1238.25 193.5H1789.25C1797.26 193.5 1803.75 187.008 1803.75 179V15C1803.75 6.99187 1797.26 0.5 1789.25 0.5ZM1238.25 0C1229.97 0 1223.25 6.71572 1223.25 15V179C1223.25 187.284 1229.97 194 1238.25 194H1789.25C1797.53 194 1804.25 187.284 1804.25 179V15C1804.25 6.71573 1797.53 0 1789.25 0H1238.25Z" fill="url(#paint2_radial_8_2653)"/>
<path fill-rule="evenodd" clip-rule="evenodd" d="M1789.25 572.5H1238.25C1230.24 572.5 1223.75 578.992 1223.75 587V751C1223.75 759.008 1230.24 765.5 1238.25 765.5H1789.25C1797.26 765.5 1803.75 759.008 1803.75 751V587C1803.75 578.992 1797.26 572.5 1789.25 572.5ZM1238.25 572C1229.97 572 1223.25 578.716 1223.25 587V751C1223.25 759.284 1229.97 766 1238.25 766H1789.25C1797.53 766 1804.25 759.284 1804.25 751V587C1804.25 578.716 1797.53 572 1789.25 572H1238.25Z" fill="url(#paint3_radial_8_2653)"/>
<path fill-rule="evenodd" clip-rule="evenodd" d="M1053.25 720.5H502.25C494.242 720.5 487.75 726.992 487.75 735V899C487.75 907.008 494.242 913.5 502.25 913.5H1053.25C1061.26 913.5 1067.75 907.008 1067.75 899V735C1067.75 726.992 1061.26 720.5 1053.25 720.5ZM502.25 720C493.966 720 487.25 726.716 487.25 735V899C487.25 907.284 493.966 914 502.25 914H1053.25C1061.53 914 1068.25 907.284 1068.25 899V735C1068.25 726.716 1061.53 720 1053.25 720H502.25Z" fill="url(#paint4_radial_8_2653)"/>
<path fill-rule="evenodd" clip-rule="evenodd" d="M317.25 720.5H126.25C118.242 720.5 111.75 726.992 111.75 735V899C111.75 907.008 118.242 913.5 126.25 913.5H317.25C325.258 913.5 331.75 907.008 331.75 899V735C331.75 726.992 325.258 720.5 317.25 720.5ZM126.25 720C117.966 720 111.25 726.716 111.25 735V899C111.25 907.284 117.966 914 126.25 914H317.25C325.534 914 332.25 907.284 332.25 899V735C332.25 726.716 325.534 720 317.25 720H126.25Z" fill="url(#paint5_radial_8_2653)"/>
<path fill-rule="evenodd" clip-rule="evenodd" d="M37.25 308.5H-153.75C-161.758 308.5 -168.25 314.992 -168.25 323V598C-168.25 606.008 -161.758 612.5 -153.75 612.5H37.25C45.2581 612.5 51.75 606.008 51.75 598V323C51.75 314.992 45.2581 308.5 37.25 308.5ZM-153.75 308C-162.034 308 -168.75 314.716 -168.75 323V598C-168.75 606.284 -162.034 613 -153.75 613H37.25C45.5343 613 52.25 606.284 52.25 598V323C52.25 314.716 45.5343 308 37.25 308H-153.75Z" fill="url(#paint6_radial_8_2653)"/>
<path fill-rule="evenodd" clip-rule="evenodd" d="M66.25 720.5H-124.75C-132.758 720.5 -139.25 726.992 -139.25 735V899C-139.25 907.008 -132.758 913.5 -124.75 913.5H66.25C74.2581 913.5 80.75 907.008 80.75 899V735C80.75 726.992 74.2581 720.5 66.25 720.5ZM-124.75 720C-133.034 720 -139.75 726.716 -139.75 735V899C-139.75 907.284 -133.034 914 -124.75 914H66.25C74.5343 914 81.25 907.284 81.25 899V735C81.25 726.716 74.5343 720 66.25 720H-124.75Z" fill="url(#paint7_radial_8_2653)"/>
<path fill-rule="evenodd" clip-rule="evenodd" d="M448 699.515C448 688.602 456.852 679.757 467.765 679.765L1088.26 680.235C1099.17 680.243 1108 689.083 1108 699.985V800H1108.5V699.985C1108.5 688.807 1099.44 679.743 1088.27 679.735L467.765 679.265C456.576 679.257 447.5 688.325 447.5 699.515V798.5H448V699.515Z" fill="url(#paint8_radial_8_2653)"/>
<path fill-rule="evenodd" clip-rule="evenodd" d="M-287.5 699.515C-287.5 688.602 -278.648 679.757 -267.735 679.765L352.765 680.235C363.667 680.243 372.5 689.083 372.5 699.985V800H373V699.985C373 688.807 363.943 679.743 352.765 679.735L-267.735 679.265C-278.924 679.257 -288 688.325 -288 699.515V798.5H-287.5V699.515Z" fill="url(#paint9_radial_8_2653)"/>
<path fill-rule="evenodd" clip-rule="evenodd" d="M1203.25 532.25C1192.34 532.25 1183.5 541.092 1183.5 552V772.5H1183V552C1183 540.816 1192.07 531.75 1203.25 531.75H1803.75V532.25H1203.25Z" fill="url(#paint10_radial_8_2653)"/>
<path fill-rule="evenodd" clip-rule="evenodd" d="M122.5 592.449C122.5 603.376 131.373 612.227 142.3 612.199L1085.43 609.8C1096.27 609.773 1105.06 601.017 1105.13 590.18L1107.87 171.129C1107.94 160.171 1099.08 151.25 1088.12 151.25H-121.75V150.75H1088.12C1099.35 150.75 1108.44 159.897 1108.37 171.132L1105.63 590.183C1105.56 601.295 1096.54 610.272 1085.43 610.3L142.302 612.699C131.098 612.728 122 603.653 122 592.449V262C122 251.092 113.158 242.25 102.25 242.25H-128.25V241.75H102.25C113.434 241.75 122.5 250.816 122.5 262V592.449Z" fill="url(#paint11_radial_8_2653)"/>
<path fill-rule="evenodd" clip-rule="evenodd" d="M1203.25 457.75C1192.34 457.75 1183.5 448.908 1183.5 438V16H1183V438C1183 449.184 1192.07 458.25 1203.25 458.25H1802.25V457.75H1203.25Z" fill="url(#paint12_radial_8_2653)"/>
<path fill-rule="evenodd" clip-rule="evenodd" d="M1437.25 224.5H1238.25C1230.24 224.5 1223.75 230.992 1223.75 239V403C1223.75 411.008 1230.24 417.5 1238.25 417.5H1437.25C1445.26 417.5 1451.75 411.008 1451.75 403V239C1451.75 230.992 1445.26 224.5 1437.25 224.5ZM1238.25 224C1229.97 224 1223.25 230.716 1223.25 239V403C1223.25 411.284 1229.97 418 1238.25 418H1437.25C1445.53 418 1452.25 411.284 1452.25 403V321V239C1452.25 230.716 1445.53 224 1437.25 224H1238.25Z" fill="url(#paint13_radial_8_2653)"/>
<path fill-rule="evenodd" clip-rule="evenodd" d="M1789.25 224.5H1497.25C1489.24 224.5 1482.75 230.992 1482.75 239V403C1482.75 411.008 1489.24 417.5 1497.25 417.5H1789.25C1797.26 417.5 1803.75 411.008 1803.75 403V239C1803.75 230.992 1797.26 224.5 1789.25 224.5ZM1497.25 224C1488.97 224 1482.25 230.716 1482.25 239V403C1482.25 411.284 1488.97 418 1497.25 418H1789.25C1797.53 418 1804.25 411.284 1804.25 403V239C1804.25 230.716 1797.53 224 1789.25 224H1497.25Z" fill="url(#paint14_radial_8_2653)"/>
<defs>
<radialGradient id="paint0_radial_8_2653" cx="0" cy="0" r="1" gradientUnits="userSpaceOnUse" gradientTransform="translate(843 337) rotate(98.3271) scale(583.148 1335.74)">
<stop stop-color="#38C9E9"/>
<stop offset="1" stop-color="#38C9E9" stop-opacity="0"/>
</radialGradient>
<radialGradient id="paint1_radial_8_2653" cx="0" cy="0" r="1" gradientUnits="userSpaceOnUse" gradientTransform="translate(843 337) rotate(98.3271) scale(583.148 1335.74)">
<stop stop-color="#38C9E9"/>
<stop offset="1" stop-color="#38C9E9" stop-opacity="0"/>
</radialGradient>
<radialGradient id="paint2_radial_8_2653" cx="0" cy="0" r="1" gradientUnits="userSpaceOnUse" gradientTransform="translate(843 337) rotate(98.3271) scale(583.148 1335.74)">
<stop stop-color="#38C9E9"/>
<stop offset="1" stop-color="#38C9E9" stop-opacity="0"/>
</radialGradient>
<radialGradient id="paint3_radial_8_2653" cx="0" cy="0" r="1" gradientUnits="userSpaceOnUse" gradientTransform="translate(843 337) rotate(98.3271) scale(583.148 1335.74)">
<stop stop-color="#38C9E9"/>
<stop offset="1" stop-color="#38C9E9" stop-opacity="0"/>
</radialGradient>
<radialGradient id="paint4_radial_8_2653" cx="0" cy="0" r="1" gradientUnits="userSpaceOnUse" gradientTransform="translate(843 337) rotate(98.3271) scale(583.148 1335.74)">
<stop stop-color="#38C9E9"/>
<stop offset="1" stop-color="#38C9E9" stop-opacity="0"/>
</radialGradient>
<radialGradient id="paint5_radial_8_2653" cx="0" cy="0" r="1" gradientUnits="userSpaceOnUse" gradientTransform="translate(843 337) rotate(98.3271) scale(583.148 1335.74)">
<stop stop-color="#38C9E9"/>
<stop offset="1" stop-color="#38C9E9" stop-opacity="0"/>
</radialGradient>
<radialGradient id="paint6_radial_8_2653" cx="0" cy="0" r="1" gradientUnits="userSpaceOnUse" gradientTransform="translate(843 337) rotate(98.3271) scale(583.148 1335.74)">
<stop stop-color="#38C9E9"/>
<stop offset="1" stop-color="#38C9E9" stop-opacity="0"/>
</radialGradient>
<radialGradient id="paint7_radial_8_2653" cx="0" cy="0" r="1" gradientUnits="userSpaceOnUse" gradientTransform="translate(843 337) rotate(98.3271) scale(583.148 1335.74)">
<stop stop-color="#38C9E9"/>
<stop offset="1" stop-color="#38C9E9" stop-opacity="0"/>
</radialGradient>
<radialGradient id="paint8_radial_8_2653" cx="0" cy="0" r="1" gradientUnits="userSpaceOnUse" gradientTransform="translate(843 337) rotate(98.3271) scale(583.148 1335.74)">
<stop stop-color="#38C9E9"/>
<stop offset="1" stop-color="#38C9E9" stop-opacity="0"/>
</radialGradient>
<radialGradient id="paint9_radial_8_2653" cx="0" cy="0" r="1" gradientUnits="userSpaceOnUse" gradientTransform="translate(843 337) rotate(98.3271) scale(583.148 1335.74)">
<stop stop-color="#38C9E9"/>
<stop offset="1" stop-color="#38C9E9" stop-opacity="0"/>
</radialGradient>
<radialGradient id="paint10_radial_8_2653" cx="0" cy="0" r="1" gradientUnits="userSpaceOnUse" gradientTransform="translate(843 337) rotate(98.3271) scale(583.148 1335.74)">
<stop stop-color="#38C9E9"/>
<stop offset="1" stop-color="#38C9E9" stop-opacity="0"/>
</radialGradient>
<radialGradient id="paint11_radial_8_2653" cx="0" cy="0" r="1" gradientUnits="userSpaceOnUse" gradientTransform="translate(843 337) rotate(98.3271) scale(583.148 1335.74)">
<stop stop-color="#38C9E9"/>
<stop offset="1" stop-color="#38C9E9" stop-opacity="0"/>
</radialGradient>
<radialGradient id="paint12_radial_8_2653" cx="0" cy="0" r="1" gradientUnits="userSpaceOnUse" gradientTransform="translate(843 337) rotate(98.3271) scale(583.148 1335.74)">
<stop stop-color="#38C9E9"/>
<stop offset="1" stop-color="#38C9E9" stop-opacity="0"/>
</radialGradient>
<radialGradient id="paint13_radial_8_2653" cx="0" cy="0" r="1" gradientUnits="userSpaceOnUse" gradientTransform="translate(843 337) rotate(98.3271) scale(583.148 1335.74)">
<stop stop-color="#38C9E9"/>
<stop offset="1" stop-color="#38C9E9" stop-opacity="0"/>
</radialGradient>
<radialGradient id="paint14_radial_8_2653" cx="0" cy="0" r="1" gradientUnits="userSpaceOnUse" gradientTransform="translate(843 337) rotate(98.3271) scale(583.148 1335.74)">
<stop stop-color="#38C9E9"/>
<stop offset="1" stop-color="#38C9E9" stop-opacity="0"/>
</radialGradient>
</defs>
</svg>
