<svg width="834" height="548" viewBox="0 0 834 548" fill="none" xmlns="http://www.w3.org/2000/svg">
<path fill-rule="evenodd" clip-rule="evenodd" d="M834.212 134.602H715.036C710.24 134.602 706.352 138.494 706.352 143.295V241.624C706.352 246.425 710.24 250.317 715.036 250.317H834.212C839.008 250.317 842.896 246.425 842.896 241.624V143.295C842.896 138.494 839.008 134.602 834.212 134.602ZM715.036 134.302C710.075 134.302 706.053 138.328 706.053 143.295V241.624C706.053 246.591 710.075 250.617 715.036 250.617H834.212C839.173 250.617 843.195 246.591 843.195 241.624V192.46V143.295C843.195 138.328 839.173 134.302 834.212 134.302H715.036Z" fill="url(#paint0_radial_8_4376)"/>
<path fill-rule="evenodd" clip-rule="evenodd" d="M1045.02 134.602H870.145C865.349 134.602 861.461 138.494 861.461 143.295V241.624C861.461 246.425 865.349 250.317 870.145 250.317H1045.02C1049.81 250.317 1053.7 246.425 1053.7 241.624V143.295C1053.7 138.494 1049.81 134.602 1045.02 134.602ZM870.145 134.302C865.184 134.302 861.162 138.328 861.162 143.295V241.624C861.162 246.591 865.184 250.617 870.145 250.617H1045.02C1049.98 250.617 1054 246.591 1054 241.624V143.295C1054 138.328 1049.98 134.302 1045.02 134.302H870.145Z" fill="url(#paint1_radial_8_4376)"/>
<path fill-rule="evenodd" clip-rule="evenodd" d="M1045.02 0.299781H715.036C710.24 0.299781 706.352 4.19206 706.352 8.99343V107.322C706.352 112.123 710.24 116.015 715.036 116.015H1045.02C1049.81 116.015 1053.7 112.123 1053.7 107.322V8.99343C1053.7 4.19206 1049.81 0.299781 1045.02 0.299781ZM715.036 0C710.075 0 706.053 4.0265 706.053 8.99343V107.322C706.053 112.289 710.075 116.315 715.036 116.315H1045.02C1049.98 116.315 1054 112.289 1054 107.322V8.99343C1054 4.0265 1049.98 0 1045.02 0H715.036Z" fill="url(#paint2_radial_8_4376)"/>
<path fill-rule="evenodd" clip-rule="evenodd" d="M1045.02 343.249H715.036C710.24 343.249 706.352 347.142 706.352 351.943V450.271C706.352 455.073 710.24 458.965 715.036 458.965H1045.02C1049.81 458.965 1053.7 455.073 1053.7 450.271V351.943C1053.7 347.142 1049.81 343.249 1045.02 343.249ZM715.036 342.95C710.075 342.95 706.053 346.976 706.053 351.943V450.271C706.053 455.238 710.075 459.265 715.036 459.265H1045.02C1049.98 459.265 1054 455.238 1054 450.271V351.943C1054 346.976 1049.98 342.95 1045.02 342.95H715.036Z" fill="url(#paint3_radial_8_4376)"/>
<path fill-rule="evenodd" clip-rule="evenodd" d="M604.244 431.985H274.262C269.467 431.985 265.579 435.877 265.579 440.678V539.007C265.579 543.808 269.467 547.7 274.262 547.7H604.244C609.039 547.7 612.927 543.808 612.927 539.007V440.678C612.927 435.877 609.039 431.985 604.244 431.985ZM274.262 431.685C269.301 431.685 265.279 435.711 265.279 440.678V539.007C265.279 543.974 269.301 548 274.262 548H604.244C609.205 548 613.227 543.974 613.227 539.007V440.678C613.227 435.711 609.205 431.685 604.244 431.685H274.262Z" fill="url(#paint4_radial_8_4376)"/>
<path fill-rule="evenodd" clip-rule="evenodd" d="M163.47 431.985H49.0847C44.2888 431.985 40.401 435.877 40.401 440.678V539.007C40.401 543.808 44.2888 547.7 49.0847 547.7H163.47C168.266 547.7 172.154 543.808 172.154 539.007V440.678C172.154 435.877 168.266 431.985 163.47 431.985ZM49.0847 431.685C44.1235 431.685 40.1016 435.711 40.1016 440.678V539.007C40.1016 543.974 44.1235 548 49.0847 548H163.47C168.431 548 172.453 543.974 172.453 539.007V440.678C172.453 435.711 168.431 431.685 163.47 431.685H49.0847Z" fill="url(#paint5_radial_8_4376)"/>
<path fill-rule="evenodd" clip-rule="evenodd" d="M-4.21532 184.965H-118.601C-123.397 184.965 -127.285 188.857 -127.285 193.659V358.538C-127.285 363.34 -123.397 367.232 -118.601 367.232H-4.21532C0.580582 367.232 4.4684 363.34 4.4684 358.538V193.659C4.4684 188.857 0.580582 184.965 -4.21532 184.965ZM-118.601 184.665C-123.562 184.665 -127.584 188.692 -127.584 193.659V358.538C-127.584 363.505 -123.562 367.532 -118.601 367.532H-4.21532C0.745941 367.532 4.76784 363.505 4.76784 358.538V193.659C4.76784 188.692 0.745941 184.665 -4.21532 184.665H-118.601Z" fill="url(#paint6_radial_8_4376)"/>
<path fill-rule="evenodd" clip-rule="evenodd" d="M13.1521 431.985H-101.233C-106.029 431.985 -109.917 435.877 -109.917 440.678V539.007C-109.917 543.808 -106.029 547.7 -101.233 547.7H13.1521C17.948 547.7 21.8358 543.808 21.8358 539.007V440.678C21.8358 435.877 17.948 431.985 13.1521 431.985ZM-101.233 431.685C-106.195 431.685 -110.217 435.711 -110.217 440.678V539.007C-110.217 543.974 -106.195 548 -101.233 548H13.1521C18.1134 548 22.1353 543.974 22.1353 539.007V440.678C22.1353 435.711 18.1134 431.685 13.1521 431.685H-101.233Z" fill="url(#paint7_radial_8_4376)"/>
<path fill-rule="evenodd" clip-rule="evenodd" d="M241.773 419.403C241.773 412.86 247.074 407.557 253.61 407.562L625.213 407.843C631.742 407.848 637.032 413.148 637.032 419.685V479.65H637.331V419.685C637.331 412.983 631.908 407.548 625.213 407.543L253.61 407.262C246.909 407.257 241.474 412.694 241.474 419.403V478.751H241.773V419.403Z" fill="url(#paint8_radial_8_4376)"/>
<path fill-rule="evenodd" clip-rule="evenodd" d="M-198.701 419.403C-198.701 412.86 -193.4 407.557 -186.864 407.562L184.739 407.843C191.268 407.848 196.558 413.148 196.558 419.685V479.65H196.858V419.685C196.858 412.983 191.434 407.548 184.74 407.543L-186.864 407.262C-193.565 407.257 -199 412.694 -199 419.403V478.751H-198.701V419.403Z" fill="url(#paint9_radial_8_4376)"/>
<path fill-rule="evenodd" clip-rule="evenodd" d="M694.075 319.117C687.543 319.117 682.247 324.419 682.247 330.958V463.162H681.948V330.958C681.948 324.253 687.377 318.817 694.075 318.817H1053.7V319.117H694.075Z" fill="url(#paint10_radial_8_4376)"/>
<path fill-rule="evenodd" clip-rule="evenodd" d="M46.839 355.21C46.839 361.762 52.1528 367.068 58.6969 367.051L623.516 365.613C630.006 365.597 635.271 360.347 635.313 353.849L636.953 102.603C636.996 96.0327 631.688 90.6838 625.126 90.6838H-99.4367V90.384H625.126C631.854 90.384 637.297 95.8683 637.253 102.605L635.612 353.851C635.569 360.514 630.171 365.896 623.516 365.913L58.6976 367.351C51.9879 367.368 46.5395 361.928 46.5395 355.21V157.085C46.5395 150.546 41.2441 145.244 34.7117 145.244H-103.329V144.944H34.7117C41.4094 144.944 46.839 150.38 46.839 157.085V355.21Z" fill="url(#paint11_radial_8_4376)"/>
<path fill-rule="evenodd" clip-rule="evenodd" d="M694.075 274.45C687.543 274.45 682.247 269.148 682.247 262.608V9.593H681.948V262.608C681.948 269.314 687.377 274.749 694.075 274.749H1052.8V274.45H694.075Z" fill="url(#paint12_radial_8_4376)"/>
<path fill-rule="evenodd" clip-rule="evenodd" d="M834.212 134.602H715.036C710.24 134.602 706.352 138.494 706.352 143.295V241.624C706.352 246.425 710.24 250.317 715.036 250.317H834.212C839.008 250.317 842.896 246.425 842.896 241.624V143.295C842.896 138.494 839.008 134.602 834.212 134.602ZM715.036 134.302C710.075 134.302 706.053 138.328 706.053 143.295V241.624C706.053 246.591 710.075 250.617 715.036 250.617H834.212C839.173 250.617 843.195 246.591 843.195 241.624V192.46V143.295C843.195 138.328 839.173 134.302 834.212 134.302H715.036Z" fill="url(#paint13_radial_8_4376)"/>
<path fill-rule="evenodd" clip-rule="evenodd" d="M1045.02 134.602H870.145C865.349 134.602 861.461 138.494 861.461 143.295V241.624C861.461 246.425 865.349 250.317 870.145 250.317H1045.02C1049.81 250.317 1053.7 246.425 1053.7 241.624V143.295C1053.7 138.494 1049.81 134.602 1045.02 134.602ZM870.145 134.302C865.184 134.302 861.162 138.328 861.162 143.295V241.624C861.162 246.591 865.184 250.617 870.145 250.617H1045.02C1049.98 250.617 1054 246.591 1054 241.624V143.295C1054 138.328 1049.98 134.302 1045.02 134.302H870.145Z" fill="url(#paint14_radial_8_4376)"/>
<defs>
<radialGradient id="paint0_radial_8_4376" cx="0" cy="0" r="1" gradientUnits="userSpaceOnUse" gradientTransform="translate(478.33 202.053) rotate(98.3177) scale(349.625 799.964)">
<stop stop-color="#38C9E9"/>
<stop offset="1" stop-color="#38C9E9" stop-opacity="0"/>
</radialGradient>
<radialGradient id="paint1_radial_8_4376" cx="0" cy="0" r="1" gradientUnits="userSpaceOnUse" gradientTransform="translate(478.33 202.053) rotate(98.3177) scale(349.625 799.964)">
<stop stop-color="#38C9E9"/>
<stop offset="1" stop-color="#38C9E9" stop-opacity="0"/>
</radialGradient>
<radialGradient id="paint2_radial_8_4376" cx="0" cy="0" r="1" gradientUnits="userSpaceOnUse" gradientTransform="translate(478.33 202.053) rotate(98.3177) scale(349.625 799.964)">
<stop stop-color="#38C9E9"/>
<stop offset="1" stop-color="#38C9E9" stop-opacity="0"/>
</radialGradient>
<radialGradient id="paint3_radial_8_4376" cx="0" cy="0" r="1" gradientUnits="userSpaceOnUse" gradientTransform="translate(478.33 202.053) rotate(98.3177) scale(349.625 799.964)">
<stop stop-color="#38C9E9"/>
<stop offset="1" stop-color="#38C9E9" stop-opacity="0"/>
</radialGradient>
<radialGradient id="paint4_radial_8_4376" cx="0" cy="0" r="1" gradientUnits="userSpaceOnUse" gradientTransform="translate(478.33 202.053) rotate(98.3177) scale(349.625 799.964)">
<stop stop-color="#38C9E9"/>
<stop offset="1" stop-color="#38C9E9" stop-opacity="0"/>
</radialGradient>
<radialGradient id="paint5_radial_8_4376" cx="0" cy="0" r="1" gradientUnits="userSpaceOnUse" gradientTransform="translate(478.33 202.053) rotate(98.3177) scale(349.625 799.964)">
<stop stop-color="#38C9E9"/>
<stop offset="1" stop-color="#38C9E9" stop-opacity="0"/>
</radialGradient>
<radialGradient id="paint6_radial_8_4376" cx="0" cy="0" r="1" gradientUnits="userSpaceOnUse" gradientTransform="translate(478.33 202.053) rotate(98.3177) scale(349.625 799.964)">
<stop stop-color="#38C9E9"/>
<stop offset="1" stop-color="#38C9E9" stop-opacity="0"/>
</radialGradient>
<radialGradient id="paint7_radial_8_4376" cx="0" cy="0" r="1" gradientUnits="userSpaceOnUse" gradientTransform="translate(478.33 202.053) rotate(98.3177) scale(349.625 799.964)">
<stop stop-color="#38C9E9"/>
<stop offset="1" stop-color="#38C9E9" stop-opacity="0"/>
</radialGradient>
<radialGradient id="paint8_radial_8_4376" cx="0" cy="0" r="1" gradientUnits="userSpaceOnUse" gradientTransform="translate(478.33 202.053) rotate(98.3177) scale(349.625 799.964)">
<stop stop-color="#38C9E9"/>
<stop offset="1" stop-color="#38C9E9" stop-opacity="0"/>
</radialGradient>
<radialGradient id="paint9_radial_8_4376" cx="0" cy="0" r="1" gradientUnits="userSpaceOnUse" gradientTransform="translate(478.33 202.053) rotate(98.3177) scale(349.625 799.964)">
<stop stop-color="#38C9E9"/>
<stop offset="1" stop-color="#38C9E9" stop-opacity="0"/>
</radialGradient>
<radialGradient id="paint10_radial_8_4376" cx="0" cy="0" r="1" gradientUnits="userSpaceOnUse" gradientTransform="translate(478.33 202.053) rotate(98.3177) scale(349.625 799.964)">
<stop stop-color="#38C9E9"/>
<stop offset="1" stop-color="#38C9E9" stop-opacity="0"/>
</radialGradient>
<radialGradient id="paint11_radial_8_4376" cx="0" cy="0" r="1" gradientUnits="userSpaceOnUse" gradientTransform="translate(478.33 202.053) rotate(98.3177) scale(349.625 799.964)">
<stop stop-color="#38C9E9"/>
<stop offset="1" stop-color="#38C9E9" stop-opacity="0"/>
</radialGradient>
<radialGradient id="paint12_radial_8_4376" cx="0" cy="0" r="1" gradientUnits="userSpaceOnUse" gradientTransform="translate(478.33 202.053) rotate(98.3177) scale(349.625 799.964)">
<stop stop-color="#38C9E9"/>
<stop offset="1" stop-color="#38C9E9" stop-opacity="0"/>
</radialGradient>
<radialGradient id="paint13_radial_8_4376" cx="0" cy="0" r="1" gradientUnits="userSpaceOnUse" gradientTransform="translate(478.33 202.053) rotate(98.3177) scale(349.625 799.964)">
<stop stop-color="#38C9E9"/>
<stop offset="1" stop-color="#38C9E9" stop-opacity="0"/>
</radialGradient>
<radialGradient id="paint14_radial_8_4376" cx="0" cy="0" r="1" gradientUnits="userSpaceOnUse" gradientTransform="translate(478.33 202.053) rotate(98.3177) scale(349.625 799.964)">
<stop stop-color="#38C9E9"/>
<stop offset="1" stop-color="#38C9E9" stop-opacity="0"/>
</radialGradient>
</defs>
</svg>
