<svg width="2093" height="914" viewBox="0 0 2093 914" fill="none" xmlns="http://www.w3.org/2000/svg">
<path fill-rule="evenodd" clip-rule="evenodd" d="M1725.25 224.5H1526.25C1518.24 224.5 1511.75 230.992 1511.75 239V403C1511.75 411.008 1518.24 417.5 1526.25 417.5H1725.25C1733.26 417.5 1739.75 411.008 1739.75 403V239C1739.75 230.992 1733.26 224.5 1725.25 224.5ZM1526.25 224C1517.97 224 1511.25 230.716 1511.25 239V403C1511.25 411.284 1517.97 418 1526.25 418H1725.25C1733.53 418 1740.25 411.284 1740.25 403V321V239C1740.25 230.716 1733.53 224 1725.25 224H1526.25Z" fill="url(#paint0_radial_8_2653)"/>
<path fill-rule="evenodd" clip-rule="evenodd" d="M2077.25 224.5H1785.25C1777.24 224.5 1770.75 230.992 1770.75 239V403C1770.75 411.008 1777.24 417.5 1785.25 417.5H2077.25C2085.26 417.5 2091.75 411.008 2091.75 403V239C2091.75 230.992 2085.26 224.5 2077.25 224.5ZM1785.25 224C1776.97 224 1770.25 230.716 1770.25 239V403C1770.25 411.284 1776.97 418 1785.25 418H2077.25C2085.53 418 2092.25 411.284 2092.25 403V239C2092.25 230.716 2085.53 224 2077.25 224H1785.25Z" fill="url(#paint1_radial_8_2653)"/>
<path fill-rule="evenodd" clip-rule="evenodd" d="M2077.25 0.5H1526.25C1518.24 0.5 1511.75 6.99187 1511.75 15V179C1511.75 187.008 1518.24 193.5 1526.25 193.5H2077.25C2085.26 193.5 2091.75 187.008 2091.75 179V15C2091.75 6.99187 2085.26 0.5 2077.25 0.5ZM1526.25 0C1517.97 0 1511.25 6.71572 1511.25 15V179C1511.25 187.284 1517.97 194 1526.25 194H2077.25C2085.53 194 2092.25 187.284 2092.25 179V15C2092.25 6.71573 2085.53 0 2077.25 0H1526.25Z" fill="url(#paint2_radial_8_2653)"/>
<path fill-rule="evenodd" clip-rule="evenodd" d="M2077.25 572.5H1526.25C1518.24 572.5 1511.75 578.992 1511.75 587V751C1511.75 759.008 1518.24 765.5 1526.25 765.5H2077.25C2085.26 765.5 2091.75 759.008 2091.75 751V587C2091.75 578.992 2085.26 572.5 2077.25 572.5ZM1526.25 572C1517.97 572 1511.25 578.716 1511.25 587V751C1511.25 759.284 1517.97 766 1526.25 766H2077.25C2085.53 766 2092.25 759.284 2092.25 751V587C2092.25 578.716 2085.53 572 2077.25 572H1526.25Z" fill="url(#paint3_radial_8_2653)"/>
<path fill-rule="evenodd" clip-rule="evenodd" d="M1341.25 720.5H790.25C782.242 720.5 775.75 726.992 775.75 735V899C775.75 907.008 782.242 913.5 790.25 913.5H1341.25C1349.26 913.5 1355.75 907.008 1355.75 899V735C1355.75 726.992 1349.26 720.5 1341.25 720.5ZM790.25 720C781.966 720 775.25 726.716 775.25 735V899C775.25 907.284 781.966 914 790.25 914H1341.25C1349.53 914 1356.25 907.284 1356.25 899V735C1356.25 726.716 1349.53 720 1341.25 720H790.25Z" fill="url(#paint4_radial_8_2653)"/>
<path fill-rule="evenodd" clip-rule="evenodd" d="M605.25 720.5H414.25C406.242 720.5 399.75 726.992 399.75 735V899C399.75 907.008 406.242 913.5 414.25 913.5H605.25C613.258 913.5 619.75 907.008 619.75 899V735C619.75 726.992 613.258 720.5 605.25 720.5ZM414.25 720C405.966 720 399.25 726.716 399.25 735V899C399.25 907.284 405.966 914 414.25 914H605.25C613.534 914 620.25 907.284 620.25 899V735C620.25 726.716 613.534 720 605.25 720H414.25Z" fill="url(#paint5_radial_8_2653)"/>
<path fill-rule="evenodd" clip-rule="evenodd" d="M325.25 308.5H134.25C126.242 308.5 119.75 314.992 119.75 323V598C119.75 606.008 126.242 612.5 134.25 612.5H325.25C333.258 612.5 339.75 606.008 339.75 598V323C339.75 314.992 333.258 308.5 325.25 308.5ZM134.25 308C125.966 308 119.25 314.716 119.25 323V598C119.25 606.284 125.966 613 134.25 613H325.25C333.534 613 340.25 606.284 340.25 598V323C340.25 314.716 333.534 308 325.25 308H134.25Z" fill="url(#paint6_radial_8_2653)"/>
<path fill-rule="evenodd" clip-rule="evenodd" d="M354.25 720.5H163.25C155.242 720.5 148.75 726.992 148.75 735V899C148.75 907.008 155.242 913.5 163.25 913.5H354.25C362.258 913.5 368.75 907.008 368.75 899V735C368.75 726.992 362.258 720.5 354.25 720.5ZM163.25 720C154.966 720 148.25 726.716 148.25 735V899C148.25 907.284 154.966 914 163.25 914H354.25C362.534 914 369.25 907.284 369.25 899V735C369.25 726.716 362.534 720 354.25 720H163.25Z" fill="url(#paint7_radial_8_2653)"/>
<path fill-rule="evenodd" clip-rule="evenodd" d="M736 699.515C736 688.602 744.852 679.757 755.765 679.765L1376.26 680.235C1387.17 680.243 1396 689.083 1396 699.985V800H1396.5V699.985C1396.5 688.807 1387.44 679.743 1376.27 679.735L755.765 679.265C744.576 679.257 735.5 688.325 735.5 699.515V798.5H736V699.515Z" fill="url(#paint8_radial_8_2653)"/>
<path fill-rule="evenodd" clip-rule="evenodd" d="M0.5 699.515C0.5 688.602 9.3515 679.757 20.265 679.765L640.765 680.235C651.667 680.243 660.5 689.083 660.5 699.985V800H661V699.985C661 688.807 651.943 679.743 640.765 679.735L20.2653 679.265C9.07556 679.257 0 688.325 0 699.515V798.5H0.5V699.515Z" fill="url(#paint9_radial_8_2653)"/>
<path fill-rule="evenodd" clip-rule="evenodd" d="M1491.25 532.25C1480.34 532.25 1471.5 541.092 1471.5 552V772.5H1471V552C1471 540.816 1480.07 531.75 1491.25 531.75H2091.75V532.25H1491.25Z" fill="url(#paint10_radial_8_2653)"/>
<path fill-rule="evenodd" clip-rule="evenodd" d="M410.5 592.449C410.5 603.376 419.373 612.227 430.3 612.199L1373.43 609.8C1384.27 609.773 1393.06 601.017 1393.13 590.18L1395.87 171.129C1395.94 160.171 1387.08 151.25 1376.12 151.25H166.25V150.75H1376.12C1387.35 150.75 1396.44 159.897 1396.37 171.132L1393.63 590.183C1393.56 601.295 1384.54 610.272 1373.43 610.3L430.302 612.699C419.098 612.728 410 603.653 410 592.449V262C410 251.092 401.158 242.25 390.25 242.25H159.75V241.75H390.25C401.434 241.75 410.5 250.816 410.5 262V592.449Z" fill="url(#paint11_radial_8_2653)"/>
<path fill-rule="evenodd" clip-rule="evenodd" d="M1491.25 457.75C1480.34 457.75 1471.5 448.908 1471.5 438V16H1471V438C1471 449.184 1480.07 458.25 1491.25 458.25H2090.25V457.75H1491.25Z" fill="url(#paint12_radial_8_2653)"/>
<path fill-rule="evenodd" clip-rule="evenodd" d="M1725.25 224.5H1526.25C1518.24 224.5 1511.75 230.992 1511.75 239V403C1511.75 411.008 1518.24 417.5 1526.25 417.5H1725.25C1733.26 417.5 1739.75 411.008 1739.75 403V239C1739.75 230.992 1733.26 224.5 1725.25 224.5ZM1526.25 224C1517.97 224 1511.25 230.716 1511.25 239V403C1511.25 411.284 1517.97 418 1526.25 418H1725.25C1733.53 418 1740.25 411.284 1740.25 403V321V239C1740.25 230.716 1733.53 224 1725.25 224H1526.25Z" fill="url(#paint13_radial_8_2653)"/>
<path fill-rule="evenodd" clip-rule="evenodd" d="M2077.25 224.5H1785.25C1777.24 224.5 1770.75 230.992 1770.75 239V403C1770.75 411.008 1777.24 417.5 1785.25 417.5H2077.25C2085.26 417.5 2091.75 411.008 2091.75 403V239C2091.75 230.992 2085.26 224.5 2077.25 224.5ZM1785.25 224C1776.97 224 1770.25 230.716 1770.25 239V403C1770.25 411.284 1776.97 418 1785.25 418H2077.25C2085.53 418 2092.25 411.284 2092.25 403V239C2092.25 230.716 2085.53 224 2077.25 224H1785.25Z" fill="url(#paint14_radial_8_2653)"/>
<defs>
<radialGradient id="paint0_radial_8_2653" cx="0" cy="0" r="1" gradientUnits="userSpaceOnUse" gradientTransform="translate(1131 337) rotate(98.3271) scale(583.148 1335.74)">
<stop stop-color="#38C9E9"/>
<stop offset="1" stop-color="#38C9E9" stop-opacity="0"/>
</radialGradient>
<radialGradient id="paint1_radial_8_2653" cx="0" cy="0" r="1" gradientUnits="userSpaceOnUse" gradientTransform="translate(1131 337) rotate(98.3271) scale(583.148 1335.74)">
<stop stop-color="#38C9E9"/>
<stop offset="1" stop-color="#38C9E9" stop-opacity="0"/>
</radialGradient>
<radialGradient id="paint2_radial_8_2653" cx="0" cy="0" r="1" gradientUnits="userSpaceOnUse" gradientTransform="translate(1131 337) rotate(98.3271) scale(583.148 1335.74)">
<stop stop-color="#38C9E9"/>
<stop offset="1" stop-color="#38C9E9" stop-opacity="0"/>
</radialGradient>
<radialGradient id="paint3_radial_8_2653" cx="0" cy="0" r="1" gradientUnits="userSpaceOnUse" gradientTransform="translate(1131 337) rotate(98.3271) scale(583.148 1335.74)">
<stop stop-color="#38C9E9"/>
<stop offset="1" stop-color="#38C9E9" stop-opacity="0"/>
</radialGradient>
<radialGradient id="paint4_radial_8_2653" cx="0" cy="0" r="1" gradientUnits="userSpaceOnUse" gradientTransform="translate(1131 337) rotate(98.3271) scale(583.148 1335.74)">
<stop stop-color="#38C9E9"/>
<stop offset="1" stop-color="#38C9E9" stop-opacity="0"/>
</radialGradient>
<radialGradient id="paint5_radial_8_2653" cx="0" cy="0" r="1" gradientUnits="userSpaceOnUse" gradientTransform="translate(1131 337) rotate(98.3271) scale(583.148 1335.74)">
<stop stop-color="#38C9E9"/>
<stop offset="1" stop-color="#38C9E9" stop-opacity="0"/>
</radialGradient>
<radialGradient id="paint6_radial_8_2653" cx="0" cy="0" r="1" gradientUnits="userSpaceOnUse" gradientTransform="translate(1131 337) rotate(98.3271) scale(583.148 1335.74)">
<stop stop-color="#38C9E9"/>
<stop offset="1" stop-color="#38C9E9" stop-opacity="0"/>
</radialGradient>
<radialGradient id="paint7_radial_8_2653" cx="0" cy="0" r="1" gradientUnits="userSpaceOnUse" gradientTransform="translate(1131 337) rotate(98.3271) scale(583.148 1335.74)">
<stop stop-color="#38C9E9"/>
<stop offset="1" stop-color="#38C9E9" stop-opacity="0"/>
</radialGradient>
<radialGradient id="paint8_radial_8_2653" cx="0" cy="0" r="1" gradientUnits="userSpaceOnUse" gradientTransform="translate(1131 337) rotate(98.3271) scale(583.148 1335.74)">
<stop stop-color="#38C9E9"/>
<stop offset="1" stop-color="#38C9E9" stop-opacity="0"/>
</radialGradient>
<radialGradient id="paint9_radial_8_2653" cx="0" cy="0" r="1" gradientUnits="userSpaceOnUse" gradientTransform="translate(1131 337) rotate(98.3271) scale(583.148 1335.74)">
<stop stop-color="#38C9E9"/>
<stop offset="1" stop-color="#38C9E9" stop-opacity="0"/>
</radialGradient>
<radialGradient id="paint10_radial_8_2653" cx="0" cy="0" r="1" gradientUnits="userSpaceOnUse" gradientTransform="translate(1131 337) rotate(98.3271) scale(583.148 1335.74)">
<stop stop-color="#38C9E9"/>
<stop offset="1" stop-color="#38C9E9" stop-opacity="0"/>
</radialGradient>
<radialGradient id="paint11_radial_8_2653" cx="0" cy="0" r="1" gradientUnits="userSpaceOnUse" gradientTransform="translate(1131 337) rotate(98.3271) scale(583.148 1335.74)">
<stop stop-color="#38C9E9"/>
<stop offset="1" stop-color="#38C9E9" stop-opacity="0"/>
</radialGradient>
<radialGradient id="paint12_radial_8_2653" cx="0" cy="0" r="1" gradientUnits="userSpaceOnUse" gradientTransform="translate(1131 337) rotate(98.3271) scale(583.148 1335.74)">
<stop stop-color="#38C9E9"/>
<stop offset="1" stop-color="#38C9E9" stop-opacity="0"/>
</radialGradient>
<radialGradient id="paint13_radial_8_2653" cx="0" cy="0" r="1" gradientUnits="userSpaceOnUse" gradientTransform="translate(1131 337) rotate(98.3271) scale(583.148 1335.74)">
<stop stop-color="#38C9E9"/>
<stop offset="1" stop-color="#38C9E9" stop-opacity="0"/>
</radialGradient>
<radialGradient id="paint14_radial_8_2653" cx="0" cy="0" r="1" gradientUnits="userSpaceOnUse" gradientTransform="translate(1131 337) rotate(98.3271) scale(583.148 1335.74)">
<stop stop-color="#38C9E9"/>
<stop offset="1" stop-color="#38C9E9" stop-opacity="0"/>
</radialGradient>
</defs>
</svg>
