<svg width="70" height="70" viewBox="0 0 70 70" fill="none" xmlns="http://www.w3.org/2000/svg">
<path d="M26.812 42.0406L26.5191 42.3335L22.2386 46.614L22.2323 46.6203L22.2259 46.6263C22.1461 46.7007 22.082 46.7904 22.0376 46.89C21.9932 46.9897 21.9693 47.0973 21.9674 47.2064C21.9655 47.3155 21.9856 47.4238 22.0264 47.525C22.0673 47.6262 22.1281 47.7181 22.2053 47.7952C22.2824 47.8724 22.3743 47.9332 22.4755 47.9741C22.5767 48.0149 22.685 48.035 22.7941 48.0331C22.9032 48.0312 23.0108 48.0073 23.1105 47.9629C23.2101 47.9185 23.2998 47.8544 23.3742 47.7746L23.3802 47.7682L23.3865 47.7619L27.667 43.4814L27.9599 43.1885L28.3022 43.4219C29.5655 44.2832 31.0899 44.6766 32.6123 44.5341C34.1347 44.3916 35.5596 43.7222 36.6411 42.6413L37.166 42.1164L37.1661 42.1163C37.362 41.9206 37.5174 41.6882 37.6234 41.4324C37.7294 41.1765 37.784 40.9024 37.784 40.6255C37.784 40.3486 37.7294 40.0744 37.6234 39.8186C37.5174 39.5628 37.362 39.3304 37.1661 39.1347L37.166 39.1345L30.866 32.8345C30.866 32.8345 30.866 32.8345 30.866 32.8345C30.4707 32.4394 29.9348 32.2174 29.3759 32.2174C28.817 32.2174 28.281 32.4394 27.8858 32.8345L26.812 42.0406ZM26.812 42.0406L26.5787 41.6984C25.7175 40.4349 25.3244 38.9104 25.4672 37.388C25.61 35.8656 26.2797 34.4408 27.3608 33.3595C27.3608 33.3595 27.3608 33.3595 27.3609 33.3595L27.8858 32.8345L26.812 42.0406ZM42.6979 25.5774L43.0401 25.8106L43.333 25.5178L47.6066 21.246C47.7599 21.1058 47.9612 21.0297 48.1691 21.0333C48.3796 21.037 48.5804 21.1223 48.7293 21.2712C48.8782 21.42 48.9634 21.6209 48.9672 21.8314C48.9708 22.0393 48.8946 22.2406 48.7545 22.3939L44.4826 26.6675L44.1899 26.9603L44.4231 27.3025C45.284 28.5662 45.6769 30.0908 45.5338 31.6132C45.3907 33.1356 44.7206 34.5603 43.6393 35.6414L43.6392 35.6414L43.1143 36.1664C43.1142 36.1664 43.1142 36.1664 43.1142 36.1664C42.719 36.5615 42.183 36.7835 41.6241 36.7835C41.0653 36.7835 40.5293 36.5615 40.1341 36.1664C40.1341 36.1664 40.1341 36.1664 40.134 36.1664L33.8341 29.8664L33.8339 29.8663C33.6381 29.6706 33.4827 29.4382 33.3767 29.1823C33.2707 28.9265 33.2161 28.6524 33.2161 28.3755C33.2161 28.0986 33.2707 27.8244 33.3767 27.5686C33.4827 27.3128 33.6381 27.0804 33.8339 26.8847L33.8341 26.8845L34.359 26.3595C34.3591 26.3595 34.3591 26.3595 34.3591 26.3595C35.4404 25.2784 36.8652 24.6087 38.3875 24.4659C39.9099 24.3231 41.4344 24.7162 42.6979 25.5774Z" stroke="#28AECB"/>
<circle cx="35" cy="35" r="34.5" stroke="#28AECB"/>
</svg>
