<svg width="70" height="70" viewBox="0 0 70 70" fill="none" xmlns="http://www.w3.org/2000/svg">
<circle cx="35" cy="35" r="34.5" stroke="#28AECB"/>
<path d="M20.5549 27.8389V27.3389H20.0549H19.6057C18.8732 27.3389 18.2461 26.6476 18.2461 25.9896C18.2461 25.3315 18.8735 24.6396 19.6057 24.6396H51.4065C52.1393 24.6396 52.7661 25.3313 52.7661 25.9896C52.7661 26.6477 52.1396 27.3389 51.4065 27.3389H51.0024H50.5024V27.8389V31.0389H20.5549V27.8389ZM25.0928 45.0989H24.5928V45.5989V48.3443C24.5928 48.5434 24.5475 48.67 24.504 48.7319C24.4847 48.7593 24.467 48.773 24.4514 48.7811C24.4359 48.7891 24.4058 48.8004 24.3499 48.8004H20.6321C20.6191 48.8004 20.6089 48.7998 20.6011 48.799C20.5912 48.7738 20.5786 48.7285 20.5694 48.6538C20.5589 48.5695 20.5549 48.4677 20.5549 48.3443V44.0419V40.9196H50.5017V48.3443C50.5017 48.4598 50.4954 48.5566 50.4827 48.6357C50.4697 48.7159 50.4525 48.7622 50.4401 48.7856C50.4379 48.7899 50.436 48.7929 50.4346 48.7951C50.4265 48.7973 50.4095 48.8004 50.3801 48.8004H46.6616C46.6059 48.8004 46.5827 48.7892 46.5763 48.7857C46.57 48.7823 46.5586 48.7748 46.5433 48.7507C46.5053 48.6912 46.4645 48.5614 46.4645 48.3443V45.5989V45.0989H45.9645H25.0928ZM20.5802 48.7952C20.5802 48.7952 20.5807 48.7954 20.5815 48.7957L20.5802 48.7952ZM50.4314 48.7995C50.4312 48.7997 50.4314 48.7994 50.4319 48.7989C50.4317 48.7992 50.4315 48.7994 50.4314 48.7995ZM34.0767 28.7484C34.0767 29.5385 34.7029 30.2044 35.5061 30.2044C36.3102 30.2044 36.9355 29.5382 36.9355 28.7484C36.9355 27.9585 36.3102 27.2923 35.5061 27.2923C34.7029 27.2923 34.0767 27.9582 34.0767 28.7484ZM50.5024 38.4382H20.5549V33.5196H50.5024V38.4382ZM36.9355 35.9167C36.9355 35.1264 36.3097 34.4614 35.5061 34.4614L34.5767 35.9167H34.0767C34.0767 35.917 34.0767 35.9172 34.0767 35.9174C34.077 36.7083 34.7034 37.3728 35.5061 37.3728C36.31 37.3728 36.9355 36.7076 36.9355 35.9167ZM36.9355 43.0859C36.9355 42.2965 36.31 41.6305 35.5061 41.6305L34.5767 43.0859H34.0767C34.0767 43.0861 34.0767 43.0863 34.0767 43.0866C34.077 43.8789 34.7042 44.5412 35.5061 44.5412C36.3092 44.5412 36.9355 43.8782 36.9355 43.0859Z" stroke="#28AECB"/>
</svg>
