<svg width="70" height="70" viewBox="0 0 70 70" fill="none" xmlns="http://www.w3.org/2000/svg">
<circle cx="35" cy="35" r="34.5" stroke="#28AECB"/>
<g clip-path="url(#clip0_8_2837)">
<path d="M30.7236 46.9472L30.5 46H23C22.337 46 21.7011 45.7366 21.2322 45.2678C20.7634 44.7989 20.5 44.163 20.5 43.5V24C20.5 22.6261 21.6261 21.5 23 21.5H47C47.663 21.5 48.2989 21.7634 48.7678 22.2322C49.2366 22.7011 49.5 23.337 49.5 24V43.5C49.5 44.163 49.2366 44.7989 48.7678 45.2678C48.2989 45.7366 47.663 46 47 46H39.5L39.2764 46.9472L45 49.809V50.5H25V49.809L30.7236 46.9472ZM23 23.5H22.5V24V40.5V41H23H47H47.5V40.5V24V23.5H47H23Z" stroke="#28AECB"/>
</g>
<defs>
<clipPath id="clip0_8_2837">
<rect width="30" height="30" fill="white" transform="translate(20 21)"/>
</clipPath>
</defs>
</svg>
