<svg width="70" height="70" viewBox="0 0 70 70" fill="none" xmlns="http://www.w3.org/2000/svg">
<circle cx="35" cy="35" r="34.5" stroke="#28AECB"/>
<path d="M33.6271 19.3956C34.0943 19.1361 34.6198 19 35.1542 19C35.6885 19 36.2141 19.1361 36.6812 19.3956L48.5 25.96C48.745 26.0962 48.9492 26.2955 49.0913 26.5372C49.2334 26.7788 49.3083 27.0541 49.3083 27.3345V40.2856C49.3082 40.8464 49.1581 41.3971 48.8735 41.8805C48.589 42.3638 48.1804 42.7623 47.69 43.0346L36.6812 49.1524C36.2141 49.4118 35.6885 49.5479 35.1542 49.5479C34.6198 49.5479 34.0943 49.4118 33.6271 49.1524L22.6183 43.0346C22.1282 42.7624 21.7197 42.3642 21.4352 41.8811C21.1507 41.3981 21.0004 40.8477 21 40.2871V27.3345C21 27.0541 21.0749 26.7788 21.2171 26.5372C21.3592 26.2955 21.5633 26.0962 21.8084 25.96L33.6287 19.3956H33.6271Z" stroke="#28AECB" stroke-linecap="round" stroke-linejoin="round"/>
<path d="M21 26.4092L35.1542 34.2726M35.1542 34.2726L49.3083 26.4092M35.1542 34.2726V49.9995" stroke="#28AECB" stroke-linejoin="round"/>
<path d="M28.0783 30.341L42.2324 22.4775M25.7192 34.7885L30.4373 37.4181" stroke="#28AECB" stroke-linecap="round" stroke-linejoin="round"/>
</svg>
