<svg width="70" height="70" viewBox="0 0 70 70" fill="none" xmlns="http://www.w3.org/2000/svg">
<circle cx="35" cy="35" r="34.5" stroke="#28AECB"/>
<path d="M23.125 31.6257L23.125 31.6256C23.1287 28.4771 24.3811 25.4587 26.6074 23.2324C28.8336 21.0062 31.8518 19.7539 35 19.75C38.1483 19.7539 41.1665 21.0062 43.3926 23.2324C45.6189 25.4587 46.8713 28.4771 46.875 31.6256V31.6257C46.8787 34.1962 46.0391 36.6969 44.4849 38.7443L44.4348 38.8102L44.434 38.8127L44.4313 38.8163L44.31 38.9745C44.2647 39.0334 44.2183 39.0938 44.1802 39.1428L44.1315 39.2054L44.1154 39.2257C44.1127 39.2291 44.111 39.2313 44.1101 39.2324C44.1094 39.2332 44.1092 39.2335 44.1092 39.2335L35 49.9769L25.892 39.2351L25.8898 39.2326C25.8901 39.2329 25.8844 39.2261 25.8697 39.2075C25.8566 39.1911 25.84 39.1699 25.8208 39.1451C25.7825 39.0958 25.7359 39.0353 25.6905 38.9761C25.6453 38.917 25.6017 38.8599 25.5693 38.8174L25.5306 38.7665L25.5199 38.7525L25.5171 38.7488L25.5164 38.7479L25.5163 38.7477L25.5162 38.7477L25.5162 38.7476L25.5162 38.7476C23.9613 36.6993 23.1212 34.1974 23.125 31.6257ZM40 31.6256V31.625C40 30.6361 39.7068 29.6694 39.1574 28.8471C38.608 28.0249 37.8271 27.384 36.9134 27.0056C35.9998 26.6272 34.9945 26.5281 34.0246 26.7211C33.0547 26.914 32.1637 27.3902 31.4645 28.0895C30.7652 28.7887 30.289 29.6796 30.0961 30.6495C29.9032 31.6195 30.0022 32.6248 30.3806 33.5384C30.7591 34.452 31.3999 35.2329 32.2222 35.7823C33.0444 36.3318 34.0111 36.625 35 36.625H35.0006C36.326 36.6233 37.5967 36.0961 38.5339 35.1589C39.4711 34.2217 39.9984 32.951 40 31.6256Z" stroke="#28AECB"/>
</svg>
