<svg width="70" height="70" viewBox="0 0 70 70" fill="none" xmlns="http://www.w3.org/2000/svg">
<g clip-path="url(#clip0_8_3166)">
<path d="M48.9804 17.9944L48.9803 17.9944C48.8236 17.8377 48.6376 17.7133 48.4328 17.6285C48.228 17.5437 48.0086 17.5 47.7869 17.5C47.5653 17.5 47.3458 17.5437 47.1411 17.6285C46.9364 17.7133 46.7504 17.8376 46.5937 17.9942C46.5937 17.9943 46.5936 17.9943 46.5936 17.9944L43.43 21.1613L43.4294 21.162C43.2194 21.3714 43.0612 21.6271 42.9676 21.9085L42.9676 21.9086L42.1363 24.4044L42.099 24.5165L42.0155 24.6L36.8024 29.8131L36.5017 30.1138L36.1566 29.8652C35.3625 29.2931 34.5107 28.8515 33.5944 28.6381C31.4386 28.1367 29.3343 28.5916 27.9173 30.0083C27.3361 30.5921 26.9038 31.307 26.6569 32.0929L26.6557 32.0968L26.6557 32.0968C26.1866 33.5477 24.8472 34.6559 23.3456 34.7965C21.8246 34.9423 20.4333 35.5283 19.3733 36.5952L19.3716 36.5969C16.5105 39.4499 16.9394 44.7317 20.6059 48.3962C24.2719 52.0602 29.5506 52.4833 32.4076 49.6313L32.4086 49.6303C33.4757 48.5707 34.0607 47.1804 34.2079 45.6512C34.3478 44.1562 35.4556 42.8119 36.9051 42.342L36.9092 42.3407L36.9092 42.3407C37.6955 42.0933 38.4109 41.6606 38.9951 41.0791C40.4109 39.6621 40.8636 37.5627 40.3648 35.411L40.3648 35.4109C40.152 34.4921 39.7105 33.6391 39.1364 32.8423L38.8878 32.4973L39.1886 32.1965L44.4003 26.9848L44.4837 26.9013L44.5957 26.864L47.0895 26.0328L47.0898 26.0327C47.3712 25.939 47.6268 25.7809 47.8362 25.5709L47.8367 25.5704L51.0038 22.4041C51.0038 22.404 51.0038 22.404 51.0038 22.404C51.3199 22.0878 51.4976 21.6591 51.4979 21.2121C51.4982 20.7652 51.3212 20.3365 51.0058 20.0199L48.9804 17.9944ZM48.9804 17.9944L51.0053 20.0194L48.9804 17.9944ZM29.1179 40.9256C29.7398 41.3411 30.4708 41.5629 31.2187 41.5629C32.2215 41.5629 33.1833 41.1645 33.8924 40.4554C34.6015 39.7462 34.9999 38.7845 34.9999 37.7816C34.9999 37.0337 34.7782 36.3027 34.3627 35.6809C33.9472 35.059 33.3566 34.5744 32.6657 34.2882C31.9748 34.002 31.2145 33.9271 30.481 34.073C29.7475 34.2189 29.0737 34.579 28.5449 35.1079C28.0161 35.6367 27.656 36.3104 27.5101 37.0439C27.3642 37.7774 27.4391 38.5377 27.7253 39.2286C28.0115 39.9196 28.4961 40.5101 29.1179 40.9256Z" stroke="#28AECB"/>
</g>
<circle cx="35" cy="35" r="34.5" stroke="#28AECB"/>
<defs>
<clipPath id="clip0_8_3166">
<rect width="35" height="35" fill="white" transform="translate(17 17)"/>
</clipPath>
</defs>
</svg>
