<svg width="70" height="70" viewBox="0 0 70 70" fill="none" xmlns="http://www.w3.org/2000/svg">
<circle cx="35" cy="35" r="34.5" stroke="#28AECB"/>
<path d="M25.75 18.75H45.25C45.9793 18.75 46.6788 19.0397 47.1945 19.5555C47.7103 20.0712 48 20.7707 48 21.5V47.5C48 48.2293 47.7103 48.9288 47.1945 49.4445C46.6788 49.9603 45.9793 50.25 45.25 50.25H25.75C25.0207 50.25 24.3212 49.9603 23.8055 49.4445C23.2897 48.9288 23 48.2293 23 47.5V21.5C23 20.7707 23.2897 20.0712 23.8055 19.5555C24.3212 19.0397 25.0207 18.75 25.75 18.75ZM27.375 21C26.8114 21 26.2709 21.2239 25.8724 21.6224C25.4739 22.0209 25.25 22.5614 25.25 23.125C25.25 23.6886 25.4739 24.2291 25.8724 24.6276C26.2709 25.0261 26.8114 25.25 27.375 25.25C27.9386 25.25 28.4791 25.0261 28.8776 24.6276C29.2761 24.2291 29.5 23.6886 29.5 23.125C29.5 22.5614 29.2761 22.0209 28.8776 21.6224C28.4791 21.2239 27.9386 21 27.375 21ZM32.25 21C31.6864 21 31.1459 21.2239 30.7474 21.6224C30.3489 22.0209 30.125 22.5614 30.125 23.125C30.125 23.6886 30.3489 24.2291 30.7474 24.6276C31.1459 25.0261 31.6864 25.25 32.25 25.25C32.8136 25.25 33.3541 25.0261 33.7526 24.6276C34.1511 24.2291 34.375 23.6886 34.375 23.125C34.375 22.5614 34.1511 22.0209 33.7526 21.6224C33.3541 21.2239 32.8136 21 32.25 21ZM35.5 27.5C32.7815 27.5 30.1744 28.5799 28.2522 30.5022C26.3299 32.4244 25.25 35.0315 25.25 37.75C25.25 40.4685 26.3299 43.0756 28.2522 44.9978C30.1744 46.9201 32.7815 48 35.5 48C38.2185 48 40.8256 46.9201 42.7478 44.9978C44.6701 43.0756 45.75 40.4685 45.75 37.75C45.75 35.0315 44.6701 32.4244 42.7478 30.5022C40.8256 28.5799 38.2185 27.5 35.5 27.5Z" stroke="#28AECB"/>
</svg>
