<svg width="70" height="70" viewBox="0 0 70 70" fill="none" xmlns="http://www.w3.org/2000/svg">
<circle cx="35" cy="35" r="34.5" stroke="#28AECB"/>
<path d="M45.8177 35.3186V35.3185C45.8177 35.247 45.8136 35.18 45.8099 35.1255C45.8092 35.1142 45.8085 35.1036 45.8078 35.0935C45.8053 35.0574 45.8033 35.0279 45.802 34.9987C45.8032 34.9686 45.8054 34.9375 45.8081 34.8979C45.8086 34.8905 45.8091 34.8829 45.8097 34.8749C45.8133 34.8212 45.8177 34.7534 45.8177 34.6815C45.8177 29.3257 41.1639 25.0455 35.4997 25.0455C29.8362 25.0455 25.1811 29.3256 25.1811 34.6815C25.1811 34.7569 25.1865 34.8275 25.1909 34.8814C25.1916 34.8896 25.1922 34.8974 25.1928 34.9049C25.196 34.9433 25.1983 34.9723 25.1997 35C25.1983 35.0275 25.196 35.0564 25.1928 35.0946C25.1922 35.1021 25.1916 35.11 25.1909 35.1183C25.1865 35.1722 25.1811 35.2428 25.1811 35.3185C25.1811 40.6743 29.8355 44.9545 35.4997 44.9545C41.164 44.9545 45.817 40.6743 45.8177 35.3186ZM22.5 35C22.5 28.1142 28.303 22.5 35.5003 22.5C42.697 22.5 48.5 28.1142 48.5 35C48.5 41.8852 42.697 47.5 35.5003 47.5C28.3036 47.5 22.5 41.8852 22.5 35Z" stroke="#28AECB"/>
<path d="M20.6452 30.109L20.6452 30.1044C20.7385 30.1039 20.8164 30.0595 20.8917 29.9743C20.9287 29.9324 20.957 29.8886 20.9759 29.8552C20.9851 29.8389 20.9912 29.8265 20.9944 29.8198C20.9951 29.8182 20.9957 29.8169 20.9961 29.8161L21.002 29.8015L21.01 29.7856C21.0101 29.7855 21.0101 29.7854 21.0102 29.7853L20.6452 30.109ZM20.6452 30.109C20.5093 30.1306 20.3297 30.2193 20.2702 30.2765C20.2395 30.3156 20.1989 30.3836 20.1866 30.4106C20.1672 30.4566 20.1591 30.4956 20.157 30.5059L20.1569 30.5062C20.1511 30.5344 20.1487 30.5582 20.1479 30.5662C20.1458 30.5875 20.1445 30.6098 20.1437 30.6273C20.1418 30.6651 20.1403 30.7165 20.139 30.7777C20.1363 30.9016 20.1339 31.0814 20.1319 31.3082C20.1279 31.7625 20.1251 32.413 20.1232 33.1992C20.1194 34.772 20.1193 36.8918 20.1207 39.0801C20.1222 41.194 20.125 43.3713 20.1274 45.1821C20.13 47.1216 20.132 48.6406 20.131 49.2107C20.1295 49.2133 20.1259 49.2187 20.1188 49.2265C20.0929 49.2552 20.0336 49.3015 19.9209 49.3492C19.694 49.4453 19.3548 49.5033 18.9863 49.4999C18.6181 49.4964 18.278 49.4323 18.0494 49.3314C17.9359 49.2813 17.8748 49.2331 17.8472 49.2021C17.8409 49.1951 17.8371 49.1898 17.8349 49.1864C17.834 49.1849 17.8333 49.1838 17.8328 49.1829C17.8334 48.6909 17.837 47.4955 17.8417 45.9343C17.8475 43.9908 17.8551 41.4803 17.8606 39.0534C17.8655 36.8652 17.8688 34.7454 17.8676 33.1726C17.867 32.3863 17.8653 31.7358 17.8621 31.2814C17.8605 31.0546 17.8585 30.8748 17.8561 30.751C17.8549 30.6897 17.8535 30.6385 17.8518 30.6009C17.8511 30.5835 17.8499 30.5615 17.8479 30.5406C17.8472 30.5328 17.845 30.5098 17.8396 30.4827L17.8396 30.4824C17.8376 30.4725 17.8303 30.4352 17.8126 30.3909C17.8013 30.365 17.7641 30.2989 17.7357 30.2605C17.6771 30.2001 17.4867 30.0986 17.3478 30.0779V30.0762C17.2538 30.0762 17.1764 30.0322 17.102 29.9482C17.0653 29.9068 17.0371 29.8634 17.0184 29.8302C17.0093 29.8141 17.0032 29.8018 17.0001 29.7952C16.9993 29.7936 16.9988 29.7924 16.9984 29.7916M20.6452 30.109L16.9984 29.7916M16.9038 22.4914C16.9171 22.7269 16.9324 22.9693 16.9499 23.212C17.0032 23.9508 17.0779 24.7088 17.1832 25.2925C17.2352 25.5807 17.299 25.852 17.3815 26.0633C17.4221 26.1673 17.4775 26.2843 17.5569 26.3855C17.6325 26.4818 17.7817 26.6282 18.0166 26.6513C18.2867 26.6778 18.4733 26.5255 18.5678 26.4048C18.6552 26.2932 18.7052 26.1635 18.7368 26.0618C18.8025 25.8507 18.8428 25.576 18.8716 25.2889C18.9251 24.7538 18.9487 24.0545 18.9721 23.3604C18.9742 23.298 18.9763 23.2356 18.9784 23.1734C18.9795 23.1418 18.9806 23.1102 18.9817 23.0787C18.9821 23.0886 18.9825 23.0986 18.983 23.1085C18.9847 23.1487 18.9865 23.189 18.9882 23.2293C19.0204 23.9651 19.0533 24.7165 19.1163 25.2891C19.1491 25.5867 19.1933 25.869 19.261 26.0848C19.2936 26.1886 19.3439 26.3187 19.4295 26.4303C19.5194 26.5476 19.7064 26.7112 19.9854 26.6836L19.9854 26.6836L19.9888 26.6833C20.2226 26.6585 20.3706 26.5119 20.4454 26.4161C20.5243 26.315 20.5796 26.1983 20.6202 26.0942C20.7027 25.8828 20.7668 25.6115 20.8192 25.3231C20.9252 24.739 21.001 23.981 21.0554 23.2421C21.0735 22.9964 21.0894 22.7512 21.1032 22.5129L16.9038 22.4914ZM16.9038 22.4914C16.4756 24.7945 16.4485 26.4943 16.5479 27.6669C16.6117 28.4203 16.7279 28.9575 16.8242 29.2988C16.8724 29.4696 16.9157 29.5916 16.9452 29.6674C16.96 29.7053 16.9713 29.7317 16.978 29.7469L16.9846 29.7613L16.9851 29.7623C16.9852 29.7626 16.9851 29.7624 16.9848 29.7616L16.9038 22.4914ZM16.9984 29.7916L16.9978 29.7903L16.9984 29.7916ZM51.3215 49.2515L51.3003 20.546C51.3091 20.5501 51.3185 20.5545 51.3283 20.5594C51.44 20.6146 51.5869 20.7086 51.7577 20.8549C52.0985 21.1468 52.5169 21.6323 52.924 22.3805C53.7377 23.876 54.4982 26.4081 54.5 30.4774V30.4779C54.5016 31.6777 54.185 32.2422 53.8678 32.7156C53.8296 32.7726 53.7896 32.8303 53.7488 32.8892C53.432 33.3461 53.0641 33.8767 53.0654 34.7697C53.0666 35.5939 53.0695 39.2845 53.072 42.7695L53.0754 47.458L53.0764 48.9662L53.0766 49.2427C52.9347 49.3135 52.7416 49.3946 52.5238 49.4465C52.1332 49.5396 51.7064 49.5337 51.3215 49.2515Z" stroke="#28AECB"/>
</svg>
